<svg width="25" height="24" viewBox="0 0 25 24" fill="none" xmlns="http://www.w3.org/2000/svg">
<mask id="mask0" mask-type="alpha" maskUnits="userSpaceOnUse" x="0" y="0" width="24" height="24">
<path fill-rule="evenodd" clip-rule="evenodd" d="M7.67163 3.42198L7.52339 3.4715C10.5265 4.01119 12.9511 5.43708 14.6778 7.86976C16.3995 10.2956 16.9554 12.9812 16.3215 15.858C15.6864 18.7425 14.0077 20.9475 11.4315 22.5411C11.4405 22.5439 11.4486 22.5467 11.4562 22.5493C11.4699 22.554 11.4818 22.5581 11.4941 22.5608C11.6535 22.5945 11.8129 22.6286 11.9722 22.6627C12.3248 22.7382 12.6774 22.8136 13.0311 22.8845C13.5575 22.99 14.0816 23.1056 14.6058 23.2213L14.6059 23.2213C15.5455 23.4287 16.4851 23.6361 17.4377 23.7846C17.6154 23.8123 17.7927 23.8428 17.97 23.8733L17.97 23.8733L17.9701 23.8733L17.9701 23.8733L17.9705 23.8734L17.9707 23.8734C18.1935 23.9117 18.4163 23.9501 18.64 23.9827C18.9554 24.0285 19.2646 23.9838 19.549 23.844C20.1623 23.5419 20.4557 23.0376 20.5035 22.3904C20.5308 22.0204 20.48 21.6573 20.3812 21.2984C20.3272 21.1017 20.2731 20.9017 20.2534 20.6999C20.2166 20.331 20.3476 20.0044 20.5858 19.717C20.6409 19.6505 20.6978 19.5852 20.7546 19.5199C20.8215 19.4431 20.8885 19.3662 20.9527 19.2873C21.0886 19.1202 21.1881 18.9381 21.144 18.7148C21.1265 18.6277 21.1021 18.5417 21.0778 18.4561L21.0768 18.4526C21.0205 18.2544 21.0476 18.0714 21.1759 17.9041C21.2032 17.8686 21.2292 17.8321 21.2552 17.7956C21.2865 17.7517 21.3179 17.7077 21.3516 17.6653C21.5755 17.3841 21.6088 17.0805 21.4711 16.7561C21.4441 16.6927 21.4163 16.6297 21.3884 16.5667C21.341 16.4594 21.2936 16.3521 21.2506 16.2432C21.1384 15.9589 21.1784 15.6947 21.3773 15.4537C21.566 15.2253 21.8079 15.0643 22.0709 14.9275C22.4038 14.7545 22.7277 14.5686 23.0102 14.3228C23.2541 14.1103 23.4769 13.8813 23.6208 13.5919C23.6983 13.4357 23.7424 13.2708 23.7284 13.0971C23.7125 12.9035 23.6443 12.7236 23.5564 12.549C23.3153 12.0706 23.0079 11.6323 22.678 11.2083C22.0456 10.3958 21.4113 9.58463 20.7738 8.77588C20.4065 8.30943 20.2003 7.7828 20.1265 7.20616C20.0901 6.92094 20.0589 6.63483 20.0398 6.34828C20.0253 6.1321 20.0239 5.91414 20.0347 5.69752C20.0425 5.54502 20.0569 5.39282 20.0712 5.2406C20.0843 5.10151 20.0974 4.9624 20.1055 4.82304C20.1446 4.14683 20.0646 3.4819 19.8235 2.8453C19.6334 2.34365 19.4292 1.84691 19.225 1.35015C19.148 1.16304 19.0711 0.975934 18.9949 0.78856C18.8995 0.553788 18.7692 0.340923 18.5625 0.178951C18.3552 0.0163146 18.1273 -0.0485186 17.863 0.0393271C15.5659 0.802093 13.2688 1.56417 10.9715 2.3263L10.9708 2.32654L8.31675 3.20708C8.1016 3.27833 7.8866 3.35016 7.67163 3.42198ZM1.08231 11.8587C1.47037 12.4384 2.20878 12.7283 3.29708 12.7283C3.96468 12.7283 4.67206 12.6513 5.41943 12.4977L5.38679 11.5341C4.71896 11.6387 4.05894 11.6912 3.40582 11.6912C2.75293 11.6912 2.31384 11.5044 2.08901 11.1307C1.86394 10.7572 1.75176 10.0553 1.75176 9.02503C1.75176 7.995 1.86762 7.29334 2.09981 6.91961C2.332 6.5461 2.77454 6.35912 3.42766 6.35912C4.08078 6.35912 4.73367 6.41511 5.38679 6.52663L5.43024 5.58378C4.6539 5.40942 3.94285 5.32201 3.29708 5.32201C2.21591 5.32201 1.47956 5.60325 1.0876 6.16529C0.695867 6.72755 0.5 7.67216 0.5 8.99892C0.5 10.3259 0.694028 11.2791 1.08231 11.8587ZM6.36612 12.613H7.55259V7.37521H6.36612V12.613ZM6.36612 6.48459H7.55259V5.27997H6.36612V6.48459ZM11.7481 8.5119C11.9184 8.7179 12.0037 9.07924 12.0037 9.59614H9.70736C9.71448 9.10026 9.81081 8.74401 9.99564 8.52761C10.1807 8.3112 10.4763 8.20278 10.8828 8.20278C11.289 8.20278 11.5773 8.30589 11.7481 8.5119ZM12.9615 11.6387L12.6569 11.6701C12.1125 11.7122 11.583 11.733 11.0679 11.733C10.5524 11.733 10.2007 11.6319 10.012 11.4292C9.82322 11.2267 9.72529 10.9092 9.71816 10.4759H13.092L13.1684 9.65876C13.1684 8.05961 12.4065 7.25993 10.8828 7.25993C9.30827 7.25993 8.52112 8.18884 8.52112 10.0464C8.52112 10.9824 8.69699 11.6633 9.04895 12.0892C9.40068 12.5154 9.97955 12.7283 10.7849 12.7283C11.423 12.7283 12.1562 12.6479 12.9833 12.4873L12.9615 11.6387ZM5.15368 21.1787H6.36176V14.003H5.15368V21.1787ZM11.5858 15.5953C11.8106 15.9794 11.9233 16.6045 11.9233 17.4706C11.9233 17.9036 11.903 18.2665 11.8635 18.5599C11.8235 18.8533 11.7453 19.1293 11.6295 19.3875C11.3899 19.8973 10.9111 20.1522 10.1927 20.1522H8.82159V15.0193H10.1927C10.8964 15.0193 11.361 15.2114 11.5858 15.5953ZM7.61328 21.1787H10.1927C11.3899 21.1787 12.1955 20.8402 12.609 20.1626C12.8194 19.8205 12.9661 19.4382 13.0497 19.0158C13.133 18.5931 13.175 18.078 13.175 17.4706C13.175 16.2764 12.9645 15.3999 12.5435 14.841C12.1226 14.2825 11.3391 14.003 10.1927 14.003H7.61328V21.1787Z" fill="white"/>
</mask>
<g mask="url(#mask0)">
<rect x="-4.83301" y="-4.28564" width="32" height="31.7143" fill="white"/>
</g>
</svg>
