<svg width="25" height="24" viewBox="0 0 25 24" fill="none" xmlns="http://www.w3.org/2000/svg">
<mask id="mask0" mask-type="alpha" maskUnits="userSpaceOnUse" x="0" y="0" width="25" height="24">
<path fill-rule="evenodd" clip-rule="evenodd" d="M12.5 24C19.129 24 24.5 18.629 24.5 12C24.5 5.371 19.129 0 12.5 0C5.87508 0 0.5 5.371 0.5 12C0.5 18.629 5.87508 24 12.5 24ZM12.5327 13.0293C11.5361 13.0293 10.7151 12.6944 10.0698 12.0163C9.42444 11.3424 9.10177 10.5051 9.10177 9.50851C9.10177 8.50783 9.42444 7.67869 10.0657 7.01702C10.7069 6.35534 11.5238 6.02451 12.5245 6.02451C13.5211 6.02451 14.3339 6.35943 14.9588 7.04152C15.5837 7.71954 15.8982 8.55276 15.8982 9.55344C15.8982 10.5459 15.5837 11.3751 14.9588 12.0368C14.3339 12.6944 13.5293 13.0293 12.5327 13.0293ZM9.10177 17.9347C9.10177 16.934 9.42444 16.1048 10.0616 15.4432C10.7029 14.7815 11.5197 14.4506 12.5286 14.4506C13.5252 14.4506 14.338 14.7856 14.9588 15.4677C15.5837 16.1498 15.8982 16.983 15.8982 17.9796L9.10177 17.9347Z" fill="white"/>
</mask>
<g mask="url(#mask0)">
<rect x="-3.5" y="-4" width="36" height="37" fill="white"/>
</g>
</svg>
