<svg width="768" height="379" viewBox="0 0 768 379" fill="none" xmlns="http://www.w3.org/2000/svg">
<g clip-path="url(#clip0_1275_63125)">
<path d="M17.53 195V182.544H25.108V183.768H18.916V188.07H24.028V189.276H18.916V193.776H25.108V195H17.53ZM26.7865 190.68V189.42H32.2405V190.68H26.7865ZM37.5771 187.026C36.2691 187.026 35.6151 187.482 35.6151 188.394C35.6151 188.814 35.7651 189.114 36.0651 189.294C36.3651 189.462 37.0491 189.642 38.1171 189.834C39.1851 190.014 39.9411 190.272 40.3851 190.608C40.8291 190.944 41.0511 191.574 41.0511 192.498C41.0511 193.422 40.7511 194.1 40.1511 194.532C39.5631 194.964 38.6991 195.18 37.5591 195.18C36.8151 195.18 35.9391 195.096 34.9311 194.928L34.3911 194.838L34.4631 193.668C35.8311 193.872 36.8631 193.974 37.5591 193.974C38.2551 193.974 38.7831 193.866 39.1431 193.65C39.5151 193.422 39.7011 193.05 39.7011 192.534C39.7011 192.006 39.5451 191.652 39.2331 191.472C38.9211 191.28 38.2371 191.1 37.1811 190.932C36.1251 190.764 35.3751 190.518 34.9311 190.194C34.4871 189.87 34.2651 189.27 34.2651 188.394C34.2651 187.518 34.5711 186.87 35.1831 186.45C35.8071 186.03 36.5811 185.82 37.5051 185.82C38.2371 185.82 39.1551 185.904 40.2591 186.072L40.7631 186.162L40.7271 187.314C39.3951 187.122 38.3451 187.026 37.5771 187.026ZM49.2383 193.884L49.7603 193.83L49.7963 194.892C48.4283 195.084 47.2583 195.18 46.2863 195.18C44.9903 195.18 44.0723 194.808 43.5323 194.064C42.9923 193.308 42.7223 192.138 42.7223 190.554C42.7223 187.398 43.9763 185.82 46.4843 185.82C47.6963 185.82 48.6023 186.162 49.2023 186.846C49.8023 187.518 50.1023 188.58 50.1023 190.032L50.0303 191.058H44.0903C44.0903 192.054 44.2703 192.792 44.6303 193.272C44.9903 193.752 45.6143 193.992 46.5023 193.992C47.4023 193.992 48.3143 193.956 49.2383 193.884ZM48.7523 189.978C48.7523 188.874 48.5723 188.094 48.2123 187.638C47.8643 187.182 47.2883 186.954 46.4843 186.954C45.6923 186.954 45.0923 187.194 44.6843 187.674C44.2883 188.154 44.0843 188.922 44.0723 189.978H48.7523ZM52.2062 195V186H53.5382V187.224C54.5822 186.504 55.6802 186.03 56.8322 185.802V187.17C56.3282 187.266 55.8002 187.416 55.2482 187.62C54.7082 187.824 54.2942 188.004 54.0062 188.16L53.5562 188.394V195H52.2062ZM57.5828 186H59.0228L61.1288 193.83H61.7948L63.9728 186H65.3588L62.8208 195H60.1208L57.5828 186ZM67.0948 195V186H68.4448V195H67.0948ZM67.0948 183.966V182.4H68.4448V183.966H67.0948ZM74.3983 185.82C74.7943 185.82 75.4663 185.892 76.4143 186.036L76.8463 186.09L76.7923 187.188C75.8323 187.08 75.1243 187.026 74.6683 187.026C73.6483 187.026 72.9523 187.272 72.5803 187.764C72.2203 188.244 72.0403 189.144 72.0403 190.464C72.0403 191.772 72.2083 192.684 72.5443 193.2C72.8923 193.716 73.6063 193.974 74.6863 193.974L76.8103 193.812L76.8643 194.928C75.7483 195.096 74.9143 195.18 74.3623 195.18C72.9583 195.18 71.9863 194.82 71.4463 194.1C70.9183 193.38 70.6543 192.168 70.6543 190.464C70.6543 188.748 70.9423 187.548 71.5183 186.864C72.0943 186.168 73.0543 185.82 74.3983 185.82ZM84.8867 193.884L85.4087 193.83L85.4447 194.892C84.0767 195.084 82.9067 195.18 81.9347 195.18C80.6387 195.18 79.7207 194.808 79.1807 194.064C78.6407 193.308 78.3707 192.138 78.3707 190.554C78.3707 187.398 79.6247 185.82 82.1327 185.82C83.3447 185.82 84.2507 186.162 84.8507 186.846C85.4507 187.518 85.7507 188.58 85.7507 190.032L85.6787 191.058H79.7387C79.7387 192.054 79.9187 192.792 80.2787 193.272C80.6387 193.752 81.2627 193.992 82.1507 193.992C83.0507 193.992 83.9627 193.956 84.8867 193.884ZM84.4007 189.978C84.4007 188.874 84.2207 188.094 83.8607 187.638C83.5127 187.182 82.9367 186.954 82.1327 186.954C81.3407 186.954 80.7407 187.194 80.3327 187.674C79.9367 188.154 79.7327 188.922 79.7207 189.978H84.4007Z" fill="#17324D"/>
<path d="M643.054 54.802C641.818 55.054 640.708 55.18 639.724 55.18C638.74 55.18 637.942 55.048 637.33 54.784C636.73 54.508 636.262 54.088 635.926 53.524C635.602 52.948 635.374 52.294 635.242 51.562C635.122 50.818 635.062 49.894 635.062 48.79C635.062 47.686 635.122 46.762 635.242 46.018C635.374 45.262 635.602 44.596 635.926 44.02C636.262 43.444 636.73 43.024 637.33 42.76C637.93 42.496 638.71 42.364 639.67 42.364C640.63 42.364 641.758 42.496 643.054 42.76L643 43.93C641.788 43.714 640.708 43.606 639.76 43.606C638.44 43.606 637.564 44.002 637.132 44.794C636.712 45.574 636.502 46.912 636.502 48.808C636.502 49.756 636.538 50.518 636.61 51.094C636.694 51.67 636.85 52.192 637.078 52.66C637.306 53.116 637.636 53.446 638.068 53.65C638.512 53.842 639.154 53.938 639.994 53.938C640.846 53.938 641.848 53.83 643 53.614L643.054 54.802ZM646.437 55H645.087V42.076H646.437V46.504C647.397 46.048 648.321 45.82 649.209 45.82C650.409 45.82 651.213 46.144 651.621 46.792C652.041 47.44 652.251 48.592 652.251 50.248V55H650.901V50.284C650.901 49.036 650.775 48.184 650.523 47.728C650.283 47.26 649.767 47.026 648.975 47.026C648.219 47.026 647.487 47.164 646.779 47.44L646.437 47.566V55ZM654.755 55V46H656.105V55H654.755ZM654.755 43.966V42.4H656.105V43.966H654.755ZM665.046 48.718V53.326C665.082 53.77 665.43 54.034 666.09 54.118L666.036 55.18C665.088 55.18 664.374 54.94 663.894 54.46C662.814 54.94 661.734 55.18 660.654 55.18C659.826 55.18 659.196 54.946 658.764 54.478C658.332 54.01 658.116 53.338 658.116 52.462C658.116 51.586 658.338 50.944 658.782 50.536C659.226 50.116 659.922 49.858 660.87 49.762L663.696 49.492V48.718C663.696 48.106 663.564 47.668 663.3 47.404C663.036 47.14 662.676 47.008 662.22 47.008C661.26 47.008 660.264 47.068 659.232 47.188L658.674 47.242L658.62 46.216C659.94 45.952 661.11 45.82 662.13 45.82C663.15 45.82 663.888 46.054 664.344 46.522C664.812 46.99 665.046 47.722 665.046 48.718ZM659.502 52.39C659.502 53.494 659.958 54.046 660.87 54.046C661.686 54.046 662.49 53.908 663.282 53.632L663.696 53.488V50.518L661.032 50.77C660.492 50.818 660.102 50.974 659.862 51.238C659.622 51.502 659.502 51.886 659.502 52.39ZM666.776 46H668.216L670.322 53.83H670.988L673.166 46H674.552L672.014 55H669.314L666.776 46ZM682.25 53.884L682.772 53.83L682.808 54.892C681.44 55.084 680.27 55.18 679.298 55.18C678.002 55.18 677.084 54.808 676.544 54.064C676.004 53.308 675.734 52.138 675.734 50.554C675.734 47.398 676.988 45.82 679.496 45.82C680.708 45.82 681.614 46.162 682.214 46.846C682.814 47.518 683.114 48.58 683.114 50.032L683.042 51.058H677.102C677.102 52.054 677.282 52.792 677.642 53.272C678.002 53.752 678.626 53.992 679.514 53.992C680.414 53.992 681.326 53.956 682.25 53.884ZM681.764 49.978C681.764 48.874 681.584 48.094 681.224 47.638C680.876 47.182 680.3 46.954 679.496 46.954C678.704 46.954 678.104 47.194 677.696 47.674C677.3 48.154 677.096 48.922 677.084 49.978H681.764ZM689.173 58.996V46H690.505V46.648C691.417 46.096 692.317 45.82 693.205 45.82C694.345 45.82 695.173 46.186 695.689 46.918C696.205 47.638 696.463 48.832 696.463 50.5C696.463 52.168 696.157 53.368 695.545 54.1C694.945 54.82 693.943 55.18 692.539 55.18C691.807 55.18 691.135 55.114 690.523 54.982V58.996H689.173ZM693.007 47.026C692.647 47.026 692.257 47.086 691.837 47.206C691.429 47.326 691.105 47.446 690.865 47.566L690.523 47.746V53.812C691.375 53.944 692.023 54.01 692.467 54.01C693.439 54.01 694.117 53.734 694.501 53.182C694.897 52.63 695.095 51.73 695.095 50.482C695.095 49.234 694.915 48.346 694.555 47.818C694.207 47.29 693.691 47.026 693.007 47.026ZM704.281 46H705.631V55H704.281V54.37C703.381 54.91 702.493 55.18 701.617 55.18C700.393 55.18 699.577 54.862 699.169 54.226C698.773 53.59 698.575 52.414 698.575 50.698V46H699.925V50.68C699.925 51.988 700.039 52.864 700.267 53.308C700.495 53.752 701.011 53.974 701.815 53.974C702.211 53.974 702.613 53.92 703.021 53.812C703.429 53.692 703.741 53.578 703.957 53.47L704.281 53.308V46ZM712.206 45.82C713.418 45.82 714.264 46.168 714.744 46.864C715.236 47.548 715.482 48.754 715.482 50.482C715.482 52.21 715.176 53.428 714.564 54.136C713.964 54.832 712.854 55.18 711.234 55.18C710.73 55.18 709.896 55.132 708.732 55.036L708.228 54.982V42.076H709.56V46.45C710.472 46.03 711.354 45.82 712.206 45.82ZM711.216 53.974C712.392 53.974 713.166 53.71 713.538 53.182C713.922 52.642 714.114 51.736 714.114 50.464C714.114 49.192 713.964 48.304 713.664 47.8C713.364 47.284 712.83 47.026 712.062 47.026C711.366 47.026 710.652 47.158 709.92 47.422L709.56 47.548V53.884C710.34 53.944 710.892 53.974 711.216 53.974ZM721.68 45.82C722.892 45.82 723.738 46.168 724.218 46.864C724.71 47.548 724.956 48.754 724.956 50.482C724.956 52.21 724.65 53.428 724.038 54.136C723.438 54.832 722.328 55.18 720.708 55.18C720.204 55.18 719.37 55.132 718.206 55.036L717.702 54.982V42.076H719.034V46.45C719.946 46.03 720.828 45.82 721.68 45.82ZM720.69 53.974C721.866 53.974 722.64 53.71 723.012 53.182C723.396 52.642 723.588 51.736 723.588 50.464C723.588 49.192 723.438 48.304 723.138 47.8C722.838 47.284 722.304 47.026 721.536 47.026C720.84 47.026 720.126 47.158 719.394 47.422L719.034 47.548V53.884C719.814 53.944 720.366 53.974 720.69 53.974ZM727.285 55V42.076H728.635V55H727.285ZM731.343 55V46H732.693V55H731.343ZM731.343 43.966V42.4H732.693V43.966H731.343ZM738.646 45.82C739.042 45.82 739.714 45.892 740.662 46.036L741.094 46.09L741.04 47.188C740.08 47.08 739.372 47.026 738.916 47.026C737.896 47.026 737.2 47.272 736.828 47.764C736.468 48.244 736.288 49.144 736.288 50.464C736.288 51.772 736.456 52.684 736.792 53.2C737.14 53.716 737.854 53.974 738.934 53.974L741.058 53.812L741.112 54.928C739.996 55.096 739.162 55.18 738.61 55.18C737.206 55.18 736.234 54.82 735.694 54.1C735.166 53.38 734.902 52.168 734.902 50.464C734.902 48.748 735.19 47.548 735.766 46.864C736.342 46.168 737.302 45.82 738.646 45.82ZM749.474 48.718V53.326C749.51 53.77 749.858 54.034 750.518 54.118L750.464 55.18C749.516 55.18 748.802 54.94 748.322 54.46C747.242 54.94 746.162 55.18 745.082 55.18C744.254 55.18 743.624 54.946 743.192 54.478C742.76 54.01 742.544 53.338 742.544 52.462C742.544 51.586 742.766 50.944 743.21 50.536C743.654 50.116 744.35 49.858 745.298 49.762L748.124 49.492V48.718C748.124 48.106 747.992 47.668 747.728 47.404C747.464 47.14 747.104 47.008 746.648 47.008C745.688 47.008 744.692 47.068 743.66 47.188L743.102 47.242L743.048 46.216C744.368 45.952 745.538 45.82 746.558 45.82C747.578 45.82 748.316 46.054 748.772 46.522C749.24 46.99 749.474 47.722 749.474 48.718ZM743.93 52.39C743.93 53.494 744.386 54.046 745.298 54.046C746.114 54.046 746.918 53.908 747.71 53.632L748.124 53.488V50.518L745.46 50.77C744.92 50.818 744.53 50.974 744.29 51.238C744.05 51.502 743.93 51.886 743.93 52.39Z" fill="#17324D"/>
<path d="M643.054 166.802C641.818 167.054 640.708 167.18 639.724 167.18C638.74 167.18 637.942 167.048 637.33 166.784C636.73 166.508 636.262 166.088 635.926 165.524C635.602 164.948 635.374 164.294 635.242 163.562C635.122 162.818 635.062 161.894 635.062 160.79C635.062 159.686 635.122 158.762 635.242 158.018C635.374 157.262 635.602 156.596 635.926 156.02C636.262 155.444 636.73 155.024 637.33 154.76C637.93 154.496 638.71 154.364 639.67 154.364C640.63 154.364 641.758 154.496 643.054 154.76L643 155.93C641.788 155.714 640.708 155.606 639.76 155.606C638.44 155.606 637.564 156.002 637.132 156.794C636.712 157.574 636.502 158.912 636.502 160.808C636.502 161.756 636.538 162.518 636.61 163.094C636.694 163.67 636.85 164.192 637.078 164.66C637.306 165.116 637.636 165.446 638.068 165.65C638.512 165.842 639.154 165.938 639.994 165.938C640.846 165.938 641.848 165.83 643 165.614L643.054 166.802ZM646.437 167H645.087V154.076H646.437V158.504C647.397 158.048 648.321 157.82 649.209 157.82C650.409 157.82 651.213 158.144 651.621 158.792C652.041 159.44 652.251 160.592 652.251 162.248V167H650.901V162.284C650.901 161.036 650.775 160.184 650.523 159.728C650.283 159.26 649.767 159.026 648.975 159.026C648.219 159.026 647.487 159.164 646.779 159.44L646.437 159.566V167ZM654.755 167V158H656.105V167H654.755ZM654.755 155.966V154.4H656.105V155.966H654.755ZM665.046 160.718V165.326C665.082 165.77 665.43 166.034 666.09 166.118L666.036 167.18C665.088 167.18 664.374 166.94 663.894 166.46C662.814 166.94 661.734 167.18 660.654 167.18C659.826 167.18 659.196 166.946 658.764 166.478C658.332 166.01 658.116 165.338 658.116 164.462C658.116 163.586 658.338 162.944 658.782 162.536C659.226 162.116 659.922 161.858 660.87 161.762L663.696 161.492V160.718C663.696 160.106 663.564 159.668 663.3 159.404C663.036 159.14 662.676 159.008 662.22 159.008C661.26 159.008 660.264 159.068 659.232 159.188L658.674 159.242L658.62 158.216C659.94 157.952 661.11 157.82 662.13 157.82C663.15 157.82 663.888 158.054 664.344 158.522C664.812 158.99 665.046 159.722 665.046 160.718ZM659.502 164.39C659.502 165.494 659.958 166.046 660.87 166.046C661.686 166.046 662.49 165.908 663.282 165.632L663.696 165.488V162.518L661.032 162.77C660.492 162.818 660.102 162.974 659.862 163.238C659.622 163.502 659.502 163.886 659.502 164.39ZM666.776 158H668.216L670.322 165.83H670.988L673.166 158H674.552L672.014 167H669.314L666.776 158ZM682.25 165.884L682.772 165.83L682.808 166.892C681.44 167.084 680.27 167.18 679.298 167.18C678.002 167.18 677.084 166.808 676.544 166.064C676.004 165.308 675.734 164.138 675.734 162.554C675.734 159.398 676.988 157.82 679.496 157.82C680.708 157.82 681.614 158.162 682.214 158.846C682.814 159.518 683.114 160.58 683.114 162.032L683.042 163.058H677.102C677.102 164.054 677.282 164.792 677.642 165.272C678.002 165.752 678.626 165.992 679.514 165.992C680.414 165.992 681.326 165.956 682.25 165.884ZM681.764 161.978C681.764 160.874 681.584 160.094 681.224 159.638C680.876 159.182 680.3 158.954 679.496 158.954C678.704 158.954 678.104 159.194 677.696 159.674C677.3 160.154 677.096 160.922 677.084 161.978H681.764ZM689.173 170.996V158H690.505V158.648C691.417 158.096 692.317 157.82 693.205 157.82C694.345 157.82 695.173 158.186 695.689 158.918C696.205 159.638 696.463 160.832 696.463 162.5C696.463 164.168 696.157 165.368 695.545 166.1C694.945 166.82 693.943 167.18 692.539 167.18C691.807 167.18 691.135 167.114 690.523 166.982V170.996H689.173ZM693.007 159.026C692.647 159.026 692.257 159.086 691.837 159.206C691.429 159.326 691.105 159.446 690.865 159.566L690.523 159.746V165.812C691.375 165.944 692.023 166.01 692.467 166.01C693.439 166.01 694.117 165.734 694.501 165.182C694.897 164.63 695.095 163.73 695.095 162.482C695.095 161.234 694.915 160.346 694.555 159.818C694.207 159.29 693.691 159.026 693.007 159.026ZM704.281 158H705.631V167H704.281V166.37C703.381 166.91 702.493 167.18 701.617 167.18C700.393 167.18 699.577 166.862 699.169 166.226C698.773 165.59 698.575 164.414 698.575 162.698V158H699.925V162.68C699.925 163.988 700.039 164.864 700.267 165.308C700.495 165.752 701.011 165.974 701.815 165.974C702.211 165.974 702.613 165.92 703.021 165.812C703.429 165.692 703.741 165.578 703.957 165.47L704.281 165.308V158ZM712.206 157.82C713.418 157.82 714.264 158.168 714.744 158.864C715.236 159.548 715.482 160.754 715.482 162.482C715.482 164.21 715.176 165.428 714.564 166.136C713.964 166.832 712.854 167.18 711.234 167.18C710.73 167.18 709.896 167.132 708.732 167.036L708.228 166.982V154.076H709.56V158.45C710.472 158.03 711.354 157.82 712.206 157.82ZM711.216 165.974C712.392 165.974 713.166 165.71 713.538 165.182C713.922 164.642 714.114 163.736 714.114 162.464C714.114 161.192 713.964 160.304 713.664 159.8C713.364 159.284 712.83 159.026 712.062 159.026C711.366 159.026 710.652 159.158 709.92 159.422L709.56 159.548V165.884C710.34 165.944 710.892 165.974 711.216 165.974ZM721.68 157.82C722.892 157.82 723.738 158.168 724.218 158.864C724.71 159.548 724.956 160.754 724.956 162.482C724.956 164.21 724.65 165.428 724.038 166.136C723.438 166.832 722.328 167.18 720.708 167.18C720.204 167.18 719.37 167.132 718.206 167.036L717.702 166.982V154.076H719.034V158.45C719.946 158.03 720.828 157.82 721.68 157.82ZM720.69 165.974C721.866 165.974 722.64 165.71 723.012 165.182C723.396 164.642 723.588 163.736 723.588 162.464C723.588 161.192 723.438 160.304 723.138 159.8C722.838 159.284 722.304 159.026 721.536 159.026C720.84 159.026 720.126 159.158 719.394 159.422L719.034 159.548V165.884C719.814 165.944 720.366 165.974 720.69 165.974ZM727.285 167V154.076H728.635V167H727.285ZM731.343 167V158H732.693V167H731.343ZM731.343 155.966V154.4H732.693V155.966H731.343ZM738.646 157.82C739.042 157.82 739.714 157.892 740.662 158.036L741.094 158.09L741.04 159.188C740.08 159.08 739.372 159.026 738.916 159.026C737.896 159.026 737.2 159.272 736.828 159.764C736.468 160.244 736.288 161.144 736.288 162.464C736.288 163.772 736.456 164.684 736.792 165.2C737.14 165.716 737.854 165.974 738.934 165.974L741.058 165.812L741.112 166.928C739.996 167.096 739.162 167.18 738.61 167.18C737.206 167.18 736.234 166.82 735.694 166.1C735.166 165.38 734.902 164.168 734.902 162.464C734.902 160.748 735.19 159.548 735.766 158.864C736.342 158.168 737.302 157.82 738.646 157.82ZM749.474 160.718V165.326C749.51 165.77 749.858 166.034 750.518 166.118L750.464 167.18C749.516 167.18 748.802 166.94 748.322 166.46C747.242 166.94 746.162 167.18 745.082 167.18C744.254 167.18 743.624 166.946 743.192 166.478C742.76 166.01 742.544 165.338 742.544 164.462C742.544 163.586 742.766 162.944 743.21 162.536C743.654 162.116 744.35 161.858 745.298 161.762L748.124 161.492V160.718C748.124 160.106 747.992 159.668 747.728 159.404C747.464 159.14 747.104 159.008 746.648 159.008C745.688 159.008 744.692 159.068 743.66 159.188L743.102 159.242L743.048 158.216C744.368 157.952 745.538 157.82 746.558 157.82C747.578 157.82 748.316 158.054 748.772 158.522C749.24 158.99 749.474 159.722 749.474 160.718ZM743.93 164.39C743.93 165.494 744.386 166.046 745.298 166.046C746.114 166.046 746.918 165.908 747.71 165.632L748.124 165.488V162.518L745.46 162.77C744.92 162.818 744.53 162.974 744.29 163.238C744.05 163.502 743.93 163.886 743.93 164.39Z" fill="black"/>
<path d="M643.054 279.802C641.818 280.054 640.708 280.18 639.724 280.18C638.74 280.18 637.942 280.048 637.33 279.784C636.73 279.508 636.262 279.088 635.926 278.524C635.602 277.948 635.374 277.294 635.242 276.562C635.122 275.818 635.062 274.894 635.062 273.79C635.062 272.686 635.122 271.762 635.242 271.018C635.374 270.262 635.602 269.596 635.926 269.02C636.262 268.444 636.73 268.024 637.33 267.76C637.93 267.496 638.71 267.364 639.67 267.364C640.63 267.364 641.758 267.496 643.054 267.76L643 268.93C641.788 268.714 640.708 268.606 639.76 268.606C638.44 268.606 637.564 269.002 637.132 269.794C636.712 270.574 636.502 271.912 636.502 273.808C636.502 274.756 636.538 275.518 636.61 276.094C636.694 276.67 636.85 277.192 637.078 277.66C637.306 278.116 637.636 278.446 638.068 278.65C638.512 278.842 639.154 278.938 639.994 278.938C640.846 278.938 641.848 278.83 643 278.614L643.054 279.802ZM646.437 280H645.087V267.076H646.437V271.504C647.397 271.048 648.321 270.82 649.209 270.82C650.409 270.82 651.213 271.144 651.621 271.792C652.041 272.44 652.251 273.592 652.251 275.248V280H650.901V275.284C650.901 274.036 650.775 273.184 650.523 272.728C650.283 272.26 649.767 272.026 648.975 272.026C648.219 272.026 647.487 272.164 646.779 272.44L646.437 272.566V280ZM654.755 280V271H656.105V280H654.755ZM654.755 268.966V267.4H656.105V268.966H654.755ZM665.046 273.718V278.326C665.082 278.77 665.43 279.034 666.09 279.118L666.036 280.18C665.088 280.18 664.374 279.94 663.894 279.46C662.814 279.94 661.734 280.18 660.654 280.18C659.826 280.18 659.196 279.946 658.764 279.478C658.332 279.01 658.116 278.338 658.116 277.462C658.116 276.586 658.338 275.944 658.782 275.536C659.226 275.116 659.922 274.858 660.87 274.762L663.696 274.492V273.718C663.696 273.106 663.564 272.668 663.3 272.404C663.036 272.14 662.676 272.008 662.22 272.008C661.26 272.008 660.264 272.068 659.232 272.188L658.674 272.242L658.62 271.216C659.94 270.952 661.11 270.82 662.13 270.82C663.15 270.82 663.888 271.054 664.344 271.522C664.812 271.99 665.046 272.722 665.046 273.718ZM659.502 277.39C659.502 278.494 659.958 279.046 660.87 279.046C661.686 279.046 662.49 278.908 663.282 278.632L663.696 278.488V275.518L661.032 275.77C660.492 275.818 660.102 275.974 659.862 276.238C659.622 276.502 659.502 276.886 659.502 277.39ZM666.776 271H668.216L670.322 278.83H670.988L673.166 271H674.552L672.014 280H669.314L666.776 271ZM682.25 278.884L682.772 278.83L682.808 279.892C681.44 280.084 680.27 280.18 679.298 280.18C678.002 280.18 677.084 279.808 676.544 279.064C676.004 278.308 675.734 277.138 675.734 275.554C675.734 272.398 676.988 270.82 679.496 270.82C680.708 270.82 681.614 271.162 682.214 271.846C682.814 272.518 683.114 273.58 683.114 275.032L683.042 276.058H677.102C677.102 277.054 677.282 277.792 677.642 278.272C678.002 278.752 678.626 278.992 679.514 278.992C680.414 278.992 681.326 278.956 682.25 278.884ZM681.764 274.978C681.764 273.874 681.584 273.094 681.224 272.638C680.876 272.182 680.3 271.954 679.496 271.954C678.704 271.954 678.104 272.194 677.696 272.674C677.3 273.154 677.096 273.922 677.084 274.978H681.764ZM689.173 283.996V271H690.505V271.648C691.417 271.096 692.317 270.82 693.205 270.82C694.345 270.82 695.173 271.186 695.689 271.918C696.205 272.638 696.463 273.832 696.463 275.5C696.463 277.168 696.157 278.368 695.545 279.1C694.945 279.82 693.943 280.18 692.539 280.18C691.807 280.18 691.135 280.114 690.523 279.982V283.996H689.173ZM693.007 272.026C692.647 272.026 692.257 272.086 691.837 272.206C691.429 272.326 691.105 272.446 690.865 272.566L690.523 272.746V278.812C691.375 278.944 692.023 279.01 692.467 279.01C693.439 279.01 694.117 278.734 694.501 278.182C694.897 277.63 695.095 276.73 695.095 275.482C695.095 274.234 694.915 273.346 694.555 272.818C694.207 272.29 693.691 272.026 693.007 272.026ZM704.281 271H705.631V280H704.281V279.37C703.381 279.91 702.493 280.18 701.617 280.18C700.393 280.18 699.577 279.862 699.169 279.226C698.773 278.59 698.575 277.414 698.575 275.698V271H699.925V275.68C699.925 276.988 700.039 277.864 700.267 278.308C700.495 278.752 701.011 278.974 701.815 278.974C702.211 278.974 702.613 278.92 703.021 278.812C703.429 278.692 703.741 278.578 703.957 278.47L704.281 278.308V271ZM712.206 270.82C713.418 270.82 714.264 271.168 714.744 271.864C715.236 272.548 715.482 273.754 715.482 275.482C715.482 277.21 715.176 278.428 714.564 279.136C713.964 279.832 712.854 280.18 711.234 280.18C710.73 280.18 709.896 280.132 708.732 280.036L708.228 279.982V267.076H709.56V271.45C710.472 271.03 711.354 270.82 712.206 270.82ZM711.216 278.974C712.392 278.974 713.166 278.71 713.538 278.182C713.922 277.642 714.114 276.736 714.114 275.464C714.114 274.192 713.964 273.304 713.664 272.8C713.364 272.284 712.83 272.026 712.062 272.026C711.366 272.026 710.652 272.158 709.92 272.422L709.56 272.548V278.884C710.34 278.944 710.892 278.974 711.216 278.974ZM721.68 270.82C722.892 270.82 723.738 271.168 724.218 271.864C724.71 272.548 724.956 273.754 724.956 275.482C724.956 277.21 724.65 278.428 724.038 279.136C723.438 279.832 722.328 280.18 720.708 280.18C720.204 280.18 719.37 280.132 718.206 280.036L717.702 279.982V267.076H719.034V271.45C719.946 271.03 720.828 270.82 721.68 270.82ZM720.69 278.974C721.866 278.974 722.64 278.71 723.012 278.182C723.396 277.642 723.588 276.736 723.588 275.464C723.588 274.192 723.438 273.304 723.138 272.8C722.838 272.284 722.304 272.026 721.536 272.026C720.84 272.026 720.126 272.158 719.394 272.422L719.034 272.548V278.884C719.814 278.944 720.366 278.974 720.69 278.974ZM727.285 280V267.076H728.635V280H727.285ZM731.343 280V271H732.693V280H731.343ZM731.343 268.966V267.4H732.693V268.966H731.343ZM738.646 270.82C739.042 270.82 739.714 270.892 740.662 271.036L741.094 271.09L741.04 272.188C740.08 272.08 739.372 272.026 738.916 272.026C737.896 272.026 737.2 272.272 736.828 272.764C736.468 273.244 736.288 274.144 736.288 275.464C736.288 276.772 736.456 277.684 736.792 278.2C737.14 278.716 737.854 278.974 738.934 278.974L741.058 278.812L741.112 279.928C739.996 280.096 739.162 280.18 738.61 280.18C737.206 280.18 736.234 279.82 735.694 279.1C735.166 278.38 734.902 277.168 734.902 275.464C734.902 273.748 735.19 272.548 735.766 271.864C736.342 271.168 737.302 270.82 738.646 270.82ZM749.474 273.718V278.326C749.51 278.77 749.858 279.034 750.518 279.118L750.464 280.18C749.516 280.18 748.802 279.94 748.322 279.46C747.242 279.94 746.162 280.18 745.082 280.18C744.254 280.18 743.624 279.946 743.192 279.478C742.76 279.01 742.544 278.338 742.544 277.462C742.544 276.586 742.766 275.944 743.21 275.536C743.654 275.116 744.35 274.858 745.298 274.762L748.124 274.492V273.718C748.124 273.106 747.992 272.668 747.728 272.404C747.464 272.14 747.104 272.008 746.648 272.008C745.688 272.008 744.692 272.068 743.66 272.188L743.102 272.242L743.048 271.216C744.368 270.952 745.538 270.82 746.558 270.82C747.578 270.82 748.316 271.054 748.772 271.522C749.24 271.99 749.474 272.722 749.474 273.718ZM743.93 277.39C743.93 278.494 744.386 279.046 745.298 279.046C746.114 279.046 746.918 278.908 747.71 278.632L748.124 278.488V275.518L745.46 275.77C744.92 275.818 744.53 275.974 744.29 276.238C744.05 276.502 743.93 276.886 743.93 277.39Z" fill="black"/>
<path d="M643.054 108.802C641.818 109.054 640.708 109.18 639.724 109.18C638.74 109.18 637.942 109.048 637.33 108.784C636.73 108.508 636.262 108.088 635.926 107.524C635.602 106.948 635.374 106.294 635.242 105.562C635.122 104.818 635.062 103.894 635.062 102.79C635.062 101.686 635.122 100.762 635.242 100.018C635.374 99.262 635.602 98.596 635.926 98.02C636.262 97.444 636.73 97.024 637.33 96.76C637.93 96.496 638.71 96.364 639.67 96.364C640.63 96.364 641.758 96.496 643.054 96.76L643 97.93C641.788 97.714 640.708 97.606 639.76 97.606C638.44 97.606 637.564 98.002 637.132 98.794C636.712 99.574 636.502 100.912 636.502 102.808C636.502 103.756 636.538 104.518 636.61 105.094C636.694 105.67 636.85 106.192 637.078 106.66C637.306 107.116 637.636 107.446 638.068 107.65C638.512 107.842 639.154 107.938 639.994 107.938C640.846 107.938 641.848 107.83 643 107.614L643.054 108.802ZM646.437 109H645.087V96.076H646.437V100.504C647.397 100.048 648.321 99.82 649.209 99.82C650.409 99.82 651.213 100.144 651.621 100.792C652.041 101.44 652.251 102.592 652.251 104.248V109H650.901V104.284C650.901 103.036 650.775 102.184 650.523 101.728C650.283 101.26 649.767 101.026 648.975 101.026C648.219 101.026 647.487 101.164 646.779 101.44L646.437 101.566V109ZM654.755 109V100H656.105V109H654.755ZM654.755 97.966V96.4H656.105V97.966H654.755ZM665.046 102.718V107.326C665.082 107.77 665.43 108.034 666.09 108.118L666.036 109.18C665.088 109.18 664.374 108.94 663.894 108.46C662.814 108.94 661.734 109.18 660.654 109.18C659.826 109.18 659.196 108.946 658.764 108.478C658.332 108.01 658.116 107.338 658.116 106.462C658.116 105.586 658.338 104.944 658.782 104.536C659.226 104.116 659.922 103.858 660.87 103.762L663.696 103.492V102.718C663.696 102.106 663.564 101.668 663.3 101.404C663.036 101.14 662.676 101.008 662.22 101.008C661.26 101.008 660.264 101.068 659.232 101.188L658.674 101.242L658.62 100.216C659.94 99.952 661.11 99.82 662.13 99.82C663.15 99.82 663.888 100.054 664.344 100.522C664.812 100.99 665.046 101.722 665.046 102.718ZM659.502 106.39C659.502 107.494 659.958 108.046 660.87 108.046C661.686 108.046 662.49 107.908 663.282 107.632L663.696 107.488V104.518L661.032 104.77C660.492 104.818 660.102 104.974 659.862 105.238C659.622 105.502 659.502 105.886 659.502 106.39ZM666.776 100H668.216L670.322 107.83H670.988L673.166 100H674.552L672.014 109H669.314L666.776 100ZM682.25 107.884L682.772 107.83L682.808 108.892C681.44 109.084 680.27 109.18 679.298 109.18C678.002 109.18 677.084 108.808 676.544 108.064C676.004 107.308 675.734 106.138 675.734 104.554C675.734 101.398 676.988 99.82 679.496 99.82C680.708 99.82 681.614 100.162 682.214 100.846C682.814 101.518 683.114 102.58 683.114 104.032L683.042 105.058H677.102C677.102 106.054 677.282 106.792 677.642 107.272C678.002 107.752 678.626 107.992 679.514 107.992C680.414 107.992 681.326 107.956 682.25 107.884ZM681.764 103.978C681.764 102.874 681.584 102.094 681.224 101.638C680.876 101.182 680.3 100.954 679.496 100.954C678.704 100.954 678.104 101.194 677.696 101.674C677.3 102.154 677.096 102.922 677.084 103.978H681.764ZM689.173 112.996V100H690.505V100.648C691.417 100.096 692.317 99.82 693.205 99.82C694.345 99.82 695.173 100.186 695.689 100.918C696.205 101.638 696.463 102.832 696.463 104.5C696.463 106.168 696.157 107.368 695.545 108.1C694.945 108.82 693.943 109.18 692.539 109.18C691.807 109.18 691.135 109.114 690.523 108.982V112.996H689.173ZM693.007 101.026C692.647 101.026 692.257 101.086 691.837 101.206C691.429 101.326 691.105 101.446 690.865 101.566L690.523 101.746V107.812C691.375 107.944 692.023 108.01 692.467 108.01C693.439 108.01 694.117 107.734 694.501 107.182C694.897 106.63 695.095 105.73 695.095 104.482C695.095 103.234 694.915 102.346 694.555 101.818C694.207 101.29 693.691 101.026 693.007 101.026ZM704.281 100H705.631V109H704.281V108.37C703.381 108.91 702.493 109.18 701.617 109.18C700.393 109.18 699.577 108.862 699.169 108.226C698.773 107.59 698.575 106.414 698.575 104.698V100H699.925V104.68C699.925 105.988 700.039 106.864 700.267 107.308C700.495 107.752 701.011 107.974 701.815 107.974C702.211 107.974 702.613 107.92 703.021 107.812C703.429 107.692 703.741 107.578 703.957 107.47L704.281 107.308V100ZM712.206 99.82C713.418 99.82 714.264 100.168 714.744 100.864C715.236 101.548 715.482 102.754 715.482 104.482C715.482 106.21 715.176 107.428 714.564 108.136C713.964 108.832 712.854 109.18 711.234 109.18C710.73 109.18 709.896 109.132 708.732 109.036L708.228 108.982V96.076H709.56V100.45C710.472 100.03 711.354 99.82 712.206 99.82ZM711.216 107.974C712.392 107.974 713.166 107.71 713.538 107.182C713.922 106.642 714.114 105.736 714.114 104.464C714.114 103.192 713.964 102.304 713.664 101.8C713.364 101.284 712.83 101.026 712.062 101.026C711.366 101.026 710.652 101.158 709.92 101.422L709.56 101.548V107.884C710.34 107.944 710.892 107.974 711.216 107.974ZM721.68 99.82C722.892 99.82 723.738 100.168 724.218 100.864C724.71 101.548 724.956 102.754 724.956 104.482C724.956 106.21 724.65 107.428 724.038 108.136C723.438 108.832 722.328 109.18 720.708 109.18C720.204 109.18 719.37 109.132 718.206 109.036L717.702 108.982V96.076H719.034V100.45C719.946 100.03 720.828 99.82 721.68 99.82ZM720.69 107.974C721.866 107.974 722.64 107.71 723.012 107.182C723.396 106.642 723.588 105.736 723.588 104.464C723.588 103.192 723.438 102.304 723.138 101.8C722.838 101.284 722.304 101.026 721.536 101.026C720.84 101.026 720.126 101.158 719.394 101.422L719.034 101.548V107.884C719.814 107.944 720.366 107.974 720.69 107.974ZM727.285 109V96.076H728.635V109H727.285ZM731.343 109V100H732.693V109H731.343ZM731.343 97.966V96.4H732.693V97.966H731.343ZM738.646 99.82C739.042 99.82 739.714 99.892 740.662 100.036L741.094 100.09L741.04 101.188C740.08 101.08 739.372 101.026 738.916 101.026C737.896 101.026 737.2 101.272 736.828 101.764C736.468 102.244 736.288 103.144 736.288 104.464C736.288 105.772 736.456 106.684 736.792 107.2C737.14 107.716 737.854 107.974 738.934 107.974L741.058 107.812L741.112 108.928C739.996 109.096 739.162 109.18 738.61 109.18C737.206 109.18 736.234 108.82 735.694 108.1C735.166 107.38 734.902 106.168 734.902 104.464C734.902 102.748 735.19 101.548 735.766 100.864C736.342 100.168 737.302 99.82 738.646 99.82ZM749.474 102.718V107.326C749.51 107.77 749.858 108.034 750.518 108.118L750.464 109.18C749.516 109.18 748.802 108.94 748.322 108.46C747.242 108.94 746.162 109.18 745.082 109.18C744.254 109.18 743.624 108.946 743.192 108.478C742.76 108.01 742.544 107.338 742.544 106.462C742.544 105.586 742.766 104.944 743.21 104.536C743.654 104.116 744.35 103.858 745.298 103.762L748.124 103.492V102.718C748.124 102.106 747.992 101.668 747.728 101.404C747.464 101.14 747.104 101.008 746.648 101.008C745.688 101.008 744.692 101.068 743.66 101.188L743.102 101.242L743.048 100.216C744.368 99.952 745.538 99.82 746.558 99.82C747.578 99.82 748.316 100.054 748.772 100.522C749.24 100.99 749.474 101.722 749.474 102.718ZM743.93 106.39C743.93 107.494 744.386 108.046 745.298 108.046C746.114 108.046 746.918 107.908 747.71 107.632L748.124 107.488V104.518L745.46 104.77C744.92 104.818 744.53 104.974 744.29 105.238C744.05 105.502 743.93 105.886 743.93 106.39Z" fill="black"/>
<path d="M643.054 220.802C641.818 221.054 640.708 221.18 639.724 221.18C638.74 221.18 637.942 221.048 637.33 220.784C636.73 220.508 636.262 220.088 635.926 219.524C635.602 218.948 635.374 218.294 635.242 217.562C635.122 216.818 635.062 215.894 635.062 214.79C635.062 213.686 635.122 212.762 635.242 212.018C635.374 211.262 635.602 210.596 635.926 210.02C636.262 209.444 636.73 209.024 637.33 208.76C637.93 208.496 638.71 208.364 639.67 208.364C640.63 208.364 641.758 208.496 643.054 208.76L643 209.93C641.788 209.714 640.708 209.606 639.76 209.606C638.44 209.606 637.564 210.002 637.132 210.794C636.712 211.574 636.502 212.912 636.502 214.808C636.502 215.756 636.538 216.518 636.61 217.094C636.694 217.67 636.85 218.192 637.078 218.66C637.306 219.116 637.636 219.446 638.068 219.65C638.512 219.842 639.154 219.938 639.994 219.938C640.846 219.938 641.848 219.83 643 219.614L643.054 220.802ZM646.437 221H645.087V208.076H646.437V212.504C647.397 212.048 648.321 211.82 649.209 211.82C650.409 211.82 651.213 212.144 651.621 212.792C652.041 213.44 652.251 214.592 652.251 216.248V221H650.901V216.284C650.901 215.036 650.775 214.184 650.523 213.728C650.283 213.26 649.767 213.026 648.975 213.026C648.219 213.026 647.487 213.164 646.779 213.44L646.437 213.566V221ZM654.755 221V212H656.105V221H654.755ZM654.755 209.966V208.4H656.105V209.966H654.755ZM665.046 214.718V219.326C665.082 219.77 665.43 220.034 666.09 220.118L666.036 221.18C665.088 221.18 664.374 220.94 663.894 220.46C662.814 220.94 661.734 221.18 660.654 221.18C659.826 221.18 659.196 220.946 658.764 220.478C658.332 220.01 658.116 219.338 658.116 218.462C658.116 217.586 658.338 216.944 658.782 216.536C659.226 216.116 659.922 215.858 660.87 215.762L663.696 215.492V214.718C663.696 214.106 663.564 213.668 663.3 213.404C663.036 213.14 662.676 213.008 662.22 213.008C661.26 213.008 660.264 213.068 659.232 213.188L658.674 213.242L658.62 212.216C659.94 211.952 661.11 211.82 662.13 211.82C663.15 211.82 663.888 212.054 664.344 212.522C664.812 212.99 665.046 213.722 665.046 214.718ZM659.502 218.39C659.502 219.494 659.958 220.046 660.87 220.046C661.686 220.046 662.49 219.908 663.282 219.632L663.696 219.488V216.518L661.032 216.77C660.492 216.818 660.102 216.974 659.862 217.238C659.622 217.502 659.502 217.886 659.502 218.39ZM666.776 212H668.216L670.322 219.83H670.988L673.166 212H674.552L672.014 221H669.314L666.776 212ZM682.25 219.884L682.772 219.83L682.808 220.892C681.44 221.084 680.27 221.18 679.298 221.18C678.002 221.18 677.084 220.808 676.544 220.064C676.004 219.308 675.734 218.138 675.734 216.554C675.734 213.398 676.988 211.82 679.496 211.82C680.708 211.82 681.614 212.162 682.214 212.846C682.814 213.518 683.114 214.58 683.114 216.032L683.042 217.058H677.102C677.102 218.054 677.282 218.792 677.642 219.272C678.002 219.752 678.626 219.992 679.514 219.992C680.414 219.992 681.326 219.956 682.25 219.884ZM681.764 215.978C681.764 214.874 681.584 214.094 681.224 213.638C680.876 213.182 680.3 212.954 679.496 212.954C678.704 212.954 678.104 213.194 677.696 213.674C677.3 214.154 677.096 214.922 677.084 215.978H681.764ZM689.173 224.996V212H690.505V212.648C691.417 212.096 692.317 211.82 693.205 211.82C694.345 211.82 695.173 212.186 695.689 212.918C696.205 213.638 696.463 214.832 696.463 216.5C696.463 218.168 696.157 219.368 695.545 220.1C694.945 220.82 693.943 221.18 692.539 221.18C691.807 221.18 691.135 221.114 690.523 220.982V224.996H689.173ZM693.007 213.026C692.647 213.026 692.257 213.086 691.837 213.206C691.429 213.326 691.105 213.446 690.865 213.566L690.523 213.746V219.812C691.375 219.944 692.023 220.01 692.467 220.01C693.439 220.01 694.117 219.734 694.501 219.182C694.897 218.63 695.095 217.73 695.095 216.482C695.095 215.234 694.915 214.346 694.555 213.818C694.207 213.29 693.691 213.026 693.007 213.026ZM704.281 212H705.631V221H704.281V220.37C703.381 220.91 702.493 221.18 701.617 221.18C700.393 221.18 699.577 220.862 699.169 220.226C698.773 219.59 698.575 218.414 698.575 216.698V212H699.925V216.68C699.925 217.988 700.039 218.864 700.267 219.308C700.495 219.752 701.011 219.974 701.815 219.974C702.211 219.974 702.613 219.92 703.021 219.812C703.429 219.692 703.741 219.578 703.957 219.47L704.281 219.308V212ZM712.206 211.82C713.418 211.82 714.264 212.168 714.744 212.864C715.236 213.548 715.482 214.754 715.482 216.482C715.482 218.21 715.176 219.428 714.564 220.136C713.964 220.832 712.854 221.18 711.234 221.18C710.73 221.18 709.896 221.132 708.732 221.036L708.228 220.982V208.076H709.56V212.45C710.472 212.03 711.354 211.82 712.206 211.82ZM711.216 219.974C712.392 219.974 713.166 219.71 713.538 219.182C713.922 218.642 714.114 217.736 714.114 216.464C714.114 215.192 713.964 214.304 713.664 213.8C713.364 213.284 712.83 213.026 712.062 213.026C711.366 213.026 710.652 213.158 709.92 213.422L709.56 213.548V219.884C710.34 219.944 710.892 219.974 711.216 219.974ZM721.68 211.82C722.892 211.82 723.738 212.168 724.218 212.864C724.71 213.548 724.956 214.754 724.956 216.482C724.956 218.21 724.65 219.428 724.038 220.136C723.438 220.832 722.328 221.18 720.708 221.18C720.204 221.18 719.37 221.132 718.206 221.036L717.702 220.982V208.076H719.034V212.45C719.946 212.03 720.828 211.82 721.68 211.82ZM720.69 219.974C721.866 219.974 722.64 219.71 723.012 219.182C723.396 218.642 723.588 217.736 723.588 216.464C723.588 215.192 723.438 214.304 723.138 213.8C722.838 213.284 722.304 213.026 721.536 213.026C720.84 213.026 720.126 213.158 719.394 213.422L719.034 213.548V219.884C719.814 219.944 720.366 219.974 720.69 219.974ZM727.285 221V208.076H728.635V221H727.285ZM731.343 221V212H732.693V221H731.343ZM731.343 209.966V208.4H732.693V209.966H731.343ZM738.646 211.82C739.042 211.82 739.714 211.892 740.662 212.036L741.094 212.09L741.04 213.188C740.08 213.08 739.372 213.026 738.916 213.026C737.896 213.026 737.2 213.272 736.828 213.764C736.468 214.244 736.288 215.144 736.288 216.464C736.288 217.772 736.456 218.684 736.792 219.2C737.14 219.716 737.854 219.974 738.934 219.974L741.058 219.812L741.112 220.928C739.996 221.096 739.162 221.18 738.61 221.18C737.206 221.18 736.234 220.82 735.694 220.1C735.166 219.38 734.902 218.168 734.902 216.464C734.902 214.748 735.19 213.548 735.766 212.864C736.342 212.168 737.302 211.82 738.646 211.82ZM749.474 214.718V219.326C749.51 219.77 749.858 220.034 750.518 220.118L750.464 221.18C749.516 221.18 748.802 220.94 748.322 220.46C747.242 220.94 746.162 221.18 745.082 221.18C744.254 221.18 743.624 220.946 743.192 220.478C742.76 220.01 742.544 219.338 742.544 218.462C742.544 217.586 742.766 216.944 743.21 216.536C743.654 216.116 744.35 215.858 745.298 215.762L748.124 215.492V214.718C748.124 214.106 747.992 213.668 747.728 213.404C747.464 213.14 747.104 213.008 746.648 213.008C745.688 213.008 744.692 213.068 743.66 213.188L743.102 213.242L743.048 212.216C744.368 211.952 745.538 211.82 746.558 211.82C747.578 211.82 748.316 212.054 748.772 212.522C749.24 212.99 749.474 213.722 749.474 214.718ZM743.93 218.39C743.93 219.494 744.386 220.046 745.298 220.046C746.114 220.046 746.918 219.908 747.71 219.632L748.124 219.488V216.518L745.46 216.77C744.92 216.818 744.53 216.974 744.29 217.238C744.05 217.502 743.93 217.886 743.93 218.39Z" fill="black"/>
<path d="M643.054 333.802C641.818 334.054 640.708 334.18 639.724 334.18C638.74 334.18 637.942 334.048 637.33 333.784C636.73 333.508 636.262 333.088 635.926 332.524C635.602 331.948 635.374 331.294 635.242 330.562C635.122 329.818 635.062 328.894 635.062 327.79C635.062 326.686 635.122 325.762 635.242 325.018C635.374 324.262 635.602 323.596 635.926 323.02C636.262 322.444 636.73 322.024 637.33 321.76C637.93 321.496 638.71 321.364 639.67 321.364C640.63 321.364 641.758 321.496 643.054 321.76L643 322.93C641.788 322.714 640.708 322.606 639.76 322.606C638.44 322.606 637.564 323.002 637.132 323.794C636.712 324.574 636.502 325.912 636.502 327.808C636.502 328.756 636.538 329.518 636.61 330.094C636.694 330.67 636.85 331.192 637.078 331.66C637.306 332.116 637.636 332.446 638.068 332.65C638.512 332.842 639.154 332.938 639.994 332.938C640.846 332.938 641.848 332.83 643 332.614L643.054 333.802ZM646.437 334H645.087V321.076H646.437V325.504C647.397 325.048 648.321 324.82 649.209 324.82C650.409 324.82 651.213 325.144 651.621 325.792C652.041 326.44 652.251 327.592 652.251 329.248V334H650.901V329.284C650.901 328.036 650.775 327.184 650.523 326.728C650.283 326.26 649.767 326.026 648.975 326.026C648.219 326.026 647.487 326.164 646.779 326.44L646.437 326.566V334ZM654.755 334V325H656.105V334H654.755ZM654.755 322.966V321.4H656.105V322.966H654.755ZM665.046 327.718V332.326C665.082 332.77 665.43 333.034 666.09 333.118L666.036 334.18C665.088 334.18 664.374 333.94 663.894 333.46C662.814 333.94 661.734 334.18 660.654 334.18C659.826 334.18 659.196 333.946 658.764 333.478C658.332 333.01 658.116 332.338 658.116 331.462C658.116 330.586 658.338 329.944 658.782 329.536C659.226 329.116 659.922 328.858 660.87 328.762L663.696 328.492V327.718C663.696 327.106 663.564 326.668 663.3 326.404C663.036 326.14 662.676 326.008 662.22 326.008C661.26 326.008 660.264 326.068 659.232 326.188L658.674 326.242L658.62 325.216C659.94 324.952 661.11 324.82 662.13 324.82C663.15 324.82 663.888 325.054 664.344 325.522C664.812 325.99 665.046 326.722 665.046 327.718ZM659.502 331.39C659.502 332.494 659.958 333.046 660.87 333.046C661.686 333.046 662.49 332.908 663.282 332.632L663.696 332.488V329.518L661.032 329.77C660.492 329.818 660.102 329.974 659.862 330.238C659.622 330.502 659.502 330.886 659.502 331.39ZM666.776 325H668.216L670.322 332.83H670.988L673.166 325H674.552L672.014 334H669.314L666.776 325ZM682.25 332.884L682.772 332.83L682.808 333.892C681.44 334.084 680.27 334.18 679.298 334.18C678.002 334.18 677.084 333.808 676.544 333.064C676.004 332.308 675.734 331.138 675.734 329.554C675.734 326.398 676.988 324.82 679.496 324.82C680.708 324.82 681.614 325.162 682.214 325.846C682.814 326.518 683.114 327.58 683.114 329.032L683.042 330.058H677.102C677.102 331.054 677.282 331.792 677.642 332.272C678.002 332.752 678.626 332.992 679.514 332.992C680.414 332.992 681.326 332.956 682.25 332.884ZM681.764 328.978C681.764 327.874 681.584 327.094 681.224 326.638C680.876 326.182 680.3 325.954 679.496 325.954C678.704 325.954 678.104 326.194 677.696 326.674C677.3 327.154 677.096 327.922 677.084 328.978H681.764ZM689.173 337.996V325H690.505V325.648C691.417 325.096 692.317 324.82 693.205 324.82C694.345 324.82 695.173 325.186 695.689 325.918C696.205 326.638 696.463 327.832 696.463 329.5C696.463 331.168 696.157 332.368 695.545 333.1C694.945 333.82 693.943 334.18 692.539 334.18C691.807 334.18 691.135 334.114 690.523 333.982V337.996H689.173ZM693.007 326.026C692.647 326.026 692.257 326.086 691.837 326.206C691.429 326.326 691.105 326.446 690.865 326.566L690.523 326.746V332.812C691.375 332.944 692.023 333.01 692.467 333.01C693.439 333.01 694.117 332.734 694.501 332.182C694.897 331.63 695.095 330.73 695.095 329.482C695.095 328.234 694.915 327.346 694.555 326.818C694.207 326.29 693.691 326.026 693.007 326.026ZM704.281 325H705.631V334H704.281V333.37C703.381 333.91 702.493 334.18 701.617 334.18C700.393 334.18 699.577 333.862 699.169 333.226C698.773 332.59 698.575 331.414 698.575 329.698V325H699.925V329.68C699.925 330.988 700.039 331.864 700.267 332.308C700.495 332.752 701.011 332.974 701.815 332.974C702.211 332.974 702.613 332.92 703.021 332.812C703.429 332.692 703.741 332.578 703.957 332.47L704.281 332.308V325ZM712.206 324.82C713.418 324.82 714.264 325.168 714.744 325.864C715.236 326.548 715.482 327.754 715.482 329.482C715.482 331.21 715.176 332.428 714.564 333.136C713.964 333.832 712.854 334.18 711.234 334.18C710.73 334.18 709.896 334.132 708.732 334.036L708.228 333.982V321.076H709.56V325.45C710.472 325.03 711.354 324.82 712.206 324.82ZM711.216 332.974C712.392 332.974 713.166 332.71 713.538 332.182C713.922 331.642 714.114 330.736 714.114 329.464C714.114 328.192 713.964 327.304 713.664 326.8C713.364 326.284 712.83 326.026 712.062 326.026C711.366 326.026 710.652 326.158 709.92 326.422L709.56 326.548V332.884C710.34 332.944 710.892 332.974 711.216 332.974ZM721.68 324.82C722.892 324.82 723.738 325.168 724.218 325.864C724.71 326.548 724.956 327.754 724.956 329.482C724.956 331.21 724.65 332.428 724.038 333.136C723.438 333.832 722.328 334.18 720.708 334.18C720.204 334.18 719.37 334.132 718.206 334.036L717.702 333.982V321.076H719.034V325.45C719.946 325.03 720.828 324.82 721.68 324.82ZM720.69 332.974C721.866 332.974 722.64 332.71 723.012 332.182C723.396 331.642 723.588 330.736 723.588 329.464C723.588 328.192 723.438 327.304 723.138 326.8C722.838 326.284 722.304 326.026 721.536 326.026C720.84 326.026 720.126 326.158 719.394 326.422L719.034 326.548V332.884C719.814 332.944 720.366 332.974 720.69 332.974ZM727.285 334V321.076H728.635V334H727.285ZM731.343 334V325H732.693V334H731.343ZM731.343 322.966V321.4H732.693V322.966H731.343ZM738.646 324.82C739.042 324.82 739.714 324.892 740.662 325.036L741.094 325.09L741.04 326.188C740.08 326.08 739.372 326.026 738.916 326.026C737.896 326.026 737.2 326.272 736.828 326.764C736.468 327.244 736.288 328.144 736.288 329.464C736.288 330.772 736.456 331.684 736.792 332.2C737.14 332.716 737.854 332.974 738.934 332.974L741.058 332.812L741.112 333.928C739.996 334.096 739.162 334.18 738.61 334.18C737.206 334.18 736.234 333.82 735.694 333.1C735.166 332.38 734.902 331.168 734.902 329.464C734.902 327.748 735.19 326.548 735.766 325.864C736.342 325.168 737.302 324.82 738.646 324.82ZM749.474 327.718V332.326C749.51 332.77 749.858 333.034 750.518 333.118L750.464 334.18C749.516 334.18 748.802 333.94 748.322 333.46C747.242 333.94 746.162 334.18 745.082 334.18C744.254 334.18 743.624 333.946 743.192 333.478C742.76 333.01 742.544 332.338 742.544 331.462C742.544 330.586 742.766 329.944 743.21 329.536C743.654 329.116 744.35 328.858 745.298 328.762L748.124 328.492V327.718C748.124 327.106 747.992 326.668 747.728 326.404C747.464 326.14 747.104 326.008 746.648 326.008C745.688 326.008 744.692 326.068 743.66 326.188L743.102 326.242L743.048 325.216C744.368 324.952 745.538 324.82 746.558 324.82C747.578 324.82 748.316 325.054 748.772 325.522C749.24 325.99 749.474 326.722 749.474 327.718ZM743.93 331.39C743.93 332.494 744.386 333.046 745.298 333.046C746.114 333.046 746.918 332.908 747.71 332.632L748.124 332.488V329.518L745.46 329.77C744.92 329.818 744.53 329.974 744.29 330.238C744.05 330.502 743.93 330.886 743.93 331.39Z" fill="black"/>
<path d="M528.054 82.802C526.818 83.054 525.708 83.18 524.724 83.18C523.74 83.18 522.942 83.048 522.33 82.784C521.73 82.508 521.262 82.088 520.926 81.524C520.602 80.948 520.374 80.294 520.242 79.562C520.122 78.818 520.062 77.894 520.062 76.79C520.062 75.686 520.122 74.762 520.242 74.018C520.374 73.262 520.602 72.596 520.926 72.02C521.262 71.444 521.73 71.024 522.33 70.76C522.93 70.496 523.71 70.364 524.67 70.364C525.63 70.364 526.758 70.496 528.054 70.76L528 71.93C526.788 71.714 525.708 71.606 524.76 71.606C523.44 71.606 522.564 72.002 522.132 72.794C521.712 73.574 521.502 74.912 521.502 76.808C521.502 77.756 521.538 78.518 521.61 79.094C521.694 79.67 521.85 80.192 522.078 80.66C522.306 81.116 522.636 81.446 523.068 81.65C523.512 81.842 524.154 81.938 524.994 81.938C525.846 81.938 526.848 81.83 528 81.614L528.054 82.802ZM530.195 83V70.076H531.545V83H530.195ZM534.253 83V74H535.603V83H534.253ZM534.253 71.966V70.4H535.603V71.966H534.253ZM544.311 81.884L544.833 81.83L544.869 82.892C543.501 83.084 542.331 83.18 541.359 83.18C540.063 83.18 539.145 82.808 538.605 82.064C538.065 81.308 537.795 80.138 537.795 78.554C537.795 75.398 539.049 73.82 541.557 73.82C542.769 73.82 543.675 74.162 544.275 74.846C544.875 75.518 545.175 76.58 545.175 78.032L545.103 79.058H539.163C539.163 80.054 539.343 80.792 539.703 81.272C540.063 81.752 540.687 81.992 541.575 81.992C542.475 81.992 543.387 81.956 544.311 81.884ZM543.825 77.978C543.825 76.874 543.645 76.094 543.285 75.638C542.937 75.182 542.361 74.954 541.557 74.954C540.765 74.954 540.165 75.194 539.757 75.674C539.361 76.154 539.157 76.922 539.145 77.978H543.825ZM548.628 83H547.278V74H548.61V74.63C549.582 74.09 550.512 73.82 551.4 73.82C552.6 73.82 553.404 74.144 553.812 74.792C554.232 75.44 554.442 76.592 554.442 78.248V83H553.11V78.284C553.11 77.036 552.984 76.184 552.732 75.728C552.492 75.26 551.97 75.026 551.166 75.026C550.782 75.026 550.374 75.086 549.942 75.206C549.522 75.314 549.198 75.422 548.97 75.53L548.628 75.692V83ZM561.556 75.17H558.694V79.472C558.694 80.504 558.766 81.182 558.91 81.506C559.066 81.83 559.426 81.992 559.99 81.992L561.592 81.884L561.682 83C560.878 83.132 560.266 83.198 559.846 83.198C558.91 83.198 558.262 82.97 557.902 82.514C557.542 82.058 557.362 81.188 557.362 79.904V75.17H556.084V74H557.362V71.246H558.694V74H561.556V75.17Z" fill="#17324D"/>
<path d="M528.054 194.802C526.818 195.054 525.708 195.18 524.724 195.18C523.74 195.18 522.942 195.048 522.33 194.784C521.73 194.508 521.262 194.088 520.926 193.524C520.602 192.948 520.374 192.294 520.242 191.562C520.122 190.818 520.062 189.894 520.062 188.79C520.062 187.686 520.122 186.762 520.242 186.018C520.374 185.262 520.602 184.596 520.926 184.02C521.262 183.444 521.73 183.024 522.33 182.76C522.93 182.496 523.71 182.364 524.67 182.364C525.63 182.364 526.758 182.496 528.054 182.76L528 183.93C526.788 183.714 525.708 183.606 524.76 183.606C523.44 183.606 522.564 184.002 522.132 184.794C521.712 185.574 521.502 186.912 521.502 188.808C521.502 189.756 521.538 190.518 521.61 191.094C521.694 191.67 521.85 192.192 522.078 192.66C522.306 193.116 522.636 193.446 523.068 193.65C523.512 193.842 524.154 193.938 524.994 193.938C525.846 193.938 526.848 193.83 528 193.614L528.054 194.802ZM530.195 195V182.076H531.545V195H530.195ZM534.253 195V186H535.603V195H534.253ZM534.253 183.966V182.4H535.603V183.966H534.253ZM544.311 193.884L544.833 193.83L544.869 194.892C543.501 195.084 542.331 195.18 541.359 195.18C540.063 195.18 539.145 194.808 538.605 194.064C538.065 193.308 537.795 192.138 537.795 190.554C537.795 187.398 539.049 185.82 541.557 185.82C542.769 185.82 543.675 186.162 544.275 186.846C544.875 187.518 545.175 188.58 545.175 190.032L545.103 191.058H539.163C539.163 192.054 539.343 192.792 539.703 193.272C540.063 193.752 540.687 193.992 541.575 193.992C542.475 193.992 543.387 193.956 544.311 193.884ZM543.825 189.978C543.825 188.874 543.645 188.094 543.285 187.638C542.937 187.182 542.361 186.954 541.557 186.954C540.765 186.954 540.165 187.194 539.757 187.674C539.361 188.154 539.157 188.922 539.145 189.978H543.825ZM548.628 195H547.278V186H548.61V186.63C549.582 186.09 550.512 185.82 551.4 185.82C552.6 185.82 553.404 186.144 553.812 186.792C554.232 187.44 554.442 188.592 554.442 190.248V195H553.11V190.284C553.11 189.036 552.984 188.184 552.732 187.728C552.492 187.26 551.97 187.026 551.166 187.026C550.782 187.026 550.374 187.086 549.942 187.206C549.522 187.314 549.198 187.422 548.97 187.53L548.628 187.692V195ZM561.556 187.17H558.694V191.472C558.694 192.504 558.766 193.182 558.91 193.506C559.066 193.83 559.426 193.992 559.99 193.992L561.592 193.884L561.682 195C560.878 195.132 560.266 195.198 559.846 195.198C558.91 195.198 558.262 194.97 557.902 194.514C557.542 194.058 557.362 193.188 557.362 191.904V187.17H556.084V186H557.362V183.246H558.694V186H561.556V187.17Z" fill="#17324D"/>
<path d="M528.054 306.802C526.818 307.054 525.708 307.18 524.724 307.18C523.74 307.18 522.942 307.048 522.33 306.784C521.73 306.508 521.262 306.088 520.926 305.524C520.602 304.948 520.374 304.294 520.242 303.562C520.122 302.818 520.062 301.894 520.062 300.79C520.062 299.686 520.122 298.762 520.242 298.018C520.374 297.262 520.602 296.596 520.926 296.02C521.262 295.444 521.73 295.024 522.33 294.76C522.93 294.496 523.71 294.364 524.67 294.364C525.63 294.364 526.758 294.496 528.054 294.76L528 295.93C526.788 295.714 525.708 295.606 524.76 295.606C523.44 295.606 522.564 296.002 522.132 296.794C521.712 297.574 521.502 298.912 521.502 300.808C521.502 301.756 521.538 302.518 521.61 303.094C521.694 303.67 521.85 304.192 522.078 304.66C522.306 305.116 522.636 305.446 523.068 305.65C523.512 305.842 524.154 305.938 524.994 305.938C525.846 305.938 526.848 305.83 528 305.614L528.054 306.802ZM530.195 307V294.076H531.545V307H530.195ZM534.253 307V298H535.603V307H534.253ZM534.253 295.966V294.4H535.603V295.966H534.253ZM544.311 305.884L544.833 305.83L544.869 306.892C543.501 307.084 542.331 307.18 541.359 307.18C540.063 307.18 539.145 306.808 538.605 306.064C538.065 305.308 537.795 304.138 537.795 302.554C537.795 299.398 539.049 297.82 541.557 297.82C542.769 297.82 543.675 298.162 544.275 298.846C544.875 299.518 545.175 300.58 545.175 302.032L545.103 303.058H539.163C539.163 304.054 539.343 304.792 539.703 305.272C540.063 305.752 540.687 305.992 541.575 305.992C542.475 305.992 543.387 305.956 544.311 305.884ZM543.825 301.978C543.825 300.874 543.645 300.094 543.285 299.638C542.937 299.182 542.361 298.954 541.557 298.954C540.765 298.954 540.165 299.194 539.757 299.674C539.361 300.154 539.157 300.922 539.145 301.978H543.825ZM548.628 307H547.278V298H548.61V298.63C549.582 298.09 550.512 297.82 551.4 297.82C552.6 297.82 553.404 298.144 553.812 298.792C554.232 299.44 554.442 300.592 554.442 302.248V307H553.11V302.284C553.11 301.036 552.984 300.184 552.732 299.728C552.492 299.26 551.97 299.026 551.166 299.026C550.782 299.026 550.374 299.086 549.942 299.206C549.522 299.314 549.198 299.422 548.97 299.53L548.628 299.692V307ZM561.556 299.17H558.694V303.472C558.694 304.504 558.766 305.182 558.91 305.506C559.066 305.83 559.426 305.992 559.99 305.992L561.592 305.884L561.682 307C560.878 307.132 560.266 307.198 559.846 307.198C558.91 307.198 558.262 306.97 557.902 306.514C557.542 306.058 557.362 305.188 557.362 303.904V299.17H556.084V298H557.362V295.246H558.694V298H561.556V299.17Z" fill="#17324D"/>
<path d="M392.53 28V15.544H399.982V16.768H393.916V21.628H399.046V22.852H393.916V28H392.53ZM401.771 28V19H403.121V28H401.771ZM401.771 16.966V15.4H403.121V16.966H401.771ZM407.058 28H405.708V19H407.04V19.63C408.012 19.09 408.942 18.82 409.83 18.82C411.03 18.82 411.834 19.144 412.242 19.792C412.662 20.44 412.872 21.592 412.872 23.248V28H411.54V23.284C411.54 22.036 411.414 21.184 411.162 20.728C410.922 20.26 410.4 20.026 409.596 20.026C409.212 20.026 408.804 20.086 408.372 20.206C407.952 20.314 407.628 20.422 407.4 20.53L407.058 20.692V28ZM421.73 21.718V26.326C421.766 26.77 422.114 27.034 422.774 27.118L422.72 28.18C421.772 28.18 421.058 27.94 420.578 27.46C419.498 27.94 418.418 28.18 417.338 28.18C416.51 28.18 415.88 27.946 415.448 27.478C415.016 27.01 414.8 26.338 414.8 25.462C414.8 24.586 415.022 23.944 415.466 23.536C415.91 23.116 416.606 22.858 417.554 22.762L420.38 22.492V21.718C420.38 21.106 420.248 20.668 419.984 20.404C419.72 20.14 419.36 20.008 418.904 20.008C417.944 20.008 416.948 20.068 415.916 20.188L415.358 20.242L415.304 19.216C416.624 18.952 417.794 18.82 418.814 18.82C419.834 18.82 420.572 19.054 421.028 19.522C421.496 19.99 421.73 20.722 421.73 21.718ZM416.186 25.39C416.186 26.494 416.642 27.046 417.554 27.046C418.37 27.046 419.174 26.908 419.966 26.632L420.38 26.488V23.518L417.716 23.77C417.176 23.818 416.786 23.974 416.546 24.238C416.306 24.502 416.186 24.886 416.186 25.39ZM424.502 28V15.076H425.852V28H424.502ZM428.56 28V19H429.91V28H428.56ZM428.56 16.966V15.4H429.91V16.966H428.56ZM437.159 20.17H434.297V24.472C434.297 25.504 434.369 26.182 434.513 26.506C434.669 26.83 435.029 26.992 435.593 26.992L437.195 26.884L437.285 28C436.481 28.132 435.869 28.198 435.449 28.198C434.513 28.198 433.865 27.97 433.505 27.514C433.145 27.058 432.965 26.188 432.965 24.904V20.17H431.687V19H432.965V16.246H434.297V19H437.159V20.17ZM445.162 21.718V26.326C445.198 26.77 445.546 27.034 446.206 27.118L446.152 28.18C445.204 28.18 444.49 27.94 444.01 27.46C442.93 27.94 441.85 28.18 440.77 28.18C439.942 28.18 439.312 27.946 438.88 27.478C438.448 27.01 438.232 26.338 438.232 25.462C438.232 24.586 438.454 23.944 438.898 23.536C439.342 23.116 440.038 22.858 440.986 22.762L443.812 22.492V21.718C443.812 21.106 443.68 20.668 443.416 20.404C443.152 20.14 442.792 20.008 442.336 20.008C441.376 20.008 440.38 20.068 439.348 20.188L438.79 20.242L438.736 19.216C440.056 18.952 441.226 18.82 442.246 18.82C443.266 18.82 444.004 19.054 444.46 19.522C444.928 19.99 445.162 20.722 445.162 21.718ZM439.618 25.39C439.618 26.494 440.074 27.046 440.986 27.046C441.802 27.046 442.606 26.908 443.398 26.632L443.812 26.488V23.518L441.148 23.77C440.608 23.818 440.218 23.974 439.978 24.238C439.738 24.502 439.618 24.886 439.618 25.39ZM440.158 14.68L444.046 16.444L443.668 17.362L439.69 15.832L440.158 14.68Z" fill="#17324D"/>
<path d="M392.53 161V148.544H399.982V149.768H393.916V154.628H399.046V155.852H393.916V161H392.53ZM401.771 161V152H403.121V161H401.771ZM401.771 149.966V148.4H403.121V149.966H401.771ZM407.058 161H405.708V152H407.04V152.63C408.012 152.09 408.942 151.82 409.83 151.82C411.03 151.82 411.834 152.144 412.242 152.792C412.662 153.44 412.872 154.592 412.872 156.248V161H411.54V156.284C411.54 155.036 411.414 154.184 411.162 153.728C410.922 153.26 410.4 153.026 409.596 153.026C409.212 153.026 408.804 153.086 408.372 153.206C407.952 153.314 407.628 153.422 407.4 153.53L407.058 153.692V161ZM421.73 154.718V159.326C421.766 159.77 422.114 160.034 422.774 160.118L422.72 161.18C421.772 161.18 421.058 160.94 420.578 160.46C419.498 160.94 418.418 161.18 417.338 161.18C416.51 161.18 415.88 160.946 415.448 160.478C415.016 160.01 414.8 159.338 414.8 158.462C414.8 157.586 415.022 156.944 415.466 156.536C415.91 156.116 416.606 155.858 417.554 155.762L420.38 155.492V154.718C420.38 154.106 420.248 153.668 419.984 153.404C419.72 153.14 419.36 153.008 418.904 153.008C417.944 153.008 416.948 153.068 415.916 153.188L415.358 153.242L415.304 152.216C416.624 151.952 417.794 151.82 418.814 151.82C419.834 151.82 420.572 152.054 421.028 152.522C421.496 152.99 421.73 153.722 421.73 154.718ZM416.186 158.39C416.186 159.494 416.642 160.046 417.554 160.046C418.37 160.046 419.174 159.908 419.966 159.632L420.38 159.488V156.518L417.716 156.77C417.176 156.818 416.786 156.974 416.546 157.238C416.306 157.502 416.186 157.886 416.186 158.39ZM424.502 161V148.076H425.852V161H424.502ZM428.56 161V152H429.91V161H428.56ZM428.56 149.966V148.4H429.91V149.966H428.56ZM437.159 153.17H434.297V157.472C434.297 158.504 434.369 159.182 434.513 159.506C434.669 159.83 435.029 159.992 435.593 159.992L437.195 159.884L437.285 161C436.481 161.132 435.869 161.198 435.449 161.198C434.513 161.198 433.865 160.97 433.505 160.514C433.145 160.058 432.965 159.188 432.965 157.904V153.17H431.687V152H432.965V149.246H434.297V152H437.159V153.17ZM445.162 154.718V159.326C445.198 159.77 445.546 160.034 446.206 160.118L446.152 161.18C445.204 161.18 444.49 160.94 444.01 160.46C442.93 160.94 441.85 161.18 440.77 161.18C439.942 161.18 439.312 160.946 438.88 160.478C438.448 160.01 438.232 159.338 438.232 158.462C438.232 157.586 438.454 156.944 438.898 156.536C439.342 156.116 440.038 155.858 440.986 155.762L443.812 155.492V154.718C443.812 154.106 443.68 153.668 443.416 153.404C443.152 153.14 442.792 153.008 442.336 153.008C441.376 153.008 440.38 153.068 439.348 153.188L438.79 153.242L438.736 152.216C440.056 151.952 441.226 151.82 442.246 151.82C443.266 151.82 444.004 152.054 444.46 152.522C444.928 152.99 445.162 153.722 445.162 154.718ZM439.618 158.39C439.618 159.494 440.074 160.046 440.986 160.046C441.802 160.046 442.606 159.908 443.398 159.632L443.812 159.488V156.518L441.148 156.77C440.608 156.818 440.218 156.974 439.978 157.238C439.738 157.502 439.618 157.886 439.618 158.39ZM440.158 147.68L444.046 149.444L443.668 150.362L439.69 148.832L440.158 147.68Z" fill="#17324D"/>
<path d="M392.53 231V218.544H399.982V219.768H393.916V224.628H399.046V225.852H393.916V231H392.53ZM401.771 231V222H403.121V231H401.771ZM401.771 219.966V218.4H403.121V219.966H401.771ZM407.058 231H405.708V222H407.04V222.63C408.012 222.09 408.942 221.82 409.83 221.82C411.03 221.82 411.834 222.144 412.242 222.792C412.662 223.44 412.872 224.592 412.872 226.248V231H411.54V226.284C411.54 225.036 411.414 224.184 411.162 223.728C410.922 223.26 410.4 223.026 409.596 223.026C409.212 223.026 408.804 223.086 408.372 223.206C407.952 223.314 407.628 223.422 407.4 223.53L407.058 223.692V231ZM421.73 224.718V229.326C421.766 229.77 422.114 230.034 422.774 230.118L422.72 231.18C421.772 231.18 421.058 230.94 420.578 230.46C419.498 230.94 418.418 231.18 417.338 231.18C416.51 231.18 415.88 230.946 415.448 230.478C415.016 230.01 414.8 229.338 414.8 228.462C414.8 227.586 415.022 226.944 415.466 226.536C415.91 226.116 416.606 225.858 417.554 225.762L420.38 225.492V224.718C420.38 224.106 420.248 223.668 419.984 223.404C419.72 223.14 419.36 223.008 418.904 223.008C417.944 223.008 416.948 223.068 415.916 223.188L415.358 223.242L415.304 222.216C416.624 221.952 417.794 221.82 418.814 221.82C419.834 221.82 420.572 222.054 421.028 222.522C421.496 222.99 421.73 223.722 421.73 224.718ZM416.186 228.39C416.186 229.494 416.642 230.046 417.554 230.046C418.37 230.046 419.174 229.908 419.966 229.632L420.38 229.488V226.518L417.716 226.77C417.176 226.818 416.786 226.974 416.546 227.238C416.306 227.502 416.186 227.886 416.186 228.39ZM424.502 231V218.076H425.852V231H424.502ZM428.56 231V222H429.91V231H428.56ZM428.56 219.966V218.4H429.91V219.966H428.56ZM437.159 223.17H434.297V227.472C434.297 228.504 434.369 229.182 434.513 229.506C434.669 229.83 435.029 229.992 435.593 229.992L437.195 229.884L437.285 231C436.481 231.132 435.869 231.198 435.449 231.198C434.513 231.198 433.865 230.97 433.505 230.514C433.145 230.058 432.965 229.188 432.965 227.904V223.17H431.687V222H432.965V219.246H434.297V222H437.159V223.17ZM445.162 224.718V229.326C445.198 229.77 445.546 230.034 446.206 230.118L446.152 231.18C445.204 231.18 444.49 230.94 444.01 230.46C442.93 230.94 441.85 231.18 440.77 231.18C439.942 231.18 439.312 230.946 438.88 230.478C438.448 230.01 438.232 229.338 438.232 228.462C438.232 227.586 438.454 226.944 438.898 226.536C439.342 226.116 440.038 225.858 440.986 225.762L443.812 225.492V224.718C443.812 224.106 443.68 223.668 443.416 223.404C443.152 223.14 442.792 223.008 442.336 223.008C441.376 223.008 440.38 223.068 439.348 223.188L438.79 223.242L438.736 222.216C440.056 221.952 441.226 221.82 442.246 221.82C443.266 221.82 444.004 222.054 444.46 222.522C444.928 222.99 445.162 223.722 445.162 224.718ZM439.618 228.39C439.618 229.494 440.074 230.046 440.986 230.046C441.802 230.046 442.606 229.908 443.398 229.632L443.812 229.488V226.518L441.148 226.77C440.608 226.818 440.218 226.974 439.978 227.238C439.738 227.502 439.618 227.886 439.618 228.39ZM440.158 217.68L444.046 219.444L443.668 220.362L439.69 218.832L440.158 217.68Z" fill="#17324D"/>
<path d="M392.53 364V351.544H399.982V352.768H393.916V357.628H399.046V358.852H393.916V364H392.53ZM401.771 364V355H403.121V364H401.771ZM401.771 352.966V351.4H403.121V352.966H401.771ZM407.058 364H405.708V355H407.04V355.63C408.012 355.09 408.942 354.82 409.83 354.82C411.03 354.82 411.834 355.144 412.242 355.792C412.662 356.44 412.872 357.592 412.872 359.248V364H411.54V359.284C411.54 358.036 411.414 357.184 411.162 356.728C410.922 356.26 410.4 356.026 409.596 356.026C409.212 356.026 408.804 356.086 408.372 356.206C407.952 356.314 407.628 356.422 407.4 356.53L407.058 356.692V364ZM421.73 357.718V362.326C421.766 362.77 422.114 363.034 422.774 363.118L422.72 364.18C421.772 364.18 421.058 363.94 420.578 363.46C419.498 363.94 418.418 364.18 417.338 364.18C416.51 364.18 415.88 363.946 415.448 363.478C415.016 363.01 414.8 362.338 414.8 361.462C414.8 360.586 415.022 359.944 415.466 359.536C415.91 359.116 416.606 358.858 417.554 358.762L420.38 358.492V357.718C420.38 357.106 420.248 356.668 419.984 356.404C419.72 356.14 419.36 356.008 418.904 356.008C417.944 356.008 416.948 356.068 415.916 356.188L415.358 356.242L415.304 355.216C416.624 354.952 417.794 354.82 418.814 354.82C419.834 354.82 420.572 355.054 421.028 355.522C421.496 355.99 421.73 356.722 421.73 357.718ZM416.186 361.39C416.186 362.494 416.642 363.046 417.554 363.046C418.37 363.046 419.174 362.908 419.966 362.632L420.38 362.488V359.518L417.716 359.77C417.176 359.818 416.786 359.974 416.546 360.238C416.306 360.502 416.186 360.886 416.186 361.39ZM424.502 364V351.076H425.852V364H424.502ZM428.56 364V355H429.91V364H428.56ZM428.56 352.966V351.4H429.91V352.966H428.56ZM437.159 356.17H434.297V360.472C434.297 361.504 434.369 362.182 434.513 362.506C434.669 362.83 435.029 362.992 435.593 362.992L437.195 362.884L437.285 364C436.481 364.132 435.869 364.198 435.449 364.198C434.513 364.198 433.865 363.97 433.505 363.514C433.145 363.058 432.965 362.188 432.965 360.904V356.17H431.687V355H432.965V352.246H434.297V355H437.159V356.17ZM445.162 357.718V362.326C445.198 362.77 445.546 363.034 446.206 363.118L446.152 364.18C445.204 364.18 444.49 363.94 444.01 363.46C442.93 363.94 441.85 364.18 440.77 364.18C439.942 364.18 439.312 363.946 438.88 363.478C438.448 363.01 438.232 362.338 438.232 361.462C438.232 360.586 438.454 359.944 438.898 359.536C439.342 359.116 440.038 358.858 440.986 358.762L443.812 358.492V357.718C443.812 357.106 443.68 356.668 443.416 356.404C443.152 356.14 442.792 356.008 442.336 356.008C441.376 356.008 440.38 356.068 439.348 356.188L438.79 356.242L438.736 355.216C440.056 354.952 441.226 354.82 442.246 354.82C443.266 354.82 444.004 355.054 444.46 355.522C444.928 355.99 445.162 356.722 445.162 357.718ZM439.618 361.39C439.618 362.494 440.074 363.046 440.986 363.046C441.802 363.046 442.606 362.908 443.398 362.632L443.812 362.488V359.518L441.148 359.77C440.608 359.818 440.218 359.974 439.978 360.238C439.738 360.502 439.618 360.886 439.618 361.39ZM440.158 350.68L444.046 352.444L443.668 353.362L439.69 351.832L440.158 350.68Z" fill="#17324D"/>
<path d="M166.916 89.23V94H165.53V81.544H170.138C171.458 81.544 172.448 81.85 173.108 82.462C173.78 83.074 174.116 84.028 174.116 85.324C174.116 87.244 173.354 88.45 171.83 88.942L174.224 94H172.694L170.444 89.23H166.916ZM170.156 88.006C171.848 88.006 172.694 87.136 172.694 85.396C172.694 83.644 171.842 82.768 170.138 82.768H166.916V88.006H170.156ZM176.388 94V85H177.738V94H176.388ZM176.388 82.966V81.4H177.738V82.966H176.388ZM183.691 84.82C184.087 84.82 184.759 84.892 185.707 85.036L186.139 85.09L186.085 86.188C185.125 86.08 184.417 86.026 183.961 86.026C182.941 86.026 182.245 86.272 181.873 86.764C181.513 87.244 181.333 88.144 181.333 89.464C181.333 90.772 181.501 91.684 181.837 92.2C182.185 92.716 182.899 92.974 183.979 92.974L186.103 92.812L186.157 93.928C185.041 94.096 184.207 94.18 183.655 94.18C182.251 94.18 181.279 93.82 180.739 93.1C180.211 92.38 179.947 91.168 179.947 89.464C179.947 87.748 180.235 86.548 180.811 85.864C181.387 85.168 182.347 84.82 183.691 84.82ZM189.515 94H188.165V81.076H189.515V85.504C190.475 85.048 191.399 84.82 192.287 84.82C193.487 84.82 194.291 85.144 194.699 85.792C195.119 86.44 195.329 87.592 195.329 89.248V94H193.979V89.284C193.979 88.036 193.853 87.184 193.601 86.728C193.361 86.26 192.845 86.026 192.053 86.026C191.297 86.026 190.565 86.164 189.857 86.44L189.515 86.566V94ZM197.833 94V85H199.183V94H197.833ZM197.833 82.966V81.4H199.183V82.966H197.833ZM207.891 92.884L208.413 92.83L208.449 93.892C207.081 94.084 205.911 94.18 204.939 94.18C203.643 94.18 202.725 93.808 202.185 93.064C201.645 92.308 201.375 91.138 201.375 89.554C201.375 86.398 202.629 84.82 205.137 84.82C206.349 84.82 207.255 85.162 207.855 85.846C208.455 86.518 208.755 87.58 208.755 89.032L208.683 90.058H202.743C202.743 91.054 202.923 91.792 203.283 92.272C203.643 92.752 204.267 92.992 205.155 92.992C206.055 92.992 206.967 92.956 207.891 92.884ZM207.405 88.978C207.405 87.874 207.225 87.094 206.865 86.638C206.517 86.182 205.941 85.954 205.137 85.954C204.345 85.954 203.745 86.194 203.337 86.674C202.941 87.154 202.737 87.922 202.725 88.978H207.405ZM213.685 86.026C212.377 86.026 211.723 86.482 211.723 87.394C211.723 87.814 211.873 88.114 212.173 88.294C212.473 88.462 213.157 88.642 214.225 88.834C215.293 89.014 216.049 89.272 216.493 89.608C216.937 89.944 217.159 90.574 217.159 91.498C217.159 92.422 216.859 93.1 216.259 93.532C215.671 93.964 214.807 94.18 213.667 94.18C212.923 94.18 212.047 94.096 211.039 93.928L210.499 93.838L210.571 92.668C211.939 92.872 212.971 92.974 213.667 92.974C214.363 92.974 214.891 92.866 215.251 92.65C215.623 92.422 215.809 92.05 215.809 91.534C215.809 91.006 215.653 90.652 215.341 90.472C215.029 90.28 214.345 90.1 213.289 89.932C212.233 89.764 211.483 89.518 211.039 89.194C210.595 88.87 210.373 88.27 210.373 87.394C210.373 86.518 210.679 85.87 211.291 85.45C211.915 85.03 212.689 84.82 213.613 84.82C214.345 84.82 215.263 84.904 216.367 85.072L216.871 85.162L216.835 86.314C215.503 86.122 214.453 86.026 213.685 86.026ZM223.888 86.17H221.026V90.472C221.026 91.504 221.098 92.182 221.242 92.506C221.398 92.83 221.758 92.992 222.322 92.992L223.924 92.884L224.014 94C223.21 94.132 222.598 94.198 222.178 94.198C221.242 94.198 220.594 93.97 220.234 93.514C219.874 93.058 219.694 92.188 219.694 90.904V86.17H218.416V85H219.694V82.246H221.026V85H223.888V86.17ZM231.89 87.718V92.326C231.926 92.77 232.274 93.034 232.934 93.118L232.88 94.18C231.932 94.18 231.218 93.94 230.738 93.46C229.658 93.94 228.578 94.18 227.498 94.18C226.67 94.18 226.04 93.946 225.608 93.478C225.176 93.01 224.96 92.338 224.96 91.462C224.96 90.586 225.182 89.944 225.626 89.536C226.07 89.116 226.766 88.858 227.714 88.762L230.54 88.492V87.718C230.54 87.106 230.408 86.668 230.144 86.404C229.88 86.14 229.52 86.008 229.064 86.008C228.104 86.008 227.108 86.068 226.076 86.188L225.518 86.242L225.464 85.216C226.784 84.952 227.954 84.82 228.974 84.82C229.994 84.82 230.732 85.054 231.188 85.522C231.656 85.99 231.89 86.722 231.89 87.718ZM226.346 91.39C226.346 92.494 226.802 93.046 227.714 93.046C228.53 93.046 229.334 92.908 230.126 92.632L230.54 92.488V89.518L227.876 89.77C227.336 89.818 226.946 89.974 226.706 90.238C226.466 90.502 226.346 90.886 226.346 91.39ZM245.421 81.076V94H244.089V93.388C243.165 93.916 242.253 94.18 241.353 94.18C240.873 94.18 240.453 94.12 240.093 94C239.733 93.88 239.397 93.664 239.085 93.352C238.437 92.704 238.113 91.51 238.113 89.77C238.113 88.018 238.401 86.758 238.977 85.99C239.565 85.21 240.531 84.82 241.875 84.82C242.571 84.82 243.309 84.898 244.089 85.054V81.076H245.421ZM240.129 92.38C240.321 92.608 240.525 92.764 240.741 92.848C240.957 92.932 241.233 92.974 241.569 92.974C241.917 92.974 242.301 92.92 242.721 92.812C243.153 92.692 243.489 92.578 243.729 92.47L244.089 92.308V86.206C243.321 86.062 242.607 85.99 241.947 85.99C241.035 85.99 240.399 86.284 240.039 86.872C239.679 87.448 239.499 88.348 239.499 89.572C239.499 90.964 239.709 91.9 240.129 92.38ZM248.036 94V85H249.386V94H248.036ZM248.036 82.966V81.4H249.386V82.966H248.036ZM257.657 86.17V94H256.307V86.17H255.173V85H256.307V84.19C256.307 82.918 256.487 82.054 256.847 81.598C257.207 81.13 257.837 80.896 258.737 80.896L260.555 81.022L260.537 82.138C259.865 82.114 259.307 82.102 258.863 82.102C258.431 82.102 258.119 82.246 257.927 82.534C257.747 82.822 257.657 83.38 257.657 84.208V85H260.267V86.17H257.657ZM261.888 94V85H263.22V86.224C264.264 85.504 265.362 85.03 266.514 84.802V86.17C266.01 86.266 265.482 86.416 264.93 86.62C264.39 86.824 263.976 87.004 263.688 87.16L263.238 87.394V94H261.888ZM273.726 85H275.076V94H273.726V93.37C272.826 93.91 271.938 94.18 271.062 94.18C269.838 94.18 269.022 93.862 268.614 93.226C268.218 92.59 268.02 91.414 268.02 89.698V85H269.37V89.68C269.37 90.988 269.484 91.864 269.712 92.308C269.94 92.752 270.456 92.974 271.26 92.974C271.656 92.974 272.058 92.92 272.466 92.812C272.874 92.692 273.186 92.578 273.402 92.47L273.726 92.308V85ZM277.673 94V85H279.023V94H277.673ZM277.673 82.966V81.4H279.023V82.966H277.673ZM281.07 86.206V85H287.748V86.206L282.708 92.794H287.748V94H281.07V92.794L286.11 86.206H281.07ZM289.802 94V85H291.152V94H289.802ZM289.802 82.966V81.4H291.152V82.966H289.802ZM293.343 89.482C293.343 87.838 293.637 86.65 294.225 85.918C294.813 85.186 295.803 84.82 297.195 84.82C298.599 84.82 299.589 85.186 300.165 85.918C300.753 86.65 301.047 87.838 301.047 89.482C301.047 91.126 300.771 92.32 300.219 93.064C299.667 93.808 298.659 94.18 297.195 94.18C295.731 94.18 294.723 93.808 294.171 93.064C293.619 92.32 293.343 91.126 293.343 89.482ZM294.729 89.464C294.729 90.772 294.885 91.69 295.197 92.218C295.521 92.746 296.187 93.01 297.195 93.01C298.215 93.01 298.881 92.752 299.193 92.236C299.505 91.708 299.661 90.784 299.661 89.464C299.661 88.144 299.487 87.238 299.139 86.746C298.791 86.242 298.143 85.99 297.195 85.99C296.259 85.99 295.611 86.242 295.251 86.746C294.903 87.238 294.729 88.144 294.729 89.464ZM304.599 94H303.249V85H304.581V85.63C305.553 85.09 306.483 84.82 307.371 84.82C308.571 84.82 309.375 85.144 309.783 85.792C310.203 86.44 310.413 87.592 310.413 89.248V94H309.081V89.284C309.081 88.036 308.955 87.184 308.703 86.728C308.463 86.26 307.941 86.026 307.137 86.026C306.753 86.026 306.345 86.086 305.913 86.206C305.493 86.314 305.169 86.422 304.941 86.53L304.599 86.692V94ZM319.037 92.884L319.559 92.83L319.595 93.892C318.227 94.084 317.057 94.18 316.085 94.18C314.789 94.18 313.871 93.808 313.331 93.064C312.791 92.308 312.521 91.138 312.521 89.554C312.521 86.398 313.775 84.82 316.283 84.82C317.495 84.82 318.401 85.162 319.001 85.846C319.601 86.518 319.901 87.58 319.901 89.032L319.829 90.058H313.889C313.889 91.054 314.069 91.792 314.429 92.272C314.789 92.752 315.413 92.992 316.301 92.992C317.201 92.992 318.113 92.956 319.037 92.884ZM318.551 88.978C318.551 87.874 318.371 87.094 318.011 86.638C317.663 86.182 317.087 85.954 316.283 85.954C315.491 85.954 314.891 86.194 314.483 86.674C314.087 87.154 313.883 87.922 313.871 88.978H318.551Z" fill="#17324D"/>
<path d="M166.916 293.23V298H165.53V285.544H170.138C171.458 285.544 172.448 285.85 173.108 286.462C173.78 287.074 174.116 288.028 174.116 289.324C174.116 291.244 173.354 292.45 171.83 292.942L174.224 298H172.694L170.444 293.23H166.916ZM170.156 292.006C171.848 292.006 172.694 291.136 172.694 289.396C172.694 287.644 171.842 286.768 170.138 286.768H166.916V292.006H170.156ZM176.388 298V289H177.738V298H176.388ZM176.388 286.966V285.4H177.738V286.966H176.388ZM183.691 288.82C184.087 288.82 184.759 288.892 185.707 289.036L186.139 289.09L186.085 290.188C185.125 290.08 184.417 290.026 183.961 290.026C182.941 290.026 182.245 290.272 181.873 290.764C181.513 291.244 181.333 292.144 181.333 293.464C181.333 294.772 181.501 295.684 181.837 296.2C182.185 296.716 182.899 296.974 183.979 296.974L186.103 296.812L186.157 297.928C185.041 298.096 184.207 298.18 183.655 298.18C182.251 298.18 181.279 297.82 180.739 297.1C180.211 296.38 179.947 295.168 179.947 293.464C179.947 291.748 180.235 290.548 180.811 289.864C181.387 289.168 182.347 288.82 183.691 288.82ZM189.515 298H188.165V285.076H189.515V289.504C190.475 289.048 191.399 288.82 192.287 288.82C193.487 288.82 194.291 289.144 194.699 289.792C195.119 290.44 195.329 291.592 195.329 293.248V298H193.979V293.284C193.979 292.036 193.853 291.184 193.601 290.728C193.361 290.26 192.845 290.026 192.053 290.026C191.297 290.026 190.565 290.164 189.857 290.44L189.515 290.566V298ZM197.833 298V289H199.183V298H197.833ZM197.833 286.966V285.4H199.183V286.966H197.833ZM207.891 296.884L208.413 296.83L208.449 297.892C207.081 298.084 205.911 298.18 204.939 298.18C203.643 298.18 202.725 297.808 202.185 297.064C201.645 296.308 201.375 295.138 201.375 293.554C201.375 290.398 202.629 288.82 205.137 288.82C206.349 288.82 207.255 289.162 207.855 289.846C208.455 290.518 208.755 291.58 208.755 293.032L208.683 294.058H202.743C202.743 295.054 202.923 295.792 203.283 296.272C203.643 296.752 204.267 296.992 205.155 296.992C206.055 296.992 206.967 296.956 207.891 296.884ZM207.405 292.978C207.405 291.874 207.225 291.094 206.865 290.638C206.517 290.182 205.941 289.954 205.137 289.954C204.345 289.954 203.745 290.194 203.337 290.674C202.941 291.154 202.737 291.922 202.725 292.978H207.405ZM213.685 290.026C212.377 290.026 211.723 290.482 211.723 291.394C211.723 291.814 211.873 292.114 212.173 292.294C212.473 292.462 213.157 292.642 214.225 292.834C215.293 293.014 216.049 293.272 216.493 293.608C216.937 293.944 217.159 294.574 217.159 295.498C217.159 296.422 216.859 297.1 216.259 297.532C215.671 297.964 214.807 298.18 213.667 298.18C212.923 298.18 212.047 298.096 211.039 297.928L210.499 297.838L210.571 296.668C211.939 296.872 212.971 296.974 213.667 296.974C214.363 296.974 214.891 296.866 215.251 296.65C215.623 296.422 215.809 296.05 215.809 295.534C215.809 295.006 215.653 294.652 215.341 294.472C215.029 294.28 214.345 294.1 213.289 293.932C212.233 293.764 211.483 293.518 211.039 293.194C210.595 292.87 210.373 292.27 210.373 291.394C210.373 290.518 210.679 289.87 211.291 289.45C211.915 289.03 212.689 288.82 213.613 288.82C214.345 288.82 215.263 288.904 216.367 289.072L216.871 289.162L216.835 290.314C215.503 290.122 214.453 290.026 213.685 290.026ZM223.888 290.17H221.026V294.472C221.026 295.504 221.098 296.182 221.242 296.506C221.398 296.83 221.758 296.992 222.322 296.992L223.924 296.884L224.014 298C223.21 298.132 222.598 298.198 222.178 298.198C221.242 298.198 220.594 297.97 220.234 297.514C219.874 297.058 219.694 296.188 219.694 294.904V290.17H218.416V289H219.694V286.246H221.026V289H223.888V290.17ZM231.89 291.718V296.326C231.926 296.77 232.274 297.034 232.934 297.118L232.88 298.18C231.932 298.18 231.218 297.94 230.738 297.46C229.658 297.94 228.578 298.18 227.498 298.18C226.67 298.18 226.04 297.946 225.608 297.478C225.176 297.01 224.96 296.338 224.96 295.462C224.96 294.586 225.182 293.944 225.626 293.536C226.07 293.116 226.766 292.858 227.714 292.762L230.54 292.492V291.718C230.54 291.106 230.408 290.668 230.144 290.404C229.88 290.14 229.52 290.008 229.064 290.008C228.104 290.008 227.108 290.068 226.076 290.188L225.518 290.242L225.464 289.216C226.784 288.952 227.954 288.82 228.974 288.82C229.994 288.82 230.732 289.054 231.188 289.522C231.656 289.99 231.89 290.722 231.89 291.718ZM226.346 295.39C226.346 296.494 226.802 297.046 227.714 297.046C228.53 297.046 229.334 296.908 230.126 296.632L230.54 296.488V293.518L227.876 293.77C227.336 293.818 226.946 293.974 226.706 294.238C226.466 294.502 226.346 294.886 226.346 295.39ZM245.421 285.076V298H244.089V297.388C243.165 297.916 242.253 298.18 241.353 298.18C240.873 298.18 240.453 298.12 240.093 298C239.733 297.88 239.397 297.664 239.085 297.352C238.437 296.704 238.113 295.51 238.113 293.77C238.113 292.018 238.401 290.758 238.977 289.99C239.565 289.21 240.531 288.82 241.875 288.82C242.571 288.82 243.309 288.898 244.089 289.054V285.076H245.421ZM240.129 296.38C240.321 296.608 240.525 296.764 240.741 296.848C240.957 296.932 241.233 296.974 241.569 296.974C241.917 296.974 242.301 296.92 242.721 296.812C243.153 296.692 243.489 296.578 243.729 296.47L244.089 296.308V290.206C243.321 290.062 242.607 289.99 241.947 289.99C241.035 289.99 240.399 290.284 240.039 290.872C239.679 291.448 239.499 292.348 239.499 293.572C239.499 294.964 239.709 295.9 240.129 296.38ZM248.036 298V289H249.386V298H248.036ZM248.036 286.966V285.4H249.386V286.966H248.036ZM257.657 290.17V298H256.307V290.17H255.173V289H256.307V288.19C256.307 286.918 256.487 286.054 256.847 285.598C257.207 285.13 257.837 284.896 258.737 284.896L260.555 285.022L260.537 286.138C259.865 286.114 259.307 286.102 258.863 286.102C258.431 286.102 258.119 286.246 257.927 286.534C257.747 286.822 257.657 287.38 257.657 288.208V289H260.267V290.17H257.657ZM261.888 298V289H263.22V290.224C264.264 289.504 265.362 289.03 266.514 288.802V290.17C266.01 290.266 265.482 290.416 264.93 290.62C264.39 290.824 263.976 291.004 263.688 291.16L263.238 291.394V298H261.888ZM273.726 289H275.076V298H273.726V297.37C272.826 297.91 271.938 298.18 271.062 298.18C269.838 298.18 269.022 297.862 268.614 297.226C268.218 296.59 268.02 295.414 268.02 293.698V289H269.37V293.68C269.37 294.988 269.484 295.864 269.712 296.308C269.94 296.752 270.456 296.974 271.26 296.974C271.656 296.974 272.058 296.92 272.466 296.812C272.874 296.692 273.186 296.578 273.402 296.47L273.726 296.308V289ZM277.673 298V289H279.023V298H277.673ZM277.673 286.966V285.4H279.023V286.966H277.673ZM281.07 290.206V289H287.748V290.206L282.708 296.794H287.748V298H281.07V296.794L286.11 290.206H281.07ZM289.802 298V289H291.152V298H289.802ZM289.802 286.966V285.4H291.152V286.966H289.802ZM293.343 293.482C293.343 291.838 293.637 290.65 294.225 289.918C294.813 289.186 295.803 288.82 297.195 288.82C298.599 288.82 299.589 289.186 300.165 289.918C300.753 290.65 301.047 291.838 301.047 293.482C301.047 295.126 300.771 296.32 300.219 297.064C299.667 297.808 298.659 298.18 297.195 298.18C295.731 298.18 294.723 297.808 294.171 297.064C293.619 296.32 293.343 295.126 293.343 293.482ZM294.729 293.464C294.729 294.772 294.885 295.69 295.197 296.218C295.521 296.746 296.187 297.01 297.195 297.01C298.215 297.01 298.881 296.752 299.193 296.236C299.505 295.708 299.661 294.784 299.661 293.464C299.661 292.144 299.487 291.238 299.139 290.746C298.791 290.242 298.143 289.99 297.195 289.99C296.259 289.99 295.611 290.242 295.251 290.746C294.903 291.238 294.729 292.144 294.729 293.464ZM304.599 298H303.249V289H304.581V289.63C305.553 289.09 306.483 288.82 307.371 288.82C308.571 288.82 309.375 289.144 309.783 289.792C310.203 290.44 310.413 291.592 310.413 293.248V298H309.081V293.284C309.081 292.036 308.955 291.184 308.703 290.728C308.463 290.26 307.941 290.026 307.137 290.026C306.753 290.026 306.345 290.086 305.913 290.206C305.493 290.314 305.169 290.422 304.941 290.53L304.599 290.692V298ZM319.037 296.884L319.559 296.83L319.595 297.892C318.227 298.084 317.057 298.18 316.085 298.18C314.789 298.18 313.871 297.808 313.331 297.064C312.791 296.308 312.521 295.138 312.521 293.554C312.521 290.398 313.775 288.82 316.283 288.82C317.495 288.82 318.401 289.162 319.001 289.846C319.601 290.518 319.901 291.58 319.901 293.032L319.829 294.058H313.889C313.889 295.054 314.069 295.792 314.429 296.272C314.789 296.752 315.413 296.992 316.301 296.992C317.201 296.992 318.113 296.956 319.037 296.884ZM318.551 292.978C318.551 291.874 318.371 291.094 318.011 290.638C317.663 290.182 317.087 289.954 316.283 289.954C315.491 289.954 314.891 290.194 314.483 290.674C314.087 291.154 313.883 291.922 313.871 292.978H318.551Z" fill="#17324D"/>
<path d="M123 190V190.5H123.5V190H123ZM123 87V86.5H122.5V87H123ZM158 87L153 84.1132V89.8868L158 87ZM98 190.5H123V189.5H98V190.5ZM123.5 190V87H122.5V190H123.5ZM123 87.5H153.5V86.5H123V87.5Z" fill="#A2ADB8"/>
<path d="M593 77V77.5H593.5V77H593ZM593 50V49.5H592.5V50H593ZM628 50L623 47.1132V52.8868L628 50ZM568 77.5H593V76.5H568V77.5ZM593.5 77V50H592.5V77H593.5ZM593 50.5H623.5V49.5H593V50.5Z" fill="#A2ADB8"/>
<path d="M593 189V189.5H593.5V189H593ZM593 162V161.5H592.5V162H593ZM628 162L623 159.113V164.887L628 162ZM568 189.5H593V188.5H568V189.5ZM593.5 189V162H592.5V189H593.5ZM593 162.5H623.5V161.5H593V162.5Z" fill="#A2ADB8"/>
<path d="M593 302V302.5H593.5V302H593ZM593 275V274.5H592.5V275H593ZM628 275L623 272.113V277.887L628 275ZM568 302.5H593V301.5H568V302.5ZM593.5 302V275H592.5V302H593.5ZM593 275.5H623.5V274.5H593V275.5Z" fill="#A2ADB8"/>
<path d="M593 77V76.5H593.5V77H593ZM593 104V104.5H592.5V104H593ZM628 104L623 106.887V101.113L628 104ZM568 76.5H593V77.5H568V76.5ZM593.5 77V104H592.5V77H593.5ZM593 103.5H623.5V104.5H593V103.5Z" fill="#A2ADB8"/>
<path d="M593 189V188.5H593.5V189H593ZM593 216V216.5H592.5V216H593ZM628 216L623 218.887V213.113L628 216ZM568 188.5H593V189.5H568V188.5ZM593.5 189V216H592.5V189H593.5ZM593 215.5H623.5V216.5H593V215.5Z" fill="#A2ADB8"/>
<path d="M593 302V301.5H593.5V302H593ZM593 329V329.5H592.5V329H593ZM628 329L623 331.887V326.113L628 329ZM568 301.5H593V302.5H568V301.5ZM593.5 302V329H592.5V302H593.5ZM593 328.5H623.5V329.5H593V328.5Z" fill="#A2ADB8"/>
<path d="M476 150V150.5H476.5V150H476ZM476 79V78.5H475.5V79H476ZM513 79L508 76.1132V81.8868L513 79ZM453 150.5H476V149.5H453V150.5ZM476.5 150V79H475.5V150H476.5ZM476 79.5H508.5V78.5H476V79.5Z" fill="#A2ADB8"/>
<path d="M471 23V22.5H471.5V23H471ZM471 191V191.5H470.5V191H471ZM513 191L508 193.887V188.113L513 191ZM453 22.5H471V23.5H453V22.5ZM471.5 23V191H470.5V23H471.5ZM471 190.5H508.5V191.5H471V190.5Z" fill="#A2ADB8"/>
<path d="M471 225V224.5H471.5V225H471ZM471 299V299.5H470.5V299H471ZM513 299L508 301.887V296.113L513 299ZM453 224.5H471V225.5H453V224.5ZM471.5 225V299H470.5V225H471.5ZM471 298.5H508.5V299.5H471V298.5Z" fill="#A2ADB8"/>
<path d="M476 156V155.5H476.5V156H476ZM476 186V186.5H475.5V186H476ZM513 186L508 188.887V183.113L513 186ZM453 155.5H476V156.5H453V155.5ZM476.5 156V186H475.5V156H476.5ZM476 185.5H508.5V186.5H476V185.5Z" fill="#A2ADB8"/>
<path d="M471 362V362.5H471.5V362H471ZM471 304V303.5H470.5V304H471ZM513 304L508 301.113V306.887L513 304ZM453 362.5H471V361.5H453V362.5ZM471.5 362V304H470.5V362H471.5ZM471 304.5H508.5V303.5H471V304.5Z" fill="#A2ADB8"/>
<path d="M466 357V357.5H466.5V357H466ZM466 74V73.5H465.5V74H466ZM513 74L508 71.1132V76.8868L513 74ZM453 357.5H466V356.5H453V357.5ZM466.5 357V74H465.5V357H466.5ZM466 74.5H508.5V73.5H466V74.5Z" fill="#A2ADB8"/>
<path d="M351 89V89.5H351.5V89H351ZM351 22V21.5H350.5V22H351ZM386 22L381 19.1132V24.8868L386 22ZM326 89.5H351V88.5H326V89.5ZM351.5 89V22H350.5V89H351.5ZM351 22.5H381.5V21.5H351V22.5Z" fill="#A2ADB8"/>
<path d="M351 89V88.5H351.5V89H351ZM351 156V156.5H350.5V156H351ZM386 156L381 158.887V153.113L386 156ZM326 88.5H351V89.5H326V88.5ZM351.5 89V156H350.5V89H351.5ZM351 155.5H381.5V156.5H351V155.5Z" fill="#A2ADB8"/>
<path d="M351 292V292.5H351.5V292H351ZM351 225V224.5H350.5V225H351ZM386 225L381 222.113V227.887L386 225ZM326 292.5H351V291.5H326V292.5ZM351.5 292V225H350.5V292H351.5ZM351 225.5H381.5V224.5H351V225.5Z" fill="#A2ADB8"/>
<path d="M351 292V291.5H351.5V292H351ZM351 359V359.5H350.5V359H351ZM386 359L381 361.887V356.113L386 359ZM326 291.5H351V292.5H326V291.5ZM351.5 292V359H350.5V292H351.5ZM351 358.5H381.5V359.5H351V358.5Z" fill="#A2ADB8"/>
<path d="M123 190V189.5H123.5V190H123ZM123 293V293.5H122.5V293H123ZM158 293L153 295.887V290.113L158 293ZM98 189.5H123V190.5H98V189.5ZM123.5 190V293H122.5V190H123.5ZM123 292.5H153.5V293.5H123V292.5Z" fill="#A2ADB8"/>
<g filter="url(#filter0_d_1275_63125)">
<circle cx="123" cy="190" r="14.5" fill="white" stroke="#17324D"/>
<path d="M124.966 185.12V197H123.58V186.668L120.52 188.684L119.89 187.64L123.67 185.12H124.966Z" fill="#17324D"/>
</g>
<g filter="url(#filter1_d_1275_63125)">
<circle cx="350" cy="293" r="14.5" fill="white" stroke="#17324D"/>
<path d="M353.802 300H346.206V298.83L349.68 295.176C350.28 294.552 350.718 294.078 350.994 293.754C351.27 293.43 351.516 293.046 351.732 292.602C351.96 292.158 352.074 291.714 352.074 291.27C352.074 290.502 351.864 289.962 351.444 289.65C351.024 289.338 350.37 289.182 349.482 289.182C348.702 289.182 347.832 289.284 346.872 289.488L346.404 289.578L346.296 288.426C347.436 288.102 348.612 287.94 349.824 287.94C351.036 287.94 351.948 288.198 352.56 288.714C353.184 289.218 353.496 290.022 353.496 291.126C353.496 291.966 353.31 292.698 352.938 293.322C352.566 293.946 351.924 294.696 351.012 295.572L347.844 298.794H353.802V300Z" fill="#17324D"/>
</g>
<g filter="url(#filter2_d_1275_63125)">
<circle cx="467" cy="358" r="14.5" fill="white" stroke="#17324D"/>
<path d="M463.26 353.426C464.388 353.09 465.594 352.922 466.878 352.922C468.174 352.922 469.11 353.168 469.686 353.66C470.262 354.152 470.55 354.938 470.55 356.018C470.55 356.57 470.472 356.972 470.316 357.224C470.172 357.464 470.052 357.65 469.956 357.782C469.872 357.914 469.758 358.04 469.614 358.16C469.35 358.364 469.14 358.508 468.984 358.592L468.786 358.718C469.482 358.97 469.998 359.294 470.334 359.69C470.67 360.074 470.838 360.71 470.838 361.598C470.838 362.81 470.526 363.71 469.902 364.298C469.29 364.886 468.318 365.18 466.986 365.18C465.93 365.18 464.814 365.06 463.638 364.82L463.08 364.694L463.206 363.56C464.502 363.824 465.714 363.956 466.842 363.956C468.558 363.944 469.416 363.176 469.416 361.652C469.416 360.224 468.6 359.48 466.968 359.42H464.574V358.232H466.968C467.472 358.232 467.958 358.034 468.426 357.638C468.894 357.23 469.128 356.696 469.128 356.036C469.128 355.376 468.942 354.902 468.57 354.614C468.198 354.314 467.574 354.164 466.698 354.164C465.738 354.164 464.79 354.254 463.854 354.434L463.386 354.524L463.26 353.426Z" fill="#17324D"/>
</g>
</g>
<defs>
<filter id="filter0_d_1275_63125" x="104" y="175" width="38" height="38" filterUnits="userSpaceOnUse" color-interpolation-filters="sRGB">
<feFlood flood-opacity="0" result="BackgroundImageFix"/>
<feColorMatrix in="SourceAlpha" type="matrix" values="0 0 0 0 0 0 0 0 0 0 0 0 0 0 0 0 0 0 127 0" result="hardAlpha"/>
<feOffset dy="4"/>
<feGaussianBlur stdDeviation="2"/>
<feComposite in2="hardAlpha" operator="out"/>
<feColorMatrix type="matrix" values="0 0 0 0 0 0 0 0 0 0 0 0 0 0 0 0 0 0 0.25 0"/>
<feBlend mode="normal" in2="BackgroundImageFix" result="effect1_dropShadow_1275_63125"/>
<feBlend mode="normal" in="SourceGraphic" in2="effect1_dropShadow_1275_63125" result="shape"/>
</filter>
<filter id="filter1_d_1275_63125" x="331" y="278" width="38" height="38" filterUnits="userSpaceOnUse" color-interpolation-filters="sRGB">
<feFlood flood-opacity="0" result="BackgroundImageFix"/>
<feColorMatrix in="SourceAlpha" type="matrix" values="0 0 0 0 0 0 0 0 0 0 0 0 0 0 0 0 0 0 127 0" result="hardAlpha"/>
<feOffset dy="4"/>
<feGaussianBlur stdDeviation="2"/>
<feComposite in2="hardAlpha" operator="out"/>
<feColorMatrix type="matrix" values="0 0 0 0 0 0 0 0 0 0 0 0 0 0 0 0 0 0 0.25 0"/>
<feBlend mode="normal" in2="BackgroundImageFix" result="effect1_dropShadow_1275_63125"/>
<feBlend mode="normal" in="SourceGraphic" in2="effect1_dropShadow_1275_63125" result="shape"/>
</filter>
<filter id="filter2_d_1275_63125" x="448" y="343" width="38" height="38" filterUnits="userSpaceOnUse" color-interpolation-filters="sRGB">
<feFlood flood-opacity="0" result="BackgroundImageFix"/>
<feColorMatrix in="SourceAlpha" type="matrix" values="0 0 0 0 0 0 0 0 0 0 0 0 0 0 0 0 0 0 127 0" result="hardAlpha"/>
<feOffset dy="4"/>
<feGaussianBlur stdDeviation="2"/>
<feComposite in2="hardAlpha" operator="out"/>
<feColorMatrix type="matrix" values="0 0 0 0 0 0 0 0 0 0 0 0 0 0 0 0 0 0 0.25 0"/>
<feBlend mode="normal" in2="BackgroundImageFix" result="effect1_dropShadow_1275_63125"/>
<feBlend mode="normal" in="SourceGraphic" in2="effect1_dropShadow_1275_63125" result="shape"/>
</filter>
<clipPath id="clip0_1275_63125">
<rect width="768" height="379" fill="white"/>
</clipPath>
</defs>
</svg>
