<svg width="768" height="440" viewBox="0 0 768 440" fill="none" xmlns="http://www.w3.org/2000/svg">
<g clip-path="url(#clip0_1275_63125)">
<line x1="243.5" y1="3" x2="243.5" y2="126" stroke="#A2ADB8" stroke-dasharray="2 2"/>
<line x1="243.5" y1="364" x2="243.5" y2="448" stroke="#A2ADB8" stroke-dasharray="2 2"/>
<path d="M17.53 248V235.544H25.108V236.768H18.916V241.07H24.028V242.276H18.916V246.776H25.108V248H17.53ZM26.7865 243.68V242.42H32.2405V243.68H26.7865ZM37.5771 240.026C36.2691 240.026 35.6151 240.482 35.6151 241.394C35.6151 241.814 35.7651 242.114 36.0651 242.294C36.3651 242.462 37.0491 242.642 38.1171 242.834C39.1851 243.014 39.9411 243.272 40.3851 243.608C40.8291 243.944 41.0511 244.574 41.0511 245.498C41.0511 246.422 40.7511 247.1 40.1511 247.532C39.5631 247.964 38.6991 248.18 37.5591 248.18C36.8151 248.18 35.9391 248.096 34.9311 247.928L34.3911 247.838L34.4631 246.668C35.8311 246.872 36.8631 246.974 37.5591 246.974C38.2551 246.974 38.7831 246.866 39.1431 246.65C39.5151 246.422 39.7011 246.05 39.7011 245.534C39.7011 245.006 39.5451 244.652 39.2331 244.472C38.9211 244.28 38.2371 244.1 37.1811 243.932C36.1251 243.764 35.3751 243.518 34.9311 243.194C34.4871 242.87 34.2651 242.27 34.2651 241.394C34.2651 240.518 34.5711 239.87 35.1831 239.45C35.8071 239.03 36.5811 238.82 37.5051 238.82C38.2371 238.82 39.1551 238.904 40.2591 239.072L40.7631 239.162L40.7271 240.314C39.3951 240.122 38.3451 240.026 37.5771 240.026ZM49.2383 246.884L49.7603 246.83L49.7963 247.892C48.4283 248.084 47.2583 248.18 46.2863 248.18C44.9903 248.18 44.0723 247.808 43.5323 247.064C42.9923 246.308 42.7223 245.138 42.7223 243.554C42.7223 240.398 43.9763 238.82 46.4843 238.82C47.6963 238.82 48.6023 239.162 49.2023 239.846C49.8023 240.518 50.1023 241.58 50.1023 243.032L50.0303 244.058H44.0903C44.0903 245.054 44.2703 245.792 44.6303 246.272C44.9903 246.752 45.6143 246.992 46.5023 246.992C47.4023 246.992 48.3143 246.956 49.2383 246.884ZM48.7523 242.978C48.7523 241.874 48.5723 241.094 48.2123 240.638C47.8643 240.182 47.2883 239.954 46.4843 239.954C45.6923 239.954 45.0923 240.194 44.6843 240.674C44.2883 241.154 44.0843 241.922 44.0723 242.978H48.7523ZM52.2062 248V239H53.5382V240.224C54.5822 239.504 55.6802 239.03 56.8322 238.802V240.17C56.3282 240.266 55.8002 240.416 55.2482 240.62C54.7082 240.824 54.2942 241.004 54.0062 241.16L53.5562 241.394V248H52.2062ZM57.5828 239H59.0228L61.1288 246.83H61.7948L63.9728 239H65.3588L62.8208 248H60.1208L57.5828 239ZM67.0948 248V239H68.4448V248H67.0948ZM67.0948 236.966V235.4H68.4448V236.966H67.0948ZM74.3983 238.82C74.7943 238.82 75.4663 238.892 76.4143 239.036L76.8463 239.09L76.7923 240.188C75.8323 240.08 75.1243 240.026 74.6683 240.026C73.6483 240.026 72.9523 240.272 72.5803 240.764C72.2203 241.244 72.0403 242.144 72.0403 243.464C72.0403 244.772 72.2083 245.684 72.5443 246.2C72.8923 246.716 73.6063 246.974 74.6863 246.974L76.8103 246.812L76.8643 247.928C75.7483 248.096 74.9143 248.18 74.3623 248.18C72.9583 248.18 71.9863 247.82 71.4463 247.1C70.9183 246.38 70.6543 245.168 70.6543 243.464C70.6543 241.748 70.9423 240.548 71.5183 239.864C72.0943 239.168 73.0543 238.82 74.3983 238.82ZM84.8867 246.884L85.4087 246.83L85.4447 247.892C84.0767 248.084 82.9067 248.18 81.9347 248.18C80.6387 248.18 79.7207 247.808 79.1807 247.064C78.6407 246.308 78.3707 245.138 78.3707 243.554C78.3707 240.398 79.6247 238.82 82.1327 238.82C83.3447 238.82 84.2507 239.162 84.8507 239.846C85.4507 240.518 85.7507 241.58 85.7507 243.032L85.6787 244.058H79.7387C79.7387 245.054 79.9187 245.792 80.2787 246.272C80.6387 246.752 81.2627 246.992 82.1507 246.992C83.0507 246.992 83.9627 246.956 84.8867 246.884ZM84.4007 242.978C84.4007 241.874 84.2207 241.094 83.8607 240.638C83.5127 240.182 82.9367 239.954 82.1327 239.954C81.3407 239.954 80.7407 240.194 80.3327 240.674C79.9367 241.154 79.7327 241.922 79.7207 242.978H84.4007Z" fill="#17324D"/>
<path d="M159.332 24V11.76H167.252V13.92H161.816V16.782H166.172V18.906H161.816V21.84H167.252V24H159.332ZM169.083 24V15H171.477V15.954C172.485 15.354 173.445 14.964 174.357 14.784V17.214C173.385 17.418 172.551 17.628 171.855 17.844L171.495 17.97V24H169.083ZM176.266 16.026C176.902 15.198 177.964 14.784 179.452 14.784C180.94 14.784 182.002 15.198 182.638 16.026C183.274 16.842 183.592 17.994 183.592 19.482C183.592 22.638 182.212 24.216 179.452 24.216C176.692 24.216 175.312 22.638 175.312 19.482C175.312 17.994 175.63 16.842 176.266 16.026ZM178.12 21.516C178.372 21.948 178.816 22.164 179.452 22.164C180.088 22.164 180.526 21.948 180.766 21.516C181.018 21.084 181.144 20.406 181.144 19.482C181.144 18.558 181.018 17.886 180.766 17.466C180.526 17.046 180.088 16.836 179.452 16.836C178.816 16.836 178.372 17.046 178.12 17.466C177.88 17.886 177.76 18.558 177.76 19.482C177.76 20.406 177.88 21.084 178.12 21.516ZM193.514 25.116C193.514 26.148 193.118 26.91 192.326 27.402C191.534 27.894 190.46 28.14 189.104 28.14C187.76 28.14 186.722 27.96 185.99 27.6C185.27 27.24 184.91 26.586 184.91 25.638C184.91 24.882 185.342 24.168 186.206 23.496C185.762 23.196 185.54 22.74 185.54 22.128C185.54 21.888 185.72 21.492 186.08 20.94L186.242 20.688C185.426 20.1 185.018 19.236 185.018 18.096C185.018 16.944 185.36 16.11 186.044 15.594C186.74 15.078 187.658 14.82 188.798 14.82C189.314 14.82 189.824 14.88 190.328 15L190.616 15.054L193.514 14.964V16.89L192.164 16.782C192.428 17.19 192.56 17.598 192.56 18.006C192.56 19.206 192.254 20.034 191.642 20.49C191.03 20.946 190.07 21.174 188.762 21.174C188.486 21.174 188.24 21.15 188.024 21.102C187.904 21.414 187.844 21.672 187.844 21.876C187.844 22.068 187.946 22.2 188.15 22.272C188.354 22.344 188.834 22.386 189.59 22.398C191.102 22.41 192.134 22.614 192.686 23.01C193.238 23.394 193.514 24.096 193.514 25.116ZM187.286 25.386C187.286 25.902 187.916 26.16 189.176 26.16C190.448 26.16 191.084 25.86 191.084 25.26C191.084 24.936 190.976 24.726 190.76 24.63C190.544 24.546 190.088 24.498 189.392 24.486L187.772 24.36C187.448 24.684 187.286 25.026 187.286 25.386ZM187.43 18.024C187.43 18.9 187.886 19.338 188.798 19.338C189.722 19.338 190.184 18.9 190.184 18.024C190.184 17.136 189.722 16.692 188.798 16.692C187.886 16.692 187.43 17.136 187.43 18.024ZM201.869 17.808V21.552C201.893 21.84 201.941 22.044 202.013 22.164C202.085 22.272 202.235 22.35 202.463 22.398L202.391 24.216C201.779 24.216 201.287 24.174 200.915 24.09C200.555 24.006 200.189 23.838 199.817 23.586C198.953 24.006 198.071 24.216 197.171 24.216C195.311 24.216 194.381 23.232 194.381 21.264C194.381 20.304 194.639 19.626 195.155 19.23C195.671 18.822 196.463 18.582 197.531 18.51L199.457 18.366V17.808C199.457 17.436 199.373 17.184 199.205 17.052C199.037 16.908 198.767 16.836 198.395 16.836L195.011 16.98L194.939 15.306C196.223 14.958 197.441 14.784 198.593 14.784C199.757 14.784 200.591 15.024 201.095 15.504C201.611 15.984 201.869 16.752 201.869 17.808ZM197.819 20.184C197.147 20.244 196.811 20.604 196.811 21.264C196.811 21.924 197.105 22.254 197.693 22.254C198.149 22.254 198.647 22.182 199.187 22.038L199.457 21.966V20.04L197.819 20.184ZM209.155 17.052H206.941V20.742C206.941 21.102 206.947 21.36 206.959 21.516C206.983 21.66 207.049 21.786 207.157 21.894C207.277 22.002 207.457 22.056 207.697 22.056L209.065 22.02L209.173 23.946C208.369 24.126 207.757 24.216 207.337 24.216C206.257 24.216 205.519 23.976 205.123 23.496C204.727 23.004 204.529 22.104 204.529 20.796V17.052H203.467V15H204.529V12.498H206.941V15H209.155V17.052ZM211.211 16.026C211.847 15.198 212.909 14.784 214.397 14.784C215.885 14.784 216.947 15.198 217.583 16.026C218.219 16.842 218.537 17.994 218.537 19.482C218.537 22.638 217.157 24.216 214.397 24.216C211.637 24.216 210.257 22.638 210.257 19.482C210.257 17.994 210.575 16.842 211.211 16.026ZM213.065 21.516C213.317 21.948 213.761 22.164 214.397 22.164C215.033 22.164 215.471 21.948 215.711 21.516C215.963 21.084 216.089 20.406 216.089 19.482C216.089 18.558 215.963 17.886 215.711 17.466C215.471 17.046 215.033 16.836 214.397 16.836C213.761 16.836 213.317 17.046 213.065 17.466C212.825 17.886 212.705 18.558 212.705 19.482C212.705 20.406 212.825 21.084 213.065 21.516ZM220.305 24V15H222.699V15.954C223.707 15.354 224.667 14.964 225.579 14.784V17.214C224.607 17.418 223.773 17.628 223.077 17.844L222.717 17.97V24H220.305ZM228.983 20.526C228.995 21.078 229.139 21.48 229.415 21.732C229.703 21.972 230.111 22.092 230.639 22.092C231.755 22.092 232.751 22.056 233.627 21.984L234.131 21.93L234.167 23.712C232.787 24.048 231.539 24.216 230.423 24.216C229.067 24.216 228.083 23.856 227.471 23.136C226.859 22.416 226.553 21.246 226.553 19.626C226.553 16.398 227.879 14.784 230.531 14.784C233.147 14.784 234.455 16.14 234.455 18.852L234.275 20.526H228.983ZM232.079 18.69C232.079 17.97 231.965 17.472 231.737 17.196C231.509 16.908 231.107 16.764 230.531 16.764C229.967 16.764 229.565 16.914 229.325 17.214C229.097 17.502 228.977 17.994 228.965 18.69H232.079Z" fill="#17324D"/>
<path d="M252.332 24V11.76H260.144V13.92H254.816V17.52H259.172V19.68H254.816V24H252.332ZM261.38 24V15H263.774V15.954C264.782 15.354 265.742 14.964 266.654 14.784V17.214C265.682 17.418 264.848 17.628 264.152 17.844L263.792 17.97V24H261.38ZM273.387 15H275.799V24H273.405V23.496C272.541 23.976 271.791 24.216 271.155 24.216C269.907 24.216 269.067 23.874 268.635 23.19C268.203 22.494 267.987 21.336 267.987 19.716V15H270.399V19.752C270.399 20.64 270.471 21.246 270.615 21.57C270.759 21.894 271.107 22.056 271.659 22.056C272.187 22.056 272.685 21.972 273.153 21.804L273.387 21.732V15ZM278.026 24V15H280.438V24H278.026ZM278.026 13.848V11.4H280.438V13.848H278.026ZM287.653 17.052H285.439V20.742C285.439 21.102 285.445 21.36 285.457 21.516C285.481 21.66 285.547 21.786 285.655 21.894C285.775 22.002 285.955 22.056 286.195 22.056L287.563 22.02L287.671 23.946C286.867 24.126 286.255 24.216 285.835 24.216C284.755 24.216 284.017 23.976 283.621 23.496C283.225 23.004 283.027 22.104 283.027 20.796V17.052H281.965V15H283.027V12.498H285.439V15H287.653V17.052ZM289.709 16.026C290.345 15.198 291.407 14.784 292.895 14.784C294.383 14.784 295.445 15.198 296.081 16.026C296.717 16.842 297.035 17.994 297.035 19.482C297.035 22.638 295.655 24.216 292.895 24.216C290.135 24.216 288.755 22.638 288.755 19.482C288.755 17.994 289.073 16.842 289.709 16.026ZM291.563 21.516C291.815 21.948 292.259 22.164 292.895 22.164C293.531 22.164 293.969 21.948 294.209 21.516C294.461 21.084 294.587 20.406 294.587 19.482C294.587 18.558 294.461 17.886 294.209 17.466C293.969 17.046 293.531 16.836 292.895 16.836C292.259 16.836 291.815 17.046 291.563 17.466C291.323 17.886 291.203 18.558 291.203 19.482C291.203 20.406 291.323 21.084 291.563 21.516ZM298.804 24V15H301.198V15.954C302.206 15.354 303.166 14.964 304.078 14.784V17.214C303.106 17.418 302.272 17.628 301.576 17.844L301.216 17.97V24H298.804ZM307.481 20.526C307.493 21.078 307.637 21.48 307.913 21.732C308.201 21.972 308.609 22.092 309.137 22.092C310.253 22.092 311.249 22.056 312.125 21.984L312.629 21.93L312.665 23.712C311.285 24.048 310.037 24.216 308.921 24.216C307.565 24.216 306.581 23.856 305.969 23.136C305.357 22.416 305.051 21.246 305.051 19.626C305.051 16.398 306.377 14.784 309.029 14.784C311.645 14.784 312.953 16.14 312.953 18.852L312.773 20.526H307.481ZM310.577 18.69C310.577 17.97 310.463 17.472 310.235 17.196C310.007 16.908 309.605 16.764 309.029 16.764C308.465 16.764 308.063 16.914 307.823 17.214C307.595 17.502 307.475 17.994 307.463 18.69H310.577Z" fill="#17324D"/>
<path d="M643.054 107.802C641.818 108.054 640.708 108.18 639.724 108.18C638.74 108.18 637.942 108.048 637.33 107.784C636.73 107.508 636.262 107.088 635.926 106.524C635.602 105.948 635.374 105.294 635.242 104.562C635.122 103.818 635.062 102.894 635.062 101.79C635.062 100.686 635.122 99.762 635.242 99.018C635.374 98.262 635.602 97.596 635.926 97.02C636.262 96.444 636.73 96.024 637.33 95.76C637.93 95.496 638.71 95.364 639.67 95.364C640.63 95.364 641.758 95.496 643.054 95.76L643 96.93C641.788 96.714 640.708 96.606 639.76 96.606C638.44 96.606 637.564 97.002 637.132 97.794C636.712 98.574 636.502 99.912 636.502 101.808C636.502 102.756 636.538 103.518 636.61 104.094C636.694 104.67 636.85 105.192 637.078 105.66C637.306 106.116 637.636 106.446 638.068 106.65C638.512 106.842 639.154 106.938 639.994 106.938C640.846 106.938 641.848 106.83 643 106.614L643.054 107.802ZM646.437 108H645.087V95.076H646.437V99.504C647.397 99.048 648.321 98.82 649.209 98.82C650.409 98.82 651.213 99.144 651.621 99.792C652.041 100.44 652.251 101.592 652.251 103.248V108H650.901V103.284C650.901 102.036 650.775 101.184 650.523 100.728C650.283 100.26 649.767 100.026 648.975 100.026C648.219 100.026 647.487 100.164 646.779 100.44L646.437 100.566V108ZM654.755 108V99H656.105V108H654.755ZM654.755 96.966V95.4H656.105V96.966H654.755ZM665.046 101.718V106.326C665.082 106.77 665.43 107.034 666.09 107.118L666.036 108.18C665.088 108.18 664.374 107.94 663.894 107.46C662.814 107.94 661.734 108.18 660.654 108.18C659.826 108.18 659.196 107.946 658.764 107.478C658.332 107.01 658.116 106.338 658.116 105.462C658.116 104.586 658.338 103.944 658.782 103.536C659.226 103.116 659.922 102.858 660.87 102.762L663.696 102.492V101.718C663.696 101.106 663.564 100.668 663.3 100.404C663.036 100.14 662.676 100.008 662.22 100.008C661.26 100.008 660.264 100.068 659.232 100.188L658.674 100.242L658.62 99.216C659.94 98.952 661.11 98.82 662.13 98.82C663.15 98.82 663.888 99.054 664.344 99.522C664.812 99.99 665.046 100.722 665.046 101.718ZM659.502 105.39C659.502 106.494 659.958 107.046 660.87 107.046C661.686 107.046 662.49 106.908 663.282 106.632L663.696 106.488V103.518L661.032 103.77C660.492 103.818 660.102 103.974 659.862 104.238C659.622 104.502 659.502 104.886 659.502 105.39ZM666.776 99H668.216L670.322 106.83H670.988L673.166 99H674.552L672.014 108H669.314L666.776 99ZM682.25 106.884L682.772 106.83L682.808 107.892C681.44 108.084 680.27 108.18 679.298 108.18C678.002 108.18 677.084 107.808 676.544 107.064C676.004 106.308 675.734 105.138 675.734 103.554C675.734 100.398 676.988 98.82 679.496 98.82C680.708 98.82 681.614 99.162 682.214 99.846C682.814 100.518 683.114 101.58 683.114 103.032L683.042 104.058H677.102C677.102 105.054 677.282 105.792 677.642 106.272C678.002 106.752 678.626 106.992 679.514 106.992C680.414 106.992 681.326 106.956 682.25 106.884ZM681.764 102.978C681.764 101.874 681.584 101.094 681.224 100.638C680.876 100.182 680.3 99.954 679.496 99.954C678.704 99.954 678.104 100.194 677.696 100.674C677.3 101.154 677.096 101.922 677.084 102.978H681.764ZM689.173 111.996V99H690.505V99.648C691.417 99.096 692.317 98.82 693.205 98.82C694.345 98.82 695.173 99.186 695.689 99.918C696.205 100.638 696.463 101.832 696.463 103.5C696.463 105.168 696.157 106.368 695.545 107.1C694.945 107.82 693.943 108.18 692.539 108.18C691.807 108.18 691.135 108.114 690.523 107.982V111.996H689.173ZM693.007 100.026C692.647 100.026 692.257 100.086 691.837 100.206C691.429 100.326 691.105 100.446 690.865 100.566L690.523 100.746V106.812C691.375 106.944 692.023 107.01 692.467 107.01C693.439 107.01 694.117 106.734 694.501 106.182C694.897 105.63 695.095 104.73 695.095 103.482C695.095 102.234 694.915 101.346 694.555 100.818C694.207 100.29 693.691 100.026 693.007 100.026ZM704.281 99H705.631V108H704.281V107.37C703.381 107.91 702.493 108.18 701.617 108.18C700.393 108.18 699.577 107.862 699.169 107.226C698.773 106.59 698.575 105.414 698.575 103.698V99H699.925V103.68C699.925 104.988 700.039 105.864 700.267 106.308C700.495 106.752 701.011 106.974 701.815 106.974C702.211 106.974 702.613 106.92 703.021 106.812C703.429 106.692 703.741 106.578 703.957 106.47L704.281 106.308V99ZM712.206 98.82C713.418 98.82 714.264 99.168 714.744 99.864C715.236 100.548 715.482 101.754 715.482 103.482C715.482 105.21 715.176 106.428 714.564 107.136C713.964 107.832 712.854 108.18 711.234 108.18C710.73 108.18 709.896 108.132 708.732 108.036L708.228 107.982V95.076H709.56V99.45C710.472 99.03 711.354 98.82 712.206 98.82ZM711.216 106.974C712.392 106.974 713.166 106.71 713.538 106.182C713.922 105.642 714.114 104.736 714.114 103.464C714.114 102.192 713.964 101.304 713.664 100.8C713.364 100.284 712.83 100.026 712.062 100.026C711.366 100.026 710.652 100.158 709.92 100.422L709.56 100.548V106.884C710.34 106.944 710.892 106.974 711.216 106.974ZM721.68 98.82C722.892 98.82 723.738 99.168 724.218 99.864C724.71 100.548 724.956 101.754 724.956 103.482C724.956 105.21 724.65 106.428 724.038 107.136C723.438 107.832 722.328 108.18 720.708 108.18C720.204 108.18 719.37 108.132 718.206 108.036L717.702 107.982V95.076H719.034V99.45C719.946 99.03 720.828 98.82 721.68 98.82ZM720.69 106.974C721.866 106.974 722.64 106.71 723.012 106.182C723.396 105.642 723.588 104.736 723.588 103.464C723.588 102.192 723.438 101.304 723.138 100.8C722.838 100.284 722.304 100.026 721.536 100.026C720.84 100.026 720.126 100.158 719.394 100.422L719.034 100.548V106.884C719.814 106.944 720.366 106.974 720.69 106.974ZM727.285 108V95.076H728.635V108H727.285ZM731.343 108V99H732.693V108H731.343ZM731.343 96.966V95.4H732.693V96.966H731.343ZM738.646 98.82C739.042 98.82 739.714 98.892 740.662 99.036L741.094 99.09L741.04 100.188C740.08 100.08 739.372 100.026 738.916 100.026C737.896 100.026 737.2 100.272 736.828 100.764C736.468 101.244 736.288 102.144 736.288 103.464C736.288 104.772 736.456 105.684 736.792 106.2C737.14 106.716 737.854 106.974 738.934 106.974L741.058 106.812L741.112 107.928C739.996 108.096 739.162 108.18 738.61 108.18C737.206 108.18 736.234 107.82 735.694 107.1C735.166 106.38 734.902 105.168 734.902 103.464C734.902 101.748 735.19 100.548 735.766 99.864C736.342 99.168 737.302 98.82 738.646 98.82ZM749.474 101.718V106.326C749.51 106.77 749.858 107.034 750.518 107.118L750.464 108.18C749.516 108.18 748.802 107.94 748.322 107.46C747.242 107.94 746.162 108.18 745.082 108.18C744.254 108.18 743.624 107.946 743.192 107.478C742.76 107.01 742.544 106.338 742.544 105.462C742.544 104.586 742.766 103.944 743.21 103.536C743.654 103.116 744.35 102.858 745.298 102.762L748.124 102.492V101.718C748.124 101.106 747.992 100.668 747.728 100.404C747.464 100.14 747.104 100.008 746.648 100.008C745.688 100.008 744.692 100.068 743.66 100.188L743.102 100.242L743.048 99.216C744.368 98.952 745.538 98.82 746.558 98.82C747.578 98.82 748.316 99.054 748.772 99.522C749.24 99.99 749.474 100.722 749.474 101.718ZM743.93 105.39C743.93 106.494 744.386 107.046 745.298 107.046C746.114 107.046 746.918 106.908 747.71 106.632L748.124 106.488V103.518L745.46 103.77C744.92 103.818 744.53 103.974 744.29 104.238C744.05 104.502 743.93 104.886 743.93 105.39Z" fill="#17324D"/>
<path d="M643.054 219.802C641.818 220.054 640.708 220.18 639.724 220.18C638.74 220.18 637.942 220.048 637.33 219.784C636.73 219.508 636.262 219.088 635.926 218.524C635.602 217.948 635.374 217.294 635.242 216.562C635.122 215.818 635.062 214.894 635.062 213.79C635.062 212.686 635.122 211.762 635.242 211.018C635.374 210.262 635.602 209.596 635.926 209.02C636.262 208.444 636.73 208.024 637.33 207.76C637.93 207.496 638.71 207.364 639.67 207.364C640.63 207.364 641.758 207.496 643.054 207.76L643 208.93C641.788 208.714 640.708 208.606 639.76 208.606C638.44 208.606 637.564 209.002 637.132 209.794C636.712 210.574 636.502 211.912 636.502 213.808C636.502 214.756 636.538 215.518 636.61 216.094C636.694 216.67 636.85 217.192 637.078 217.66C637.306 218.116 637.636 218.446 638.068 218.65C638.512 218.842 639.154 218.938 639.994 218.938C640.846 218.938 641.848 218.83 643 218.614L643.054 219.802ZM646.437 220H645.087V207.076H646.437V211.504C647.397 211.048 648.321 210.82 649.209 210.82C650.409 210.82 651.213 211.144 651.621 211.792C652.041 212.44 652.251 213.592 652.251 215.248V220H650.901V215.284C650.901 214.036 650.775 213.184 650.523 212.728C650.283 212.26 649.767 212.026 648.975 212.026C648.219 212.026 647.487 212.164 646.779 212.44L646.437 212.566V220ZM654.755 220V211H656.105V220H654.755ZM654.755 208.966V207.4H656.105V208.966H654.755ZM665.046 213.718V218.326C665.082 218.77 665.43 219.034 666.09 219.118L666.036 220.18C665.088 220.18 664.374 219.94 663.894 219.46C662.814 219.94 661.734 220.18 660.654 220.18C659.826 220.18 659.196 219.946 658.764 219.478C658.332 219.01 658.116 218.338 658.116 217.462C658.116 216.586 658.338 215.944 658.782 215.536C659.226 215.116 659.922 214.858 660.87 214.762L663.696 214.492V213.718C663.696 213.106 663.564 212.668 663.3 212.404C663.036 212.14 662.676 212.008 662.22 212.008C661.26 212.008 660.264 212.068 659.232 212.188L658.674 212.242L658.62 211.216C659.94 210.952 661.11 210.82 662.13 210.82C663.15 210.82 663.888 211.054 664.344 211.522C664.812 211.99 665.046 212.722 665.046 213.718ZM659.502 217.39C659.502 218.494 659.958 219.046 660.87 219.046C661.686 219.046 662.49 218.908 663.282 218.632L663.696 218.488V215.518L661.032 215.77C660.492 215.818 660.102 215.974 659.862 216.238C659.622 216.502 659.502 216.886 659.502 217.39ZM666.776 211H668.216L670.322 218.83H670.988L673.166 211H674.552L672.014 220H669.314L666.776 211ZM682.25 218.884L682.772 218.83L682.808 219.892C681.44 220.084 680.27 220.18 679.298 220.18C678.002 220.18 677.084 219.808 676.544 219.064C676.004 218.308 675.734 217.138 675.734 215.554C675.734 212.398 676.988 210.82 679.496 210.82C680.708 210.82 681.614 211.162 682.214 211.846C682.814 212.518 683.114 213.58 683.114 215.032L683.042 216.058H677.102C677.102 217.054 677.282 217.792 677.642 218.272C678.002 218.752 678.626 218.992 679.514 218.992C680.414 218.992 681.326 218.956 682.25 218.884ZM681.764 214.978C681.764 213.874 681.584 213.094 681.224 212.638C680.876 212.182 680.3 211.954 679.496 211.954C678.704 211.954 678.104 212.194 677.696 212.674C677.3 213.154 677.096 213.922 677.084 214.978H681.764ZM689.173 223.996V211H690.505V211.648C691.417 211.096 692.317 210.82 693.205 210.82C694.345 210.82 695.173 211.186 695.689 211.918C696.205 212.638 696.463 213.832 696.463 215.5C696.463 217.168 696.157 218.368 695.545 219.1C694.945 219.82 693.943 220.18 692.539 220.18C691.807 220.18 691.135 220.114 690.523 219.982V223.996H689.173ZM693.007 212.026C692.647 212.026 692.257 212.086 691.837 212.206C691.429 212.326 691.105 212.446 690.865 212.566L690.523 212.746V218.812C691.375 218.944 692.023 219.01 692.467 219.01C693.439 219.01 694.117 218.734 694.501 218.182C694.897 217.63 695.095 216.73 695.095 215.482C695.095 214.234 694.915 213.346 694.555 212.818C694.207 212.29 693.691 212.026 693.007 212.026ZM704.281 211H705.631V220H704.281V219.37C703.381 219.91 702.493 220.18 701.617 220.18C700.393 220.18 699.577 219.862 699.169 219.226C698.773 218.59 698.575 217.414 698.575 215.698V211H699.925V215.68C699.925 216.988 700.039 217.864 700.267 218.308C700.495 218.752 701.011 218.974 701.815 218.974C702.211 218.974 702.613 218.92 703.021 218.812C703.429 218.692 703.741 218.578 703.957 218.47L704.281 218.308V211ZM712.206 210.82C713.418 210.82 714.264 211.168 714.744 211.864C715.236 212.548 715.482 213.754 715.482 215.482C715.482 217.21 715.176 218.428 714.564 219.136C713.964 219.832 712.854 220.18 711.234 220.18C710.73 220.18 709.896 220.132 708.732 220.036L708.228 219.982V207.076H709.56V211.45C710.472 211.03 711.354 210.82 712.206 210.82ZM711.216 218.974C712.392 218.974 713.166 218.71 713.538 218.182C713.922 217.642 714.114 216.736 714.114 215.464C714.114 214.192 713.964 213.304 713.664 212.8C713.364 212.284 712.83 212.026 712.062 212.026C711.366 212.026 710.652 212.158 709.92 212.422L709.56 212.548V218.884C710.34 218.944 710.892 218.974 711.216 218.974ZM721.68 210.82C722.892 210.82 723.738 211.168 724.218 211.864C724.71 212.548 724.956 213.754 724.956 215.482C724.956 217.21 724.65 218.428 724.038 219.136C723.438 219.832 722.328 220.18 720.708 220.18C720.204 220.18 719.37 220.132 718.206 220.036L717.702 219.982V207.076H719.034V211.45C719.946 211.03 720.828 210.82 721.68 210.82ZM720.69 218.974C721.866 218.974 722.64 218.71 723.012 218.182C723.396 217.642 723.588 216.736 723.588 215.464C723.588 214.192 723.438 213.304 723.138 212.8C722.838 212.284 722.304 212.026 721.536 212.026C720.84 212.026 720.126 212.158 719.394 212.422L719.034 212.548V218.884C719.814 218.944 720.366 218.974 720.69 218.974ZM727.285 220V207.076H728.635V220H727.285ZM731.343 220V211H732.693V220H731.343ZM731.343 208.966V207.4H732.693V208.966H731.343ZM738.646 210.82C739.042 210.82 739.714 210.892 740.662 211.036L741.094 211.09L741.04 212.188C740.08 212.08 739.372 212.026 738.916 212.026C737.896 212.026 737.2 212.272 736.828 212.764C736.468 213.244 736.288 214.144 736.288 215.464C736.288 216.772 736.456 217.684 736.792 218.2C737.14 218.716 737.854 218.974 738.934 218.974L741.058 218.812L741.112 219.928C739.996 220.096 739.162 220.18 738.61 220.18C737.206 220.18 736.234 219.82 735.694 219.1C735.166 218.38 734.902 217.168 734.902 215.464C734.902 213.748 735.19 212.548 735.766 211.864C736.342 211.168 737.302 210.82 738.646 210.82ZM749.474 213.718V218.326C749.51 218.77 749.858 219.034 750.518 219.118L750.464 220.18C749.516 220.18 748.802 219.94 748.322 219.46C747.242 219.94 746.162 220.18 745.082 220.18C744.254 220.18 743.624 219.946 743.192 219.478C742.76 219.01 742.544 218.338 742.544 217.462C742.544 216.586 742.766 215.944 743.21 215.536C743.654 215.116 744.35 214.858 745.298 214.762L748.124 214.492V213.718C748.124 213.106 747.992 212.668 747.728 212.404C747.464 212.14 747.104 212.008 746.648 212.008C745.688 212.008 744.692 212.068 743.66 212.188L743.102 212.242L743.048 211.216C744.368 210.952 745.538 210.82 746.558 210.82C747.578 210.82 748.316 211.054 748.772 211.522C749.24 211.99 749.474 212.722 749.474 213.718ZM743.93 217.39C743.93 218.494 744.386 219.046 745.298 219.046C746.114 219.046 746.918 218.908 747.71 218.632L748.124 218.488V215.518L745.46 215.77C744.92 215.818 744.53 215.974 744.29 216.238C744.05 216.502 743.93 216.886 743.93 217.39Z" fill="#17324D"/>
<path d="M643.054 332.802C641.818 333.054 640.708 333.18 639.724 333.18C638.74 333.18 637.942 333.048 637.33 332.784C636.73 332.508 636.262 332.088 635.926 331.524C635.602 330.948 635.374 330.294 635.242 329.562C635.122 328.818 635.062 327.894 635.062 326.79C635.062 325.686 635.122 324.762 635.242 324.018C635.374 323.262 635.602 322.596 635.926 322.02C636.262 321.444 636.73 321.024 637.33 320.76C637.93 320.496 638.71 320.364 639.67 320.364C640.63 320.364 641.758 320.496 643.054 320.76L643 321.93C641.788 321.714 640.708 321.606 639.76 321.606C638.44 321.606 637.564 322.002 637.132 322.794C636.712 323.574 636.502 324.912 636.502 326.808C636.502 327.756 636.538 328.518 636.61 329.094C636.694 329.67 636.85 330.192 637.078 330.66C637.306 331.116 637.636 331.446 638.068 331.65C638.512 331.842 639.154 331.938 639.994 331.938C640.846 331.938 641.848 331.83 643 331.614L643.054 332.802ZM646.437 333H645.087V320.076H646.437V324.504C647.397 324.048 648.321 323.82 649.209 323.82C650.409 323.82 651.213 324.144 651.621 324.792C652.041 325.44 652.251 326.592 652.251 328.248V333H650.901V328.284C650.901 327.036 650.775 326.184 650.523 325.728C650.283 325.26 649.767 325.026 648.975 325.026C648.219 325.026 647.487 325.164 646.779 325.44L646.437 325.566V333ZM654.755 333V324H656.105V333H654.755ZM654.755 321.966V320.4H656.105V321.966H654.755ZM665.046 326.718V331.326C665.082 331.77 665.43 332.034 666.09 332.118L666.036 333.18C665.088 333.18 664.374 332.94 663.894 332.46C662.814 332.94 661.734 333.18 660.654 333.18C659.826 333.18 659.196 332.946 658.764 332.478C658.332 332.01 658.116 331.338 658.116 330.462C658.116 329.586 658.338 328.944 658.782 328.536C659.226 328.116 659.922 327.858 660.87 327.762L663.696 327.492V326.718C663.696 326.106 663.564 325.668 663.3 325.404C663.036 325.14 662.676 325.008 662.22 325.008C661.26 325.008 660.264 325.068 659.232 325.188L658.674 325.242L658.62 324.216C659.94 323.952 661.11 323.82 662.13 323.82C663.15 323.82 663.888 324.054 664.344 324.522C664.812 324.99 665.046 325.722 665.046 326.718ZM659.502 330.39C659.502 331.494 659.958 332.046 660.87 332.046C661.686 332.046 662.49 331.908 663.282 331.632L663.696 331.488V328.518L661.032 328.77C660.492 328.818 660.102 328.974 659.862 329.238C659.622 329.502 659.502 329.886 659.502 330.39ZM666.776 324H668.216L670.322 331.83H670.988L673.166 324H674.552L672.014 333H669.314L666.776 324ZM682.25 331.884L682.772 331.83L682.808 332.892C681.44 333.084 680.27 333.18 679.298 333.18C678.002 333.18 677.084 332.808 676.544 332.064C676.004 331.308 675.734 330.138 675.734 328.554C675.734 325.398 676.988 323.82 679.496 323.82C680.708 323.82 681.614 324.162 682.214 324.846C682.814 325.518 683.114 326.58 683.114 328.032L683.042 329.058H677.102C677.102 330.054 677.282 330.792 677.642 331.272C678.002 331.752 678.626 331.992 679.514 331.992C680.414 331.992 681.326 331.956 682.25 331.884ZM681.764 327.978C681.764 326.874 681.584 326.094 681.224 325.638C680.876 325.182 680.3 324.954 679.496 324.954C678.704 324.954 678.104 325.194 677.696 325.674C677.3 326.154 677.096 326.922 677.084 327.978H681.764ZM689.173 336.996V324H690.505V324.648C691.417 324.096 692.317 323.82 693.205 323.82C694.345 323.82 695.173 324.186 695.689 324.918C696.205 325.638 696.463 326.832 696.463 328.5C696.463 330.168 696.157 331.368 695.545 332.1C694.945 332.82 693.943 333.18 692.539 333.18C691.807 333.18 691.135 333.114 690.523 332.982V336.996H689.173ZM693.007 325.026C692.647 325.026 692.257 325.086 691.837 325.206C691.429 325.326 691.105 325.446 690.865 325.566L690.523 325.746V331.812C691.375 331.944 692.023 332.01 692.467 332.01C693.439 332.01 694.117 331.734 694.501 331.182C694.897 330.63 695.095 329.73 695.095 328.482C695.095 327.234 694.915 326.346 694.555 325.818C694.207 325.29 693.691 325.026 693.007 325.026ZM704.281 324H705.631V333H704.281V332.37C703.381 332.91 702.493 333.18 701.617 333.18C700.393 333.18 699.577 332.862 699.169 332.226C698.773 331.59 698.575 330.414 698.575 328.698V324H699.925V328.68C699.925 329.988 700.039 330.864 700.267 331.308C700.495 331.752 701.011 331.974 701.815 331.974C702.211 331.974 702.613 331.92 703.021 331.812C703.429 331.692 703.741 331.578 703.957 331.47L704.281 331.308V324ZM712.206 323.82C713.418 323.82 714.264 324.168 714.744 324.864C715.236 325.548 715.482 326.754 715.482 328.482C715.482 330.21 715.176 331.428 714.564 332.136C713.964 332.832 712.854 333.18 711.234 333.18C710.73 333.18 709.896 333.132 708.732 333.036L708.228 332.982V320.076H709.56V324.45C710.472 324.03 711.354 323.82 712.206 323.82ZM711.216 331.974C712.392 331.974 713.166 331.71 713.538 331.182C713.922 330.642 714.114 329.736 714.114 328.464C714.114 327.192 713.964 326.304 713.664 325.8C713.364 325.284 712.83 325.026 712.062 325.026C711.366 325.026 710.652 325.158 709.92 325.422L709.56 325.548V331.884C710.34 331.944 710.892 331.974 711.216 331.974ZM721.68 323.82C722.892 323.82 723.738 324.168 724.218 324.864C724.71 325.548 724.956 326.754 724.956 328.482C724.956 330.21 724.65 331.428 724.038 332.136C723.438 332.832 722.328 333.18 720.708 333.18C720.204 333.18 719.37 333.132 718.206 333.036L717.702 332.982V320.076H719.034V324.45C719.946 324.03 720.828 323.82 721.68 323.82ZM720.69 331.974C721.866 331.974 722.64 331.71 723.012 331.182C723.396 330.642 723.588 329.736 723.588 328.464C723.588 327.192 723.438 326.304 723.138 325.8C722.838 325.284 722.304 325.026 721.536 325.026C720.84 325.026 720.126 325.158 719.394 325.422L719.034 325.548V331.884C719.814 331.944 720.366 331.974 720.69 331.974ZM727.285 333V320.076H728.635V333H727.285ZM731.343 333V324H732.693V333H731.343ZM731.343 321.966V320.4H732.693V321.966H731.343ZM738.646 323.82C739.042 323.82 739.714 323.892 740.662 324.036L741.094 324.09L741.04 325.188C740.08 325.08 739.372 325.026 738.916 325.026C737.896 325.026 737.2 325.272 736.828 325.764C736.468 326.244 736.288 327.144 736.288 328.464C736.288 329.772 736.456 330.684 736.792 331.2C737.14 331.716 737.854 331.974 738.934 331.974L741.058 331.812L741.112 332.928C739.996 333.096 739.162 333.18 738.61 333.18C737.206 333.18 736.234 332.82 735.694 332.1C735.166 331.38 734.902 330.168 734.902 328.464C734.902 326.748 735.19 325.548 735.766 324.864C736.342 324.168 737.302 323.82 738.646 323.82ZM749.474 326.718V331.326C749.51 331.77 749.858 332.034 750.518 332.118L750.464 333.18C749.516 333.18 748.802 332.94 748.322 332.46C747.242 332.94 746.162 333.18 745.082 333.18C744.254 333.18 743.624 332.946 743.192 332.478C742.76 332.01 742.544 331.338 742.544 330.462C742.544 329.586 742.766 328.944 743.21 328.536C743.654 328.116 744.35 327.858 745.298 327.762L748.124 327.492V326.718C748.124 326.106 747.992 325.668 747.728 325.404C747.464 325.14 747.104 325.008 746.648 325.008C745.688 325.008 744.692 325.068 743.66 325.188L743.102 325.242L743.048 324.216C744.368 323.952 745.538 323.82 746.558 323.82C747.578 323.82 748.316 324.054 748.772 324.522C749.24 324.99 749.474 325.722 749.474 326.718ZM743.93 330.39C743.93 331.494 744.386 332.046 745.298 332.046C746.114 332.046 746.918 331.908 747.71 331.632L748.124 331.488V328.518L745.46 328.77C744.92 328.818 744.53 328.974 744.29 329.238C744.05 329.502 743.93 329.886 743.93 330.39Z" fill="#17324D"/>
<path d="M643.054 161.802C641.818 162.054 640.708 162.18 639.724 162.18C638.74 162.18 637.942 162.048 637.33 161.784C636.73 161.508 636.262 161.088 635.926 160.524C635.602 159.948 635.374 159.294 635.242 158.562C635.122 157.818 635.062 156.894 635.062 155.79C635.062 154.686 635.122 153.762 635.242 153.018C635.374 152.262 635.602 151.596 635.926 151.02C636.262 150.444 636.73 150.024 637.33 149.76C637.93 149.496 638.71 149.364 639.67 149.364C640.63 149.364 641.758 149.496 643.054 149.76L643 150.93C641.788 150.714 640.708 150.606 639.76 150.606C638.44 150.606 637.564 151.002 637.132 151.794C636.712 152.574 636.502 153.912 636.502 155.808C636.502 156.756 636.538 157.518 636.61 158.094C636.694 158.67 636.85 159.192 637.078 159.66C637.306 160.116 637.636 160.446 638.068 160.65C638.512 160.842 639.154 160.938 639.994 160.938C640.846 160.938 641.848 160.83 643 160.614L643.054 161.802ZM646.437 162H645.087V149.076H646.437V153.504C647.397 153.048 648.321 152.82 649.209 152.82C650.409 152.82 651.213 153.144 651.621 153.792C652.041 154.44 652.251 155.592 652.251 157.248V162H650.901V157.284C650.901 156.036 650.775 155.184 650.523 154.728C650.283 154.26 649.767 154.026 648.975 154.026C648.219 154.026 647.487 154.164 646.779 154.44L646.437 154.566V162ZM654.755 162V153H656.105V162H654.755ZM654.755 150.966V149.4H656.105V150.966H654.755ZM665.046 155.718V160.326C665.082 160.77 665.43 161.034 666.09 161.118L666.036 162.18C665.088 162.18 664.374 161.94 663.894 161.46C662.814 161.94 661.734 162.18 660.654 162.18C659.826 162.18 659.196 161.946 658.764 161.478C658.332 161.01 658.116 160.338 658.116 159.462C658.116 158.586 658.338 157.944 658.782 157.536C659.226 157.116 659.922 156.858 660.87 156.762L663.696 156.492V155.718C663.696 155.106 663.564 154.668 663.3 154.404C663.036 154.14 662.676 154.008 662.22 154.008C661.26 154.008 660.264 154.068 659.232 154.188L658.674 154.242L658.62 153.216C659.94 152.952 661.11 152.82 662.13 152.82C663.15 152.82 663.888 153.054 664.344 153.522C664.812 153.99 665.046 154.722 665.046 155.718ZM659.502 159.39C659.502 160.494 659.958 161.046 660.87 161.046C661.686 161.046 662.49 160.908 663.282 160.632L663.696 160.488V157.518L661.032 157.77C660.492 157.818 660.102 157.974 659.862 158.238C659.622 158.502 659.502 158.886 659.502 159.39ZM666.776 153H668.216L670.322 160.83H670.988L673.166 153H674.552L672.014 162H669.314L666.776 153ZM682.25 160.884L682.772 160.83L682.808 161.892C681.44 162.084 680.27 162.18 679.298 162.18C678.002 162.18 677.084 161.808 676.544 161.064C676.004 160.308 675.734 159.138 675.734 157.554C675.734 154.398 676.988 152.82 679.496 152.82C680.708 152.82 681.614 153.162 682.214 153.846C682.814 154.518 683.114 155.58 683.114 157.032L683.042 158.058H677.102C677.102 159.054 677.282 159.792 677.642 160.272C678.002 160.752 678.626 160.992 679.514 160.992C680.414 160.992 681.326 160.956 682.25 160.884ZM681.764 156.978C681.764 155.874 681.584 155.094 681.224 154.638C680.876 154.182 680.3 153.954 679.496 153.954C678.704 153.954 678.104 154.194 677.696 154.674C677.3 155.154 677.096 155.922 677.084 156.978H681.764ZM689.173 165.996V153H690.505V153.648C691.417 153.096 692.317 152.82 693.205 152.82C694.345 152.82 695.173 153.186 695.689 153.918C696.205 154.638 696.463 155.832 696.463 157.5C696.463 159.168 696.157 160.368 695.545 161.1C694.945 161.82 693.943 162.18 692.539 162.18C691.807 162.18 691.135 162.114 690.523 161.982V165.996H689.173ZM693.007 154.026C692.647 154.026 692.257 154.086 691.837 154.206C691.429 154.326 691.105 154.446 690.865 154.566L690.523 154.746V160.812C691.375 160.944 692.023 161.01 692.467 161.01C693.439 161.01 694.117 160.734 694.501 160.182C694.897 159.63 695.095 158.73 695.095 157.482C695.095 156.234 694.915 155.346 694.555 154.818C694.207 154.29 693.691 154.026 693.007 154.026ZM704.281 153H705.631V162H704.281V161.37C703.381 161.91 702.493 162.18 701.617 162.18C700.393 162.18 699.577 161.862 699.169 161.226C698.773 160.59 698.575 159.414 698.575 157.698V153H699.925V157.68C699.925 158.988 700.039 159.864 700.267 160.308C700.495 160.752 701.011 160.974 701.815 160.974C702.211 160.974 702.613 160.92 703.021 160.812C703.429 160.692 703.741 160.578 703.957 160.47L704.281 160.308V153ZM712.206 152.82C713.418 152.82 714.264 153.168 714.744 153.864C715.236 154.548 715.482 155.754 715.482 157.482C715.482 159.21 715.176 160.428 714.564 161.136C713.964 161.832 712.854 162.18 711.234 162.18C710.73 162.18 709.896 162.132 708.732 162.036L708.228 161.982V149.076H709.56V153.45C710.472 153.03 711.354 152.82 712.206 152.82ZM711.216 160.974C712.392 160.974 713.166 160.71 713.538 160.182C713.922 159.642 714.114 158.736 714.114 157.464C714.114 156.192 713.964 155.304 713.664 154.8C713.364 154.284 712.83 154.026 712.062 154.026C711.366 154.026 710.652 154.158 709.92 154.422L709.56 154.548V160.884C710.34 160.944 710.892 160.974 711.216 160.974ZM721.68 152.82C722.892 152.82 723.738 153.168 724.218 153.864C724.71 154.548 724.956 155.754 724.956 157.482C724.956 159.21 724.65 160.428 724.038 161.136C723.438 161.832 722.328 162.18 720.708 162.18C720.204 162.18 719.37 162.132 718.206 162.036L717.702 161.982V149.076H719.034V153.45C719.946 153.03 720.828 152.82 721.68 152.82ZM720.69 160.974C721.866 160.974 722.64 160.71 723.012 160.182C723.396 159.642 723.588 158.736 723.588 157.464C723.588 156.192 723.438 155.304 723.138 154.8C722.838 154.284 722.304 154.026 721.536 154.026C720.84 154.026 720.126 154.158 719.394 154.422L719.034 154.548V160.884C719.814 160.944 720.366 160.974 720.69 160.974ZM727.285 162V149.076H728.635V162H727.285ZM731.343 162V153H732.693V162H731.343ZM731.343 150.966V149.4H732.693V150.966H731.343ZM738.646 152.82C739.042 152.82 739.714 152.892 740.662 153.036L741.094 153.09L741.04 154.188C740.08 154.08 739.372 154.026 738.916 154.026C737.896 154.026 737.2 154.272 736.828 154.764C736.468 155.244 736.288 156.144 736.288 157.464C736.288 158.772 736.456 159.684 736.792 160.2C737.14 160.716 737.854 160.974 738.934 160.974L741.058 160.812L741.112 161.928C739.996 162.096 739.162 162.18 738.61 162.18C737.206 162.18 736.234 161.82 735.694 161.1C735.166 160.38 734.902 159.168 734.902 157.464C734.902 155.748 735.19 154.548 735.766 153.864C736.342 153.168 737.302 152.82 738.646 152.82ZM749.474 155.718V160.326C749.51 160.77 749.858 161.034 750.518 161.118L750.464 162.18C749.516 162.18 748.802 161.94 748.322 161.46C747.242 161.94 746.162 162.18 745.082 162.18C744.254 162.18 743.624 161.946 743.192 161.478C742.76 161.01 742.544 160.338 742.544 159.462C742.544 158.586 742.766 157.944 743.21 157.536C743.654 157.116 744.35 156.858 745.298 156.762L748.124 156.492V155.718C748.124 155.106 747.992 154.668 747.728 154.404C747.464 154.14 747.104 154.008 746.648 154.008C745.688 154.008 744.692 154.068 743.66 154.188L743.102 154.242L743.048 153.216C744.368 152.952 745.538 152.82 746.558 152.82C747.578 152.82 748.316 153.054 748.772 153.522C749.24 153.99 749.474 154.722 749.474 155.718ZM743.93 159.39C743.93 160.494 744.386 161.046 745.298 161.046C746.114 161.046 746.918 160.908 747.71 160.632L748.124 160.488V157.518L745.46 157.77C744.92 157.818 744.53 157.974 744.29 158.238C744.05 158.502 743.93 158.886 743.93 159.39Z" fill="#17324D"/>
<path d="M643.054 273.802C641.818 274.054 640.708 274.18 639.724 274.18C638.74 274.18 637.942 274.048 637.33 273.784C636.73 273.508 636.262 273.088 635.926 272.524C635.602 271.948 635.374 271.294 635.242 270.562C635.122 269.818 635.062 268.894 635.062 267.79C635.062 266.686 635.122 265.762 635.242 265.018C635.374 264.262 635.602 263.596 635.926 263.02C636.262 262.444 636.73 262.024 637.33 261.76C637.93 261.496 638.71 261.364 639.67 261.364C640.63 261.364 641.758 261.496 643.054 261.76L643 262.93C641.788 262.714 640.708 262.606 639.76 262.606C638.44 262.606 637.564 263.002 637.132 263.794C636.712 264.574 636.502 265.912 636.502 267.808C636.502 268.756 636.538 269.518 636.61 270.094C636.694 270.67 636.85 271.192 637.078 271.66C637.306 272.116 637.636 272.446 638.068 272.65C638.512 272.842 639.154 272.938 639.994 272.938C640.846 272.938 641.848 272.83 643 272.614L643.054 273.802ZM646.437 274H645.087V261.076H646.437V265.504C647.397 265.048 648.321 264.82 649.209 264.82C650.409 264.82 651.213 265.144 651.621 265.792C652.041 266.44 652.251 267.592 652.251 269.248V274H650.901V269.284C650.901 268.036 650.775 267.184 650.523 266.728C650.283 266.26 649.767 266.026 648.975 266.026C648.219 266.026 647.487 266.164 646.779 266.44L646.437 266.566V274ZM654.755 274V265H656.105V274H654.755ZM654.755 262.966V261.4H656.105V262.966H654.755ZM665.046 267.718V272.326C665.082 272.77 665.43 273.034 666.09 273.118L666.036 274.18C665.088 274.18 664.374 273.94 663.894 273.46C662.814 273.94 661.734 274.18 660.654 274.18C659.826 274.18 659.196 273.946 658.764 273.478C658.332 273.01 658.116 272.338 658.116 271.462C658.116 270.586 658.338 269.944 658.782 269.536C659.226 269.116 659.922 268.858 660.87 268.762L663.696 268.492V267.718C663.696 267.106 663.564 266.668 663.3 266.404C663.036 266.14 662.676 266.008 662.22 266.008C661.26 266.008 660.264 266.068 659.232 266.188L658.674 266.242L658.62 265.216C659.94 264.952 661.11 264.82 662.13 264.82C663.15 264.82 663.888 265.054 664.344 265.522C664.812 265.99 665.046 266.722 665.046 267.718ZM659.502 271.39C659.502 272.494 659.958 273.046 660.87 273.046C661.686 273.046 662.49 272.908 663.282 272.632L663.696 272.488V269.518L661.032 269.77C660.492 269.818 660.102 269.974 659.862 270.238C659.622 270.502 659.502 270.886 659.502 271.39ZM666.776 265H668.216L670.322 272.83H670.988L673.166 265H674.552L672.014 274H669.314L666.776 265ZM682.25 272.884L682.772 272.83L682.808 273.892C681.44 274.084 680.27 274.18 679.298 274.18C678.002 274.18 677.084 273.808 676.544 273.064C676.004 272.308 675.734 271.138 675.734 269.554C675.734 266.398 676.988 264.82 679.496 264.82C680.708 264.82 681.614 265.162 682.214 265.846C682.814 266.518 683.114 267.58 683.114 269.032L683.042 270.058H677.102C677.102 271.054 677.282 271.792 677.642 272.272C678.002 272.752 678.626 272.992 679.514 272.992C680.414 272.992 681.326 272.956 682.25 272.884ZM681.764 268.978C681.764 267.874 681.584 267.094 681.224 266.638C680.876 266.182 680.3 265.954 679.496 265.954C678.704 265.954 678.104 266.194 677.696 266.674C677.3 267.154 677.096 267.922 677.084 268.978H681.764ZM689.173 277.996V265H690.505V265.648C691.417 265.096 692.317 264.82 693.205 264.82C694.345 264.82 695.173 265.186 695.689 265.918C696.205 266.638 696.463 267.832 696.463 269.5C696.463 271.168 696.157 272.368 695.545 273.1C694.945 273.82 693.943 274.18 692.539 274.18C691.807 274.18 691.135 274.114 690.523 273.982V277.996H689.173ZM693.007 266.026C692.647 266.026 692.257 266.086 691.837 266.206C691.429 266.326 691.105 266.446 690.865 266.566L690.523 266.746V272.812C691.375 272.944 692.023 273.01 692.467 273.01C693.439 273.01 694.117 272.734 694.501 272.182C694.897 271.63 695.095 270.73 695.095 269.482C695.095 268.234 694.915 267.346 694.555 266.818C694.207 266.29 693.691 266.026 693.007 266.026ZM704.281 265H705.631V274H704.281V273.37C703.381 273.91 702.493 274.18 701.617 274.18C700.393 274.18 699.577 273.862 699.169 273.226C698.773 272.59 698.575 271.414 698.575 269.698V265H699.925V269.68C699.925 270.988 700.039 271.864 700.267 272.308C700.495 272.752 701.011 272.974 701.815 272.974C702.211 272.974 702.613 272.92 703.021 272.812C703.429 272.692 703.741 272.578 703.957 272.47L704.281 272.308V265ZM712.206 264.82C713.418 264.82 714.264 265.168 714.744 265.864C715.236 266.548 715.482 267.754 715.482 269.482C715.482 271.21 715.176 272.428 714.564 273.136C713.964 273.832 712.854 274.18 711.234 274.18C710.73 274.18 709.896 274.132 708.732 274.036L708.228 273.982V261.076H709.56V265.45C710.472 265.03 711.354 264.82 712.206 264.82ZM711.216 272.974C712.392 272.974 713.166 272.71 713.538 272.182C713.922 271.642 714.114 270.736 714.114 269.464C714.114 268.192 713.964 267.304 713.664 266.8C713.364 266.284 712.83 266.026 712.062 266.026C711.366 266.026 710.652 266.158 709.92 266.422L709.56 266.548V272.884C710.34 272.944 710.892 272.974 711.216 272.974ZM721.68 264.82C722.892 264.82 723.738 265.168 724.218 265.864C724.71 266.548 724.956 267.754 724.956 269.482C724.956 271.21 724.65 272.428 724.038 273.136C723.438 273.832 722.328 274.18 720.708 274.18C720.204 274.18 719.37 274.132 718.206 274.036L717.702 273.982V261.076H719.034V265.45C719.946 265.03 720.828 264.82 721.68 264.82ZM720.69 272.974C721.866 272.974 722.64 272.71 723.012 272.182C723.396 271.642 723.588 270.736 723.588 269.464C723.588 268.192 723.438 267.304 723.138 266.8C722.838 266.284 722.304 266.026 721.536 266.026C720.84 266.026 720.126 266.158 719.394 266.422L719.034 266.548V272.884C719.814 272.944 720.366 272.974 720.69 272.974ZM727.285 274V261.076H728.635V274H727.285ZM731.343 274V265H732.693V274H731.343ZM731.343 262.966V261.4H732.693V262.966H731.343ZM738.646 264.82C739.042 264.82 739.714 264.892 740.662 265.036L741.094 265.09L741.04 266.188C740.08 266.08 739.372 266.026 738.916 266.026C737.896 266.026 737.2 266.272 736.828 266.764C736.468 267.244 736.288 268.144 736.288 269.464C736.288 270.772 736.456 271.684 736.792 272.2C737.14 272.716 737.854 272.974 738.934 272.974L741.058 272.812L741.112 273.928C739.996 274.096 739.162 274.18 738.61 274.18C737.206 274.18 736.234 273.82 735.694 273.1C735.166 272.38 734.902 271.168 734.902 269.464C734.902 267.748 735.19 266.548 735.766 265.864C736.342 265.168 737.302 264.82 738.646 264.82ZM749.474 267.718V272.326C749.51 272.77 749.858 273.034 750.518 273.118L750.464 274.18C749.516 274.18 748.802 273.94 748.322 273.46C747.242 273.94 746.162 274.18 745.082 274.18C744.254 274.18 743.624 273.946 743.192 273.478C742.76 273.01 742.544 272.338 742.544 271.462C742.544 270.586 742.766 269.944 743.21 269.536C743.654 269.116 744.35 268.858 745.298 268.762L748.124 268.492V267.718C748.124 267.106 747.992 266.668 747.728 266.404C747.464 266.14 747.104 266.008 746.648 266.008C745.688 266.008 744.692 266.068 743.66 266.188L743.102 266.242L743.048 265.216C744.368 264.952 745.538 264.82 746.558 264.82C747.578 264.82 748.316 265.054 748.772 265.522C749.24 265.99 749.474 266.722 749.474 267.718ZM743.93 271.39C743.93 272.494 744.386 273.046 745.298 273.046C746.114 273.046 746.918 272.908 747.71 272.632L748.124 272.488V269.518L745.46 269.77C744.92 269.818 744.53 269.974 744.29 270.238C744.05 270.502 743.93 270.886 743.93 271.39Z" fill="#17324D"/>
<path d="M643.054 386.802C641.818 387.054 640.708 387.18 639.724 387.18C638.74 387.18 637.942 387.048 637.33 386.784C636.73 386.508 636.262 386.088 635.926 385.524C635.602 384.948 635.374 384.294 635.242 383.562C635.122 382.818 635.062 381.894 635.062 380.79C635.062 379.686 635.122 378.762 635.242 378.018C635.374 377.262 635.602 376.596 635.926 376.02C636.262 375.444 636.73 375.024 637.33 374.76C637.93 374.496 638.71 374.364 639.67 374.364C640.63 374.364 641.758 374.496 643.054 374.76L643 375.93C641.788 375.714 640.708 375.606 639.76 375.606C638.44 375.606 637.564 376.002 637.132 376.794C636.712 377.574 636.502 378.912 636.502 380.808C636.502 381.756 636.538 382.518 636.61 383.094C636.694 383.67 636.85 384.192 637.078 384.66C637.306 385.116 637.636 385.446 638.068 385.65C638.512 385.842 639.154 385.938 639.994 385.938C640.846 385.938 641.848 385.83 643 385.614L643.054 386.802ZM646.437 387H645.087V374.076H646.437V378.504C647.397 378.048 648.321 377.82 649.209 377.82C650.409 377.82 651.213 378.144 651.621 378.792C652.041 379.44 652.251 380.592 652.251 382.248V387H650.901V382.284C650.901 381.036 650.775 380.184 650.523 379.728C650.283 379.26 649.767 379.026 648.975 379.026C648.219 379.026 647.487 379.164 646.779 379.44L646.437 379.566V387ZM654.755 387V378H656.105V387H654.755ZM654.755 375.966V374.4H656.105V375.966H654.755ZM665.046 380.718V385.326C665.082 385.77 665.43 386.034 666.09 386.118L666.036 387.18C665.088 387.18 664.374 386.94 663.894 386.46C662.814 386.94 661.734 387.18 660.654 387.18C659.826 387.18 659.196 386.946 658.764 386.478C658.332 386.01 658.116 385.338 658.116 384.462C658.116 383.586 658.338 382.944 658.782 382.536C659.226 382.116 659.922 381.858 660.87 381.762L663.696 381.492V380.718C663.696 380.106 663.564 379.668 663.3 379.404C663.036 379.14 662.676 379.008 662.22 379.008C661.26 379.008 660.264 379.068 659.232 379.188L658.674 379.242L658.62 378.216C659.94 377.952 661.11 377.82 662.13 377.82C663.15 377.82 663.888 378.054 664.344 378.522C664.812 378.99 665.046 379.722 665.046 380.718ZM659.502 384.39C659.502 385.494 659.958 386.046 660.87 386.046C661.686 386.046 662.49 385.908 663.282 385.632L663.696 385.488V382.518L661.032 382.77C660.492 382.818 660.102 382.974 659.862 383.238C659.622 383.502 659.502 383.886 659.502 384.39ZM666.776 378H668.216L670.322 385.83H670.988L673.166 378H674.552L672.014 387H669.314L666.776 378ZM682.25 385.884L682.772 385.83L682.808 386.892C681.44 387.084 680.27 387.18 679.298 387.18C678.002 387.18 677.084 386.808 676.544 386.064C676.004 385.308 675.734 384.138 675.734 382.554C675.734 379.398 676.988 377.82 679.496 377.82C680.708 377.82 681.614 378.162 682.214 378.846C682.814 379.518 683.114 380.58 683.114 382.032L683.042 383.058H677.102C677.102 384.054 677.282 384.792 677.642 385.272C678.002 385.752 678.626 385.992 679.514 385.992C680.414 385.992 681.326 385.956 682.25 385.884ZM681.764 381.978C681.764 380.874 681.584 380.094 681.224 379.638C680.876 379.182 680.3 378.954 679.496 378.954C678.704 378.954 678.104 379.194 677.696 379.674C677.3 380.154 677.096 380.922 677.084 381.978H681.764ZM689.173 390.996V378H690.505V378.648C691.417 378.096 692.317 377.82 693.205 377.82C694.345 377.82 695.173 378.186 695.689 378.918C696.205 379.638 696.463 380.832 696.463 382.5C696.463 384.168 696.157 385.368 695.545 386.1C694.945 386.82 693.943 387.18 692.539 387.18C691.807 387.18 691.135 387.114 690.523 386.982V390.996H689.173ZM693.007 379.026C692.647 379.026 692.257 379.086 691.837 379.206C691.429 379.326 691.105 379.446 690.865 379.566L690.523 379.746V385.812C691.375 385.944 692.023 386.01 692.467 386.01C693.439 386.01 694.117 385.734 694.501 385.182C694.897 384.63 695.095 383.73 695.095 382.482C695.095 381.234 694.915 380.346 694.555 379.818C694.207 379.29 693.691 379.026 693.007 379.026ZM704.281 378H705.631V387H704.281V386.37C703.381 386.91 702.493 387.18 701.617 387.18C700.393 387.18 699.577 386.862 699.169 386.226C698.773 385.59 698.575 384.414 698.575 382.698V378H699.925V382.68C699.925 383.988 700.039 384.864 700.267 385.308C700.495 385.752 701.011 385.974 701.815 385.974C702.211 385.974 702.613 385.92 703.021 385.812C703.429 385.692 703.741 385.578 703.957 385.47L704.281 385.308V378ZM712.206 377.82C713.418 377.82 714.264 378.168 714.744 378.864C715.236 379.548 715.482 380.754 715.482 382.482C715.482 384.21 715.176 385.428 714.564 386.136C713.964 386.832 712.854 387.18 711.234 387.18C710.73 387.18 709.896 387.132 708.732 387.036L708.228 386.982V374.076H709.56V378.45C710.472 378.03 711.354 377.82 712.206 377.82ZM711.216 385.974C712.392 385.974 713.166 385.71 713.538 385.182C713.922 384.642 714.114 383.736 714.114 382.464C714.114 381.192 713.964 380.304 713.664 379.8C713.364 379.284 712.83 379.026 712.062 379.026C711.366 379.026 710.652 379.158 709.92 379.422L709.56 379.548V385.884C710.34 385.944 710.892 385.974 711.216 385.974ZM721.68 377.82C722.892 377.82 723.738 378.168 724.218 378.864C724.71 379.548 724.956 380.754 724.956 382.482C724.956 384.21 724.65 385.428 724.038 386.136C723.438 386.832 722.328 387.18 720.708 387.18C720.204 387.18 719.37 387.132 718.206 387.036L717.702 386.982V374.076H719.034V378.45C719.946 378.03 720.828 377.82 721.68 377.82ZM720.69 385.974C721.866 385.974 722.64 385.71 723.012 385.182C723.396 384.642 723.588 383.736 723.588 382.464C723.588 381.192 723.438 380.304 723.138 379.8C722.838 379.284 722.304 379.026 721.536 379.026C720.84 379.026 720.126 379.158 719.394 379.422L719.034 379.548V385.884C719.814 385.944 720.366 385.974 720.69 385.974ZM727.285 387V374.076H728.635V387H727.285ZM731.343 387V378H732.693V387H731.343ZM731.343 375.966V374.4H732.693V375.966H731.343ZM738.646 377.82C739.042 377.82 739.714 377.892 740.662 378.036L741.094 378.09L741.04 379.188C740.08 379.08 739.372 379.026 738.916 379.026C737.896 379.026 737.2 379.272 736.828 379.764C736.468 380.244 736.288 381.144 736.288 382.464C736.288 383.772 736.456 384.684 736.792 385.2C737.14 385.716 737.854 385.974 738.934 385.974L741.058 385.812L741.112 386.928C739.996 387.096 739.162 387.18 738.61 387.18C737.206 387.18 736.234 386.82 735.694 386.1C735.166 385.38 734.902 384.168 734.902 382.464C734.902 380.748 735.19 379.548 735.766 378.864C736.342 378.168 737.302 377.82 738.646 377.82ZM749.474 380.718V385.326C749.51 385.77 749.858 386.034 750.518 386.118L750.464 387.18C749.516 387.18 748.802 386.94 748.322 386.46C747.242 386.94 746.162 387.18 745.082 387.18C744.254 387.18 743.624 386.946 743.192 386.478C742.76 386.01 742.544 385.338 742.544 384.462C742.544 383.586 742.766 382.944 743.21 382.536C743.654 382.116 744.35 381.858 745.298 381.762L748.124 381.492V380.718C748.124 380.106 747.992 379.668 747.728 379.404C747.464 379.14 747.104 379.008 746.648 379.008C745.688 379.008 744.692 379.068 743.66 379.188L743.102 379.242L743.048 378.216C744.368 377.952 745.538 377.82 746.558 377.82C747.578 377.82 748.316 378.054 748.772 378.522C749.24 378.99 749.474 379.722 749.474 380.718ZM743.93 384.39C743.93 385.494 744.386 386.046 745.298 386.046C746.114 386.046 746.918 385.908 747.71 385.632L748.124 385.488V382.518L745.46 382.77C744.92 382.818 744.53 382.974 744.29 383.238C744.05 383.502 743.93 383.886 743.93 384.39Z" fill="#17324D"/>
<path d="M528.054 135.802C526.818 136.054 525.708 136.18 524.724 136.18C523.74 136.18 522.942 136.048 522.33 135.784C521.73 135.508 521.262 135.088 520.926 134.524C520.602 133.948 520.374 133.294 520.242 132.562C520.122 131.818 520.062 130.894 520.062 129.79C520.062 128.686 520.122 127.762 520.242 127.018C520.374 126.262 520.602 125.596 520.926 125.02C521.262 124.444 521.73 124.024 522.33 123.76C522.93 123.496 523.71 123.364 524.67 123.364C525.63 123.364 526.758 123.496 528.054 123.76L528 124.93C526.788 124.714 525.708 124.606 524.76 124.606C523.44 124.606 522.564 125.002 522.132 125.794C521.712 126.574 521.502 127.912 521.502 129.808C521.502 130.756 521.538 131.518 521.61 132.094C521.694 132.67 521.85 133.192 522.078 133.66C522.306 134.116 522.636 134.446 523.068 134.65C523.512 134.842 524.154 134.938 524.994 134.938C525.846 134.938 526.848 134.83 528 134.614L528.054 135.802ZM530.195 136V123.076H531.545V136H530.195ZM534.253 136V127H535.603V136H534.253ZM534.253 124.966V123.4H535.603V124.966H534.253ZM544.311 134.884L544.833 134.83L544.869 135.892C543.501 136.084 542.331 136.18 541.359 136.18C540.063 136.18 539.145 135.808 538.605 135.064C538.065 134.308 537.795 133.138 537.795 131.554C537.795 128.398 539.049 126.82 541.557 126.82C542.769 126.82 543.675 127.162 544.275 127.846C544.875 128.518 545.175 129.58 545.175 131.032L545.103 132.058H539.163C539.163 133.054 539.343 133.792 539.703 134.272C540.063 134.752 540.687 134.992 541.575 134.992C542.475 134.992 543.387 134.956 544.311 134.884ZM543.825 130.978C543.825 129.874 543.645 129.094 543.285 128.638C542.937 128.182 542.361 127.954 541.557 127.954C540.765 127.954 540.165 128.194 539.757 128.674C539.361 129.154 539.157 129.922 539.145 130.978H543.825ZM548.628 136H547.278V127H548.61V127.63C549.582 127.09 550.512 126.82 551.4 126.82C552.6 126.82 553.404 127.144 553.812 127.792C554.232 128.44 554.442 129.592 554.442 131.248V136H553.11V131.284C553.11 130.036 552.984 129.184 552.732 128.728C552.492 128.26 551.97 128.026 551.166 128.026C550.782 128.026 550.374 128.086 549.942 128.206C549.522 128.314 549.198 128.422 548.97 128.53L548.628 128.692V136ZM561.556 128.17H558.694V132.472C558.694 133.504 558.766 134.182 558.91 134.506C559.066 134.83 559.426 134.992 559.99 134.992L561.592 134.884L561.682 136C560.878 136.132 560.266 136.198 559.846 136.198C558.91 136.198 558.262 135.97 557.902 135.514C557.542 135.058 557.362 134.188 557.362 132.904V128.17H556.084V127H557.362V124.246H558.694V127H561.556V128.17Z" fill="#17324D"/>
<path d="M528.054 247.802C526.818 248.054 525.708 248.18 524.724 248.18C523.74 248.18 522.942 248.048 522.33 247.784C521.73 247.508 521.262 247.088 520.926 246.524C520.602 245.948 520.374 245.294 520.242 244.562C520.122 243.818 520.062 242.894 520.062 241.79C520.062 240.686 520.122 239.762 520.242 239.018C520.374 238.262 520.602 237.596 520.926 237.02C521.262 236.444 521.73 236.024 522.33 235.76C522.93 235.496 523.71 235.364 524.67 235.364C525.63 235.364 526.758 235.496 528.054 235.76L528 236.93C526.788 236.714 525.708 236.606 524.76 236.606C523.44 236.606 522.564 237.002 522.132 237.794C521.712 238.574 521.502 239.912 521.502 241.808C521.502 242.756 521.538 243.518 521.61 244.094C521.694 244.67 521.85 245.192 522.078 245.66C522.306 246.116 522.636 246.446 523.068 246.65C523.512 246.842 524.154 246.938 524.994 246.938C525.846 246.938 526.848 246.83 528 246.614L528.054 247.802ZM530.195 248V235.076H531.545V248H530.195ZM534.253 248V239H535.603V248H534.253ZM534.253 236.966V235.4H535.603V236.966H534.253ZM544.311 246.884L544.833 246.83L544.869 247.892C543.501 248.084 542.331 248.18 541.359 248.18C540.063 248.18 539.145 247.808 538.605 247.064C538.065 246.308 537.795 245.138 537.795 243.554C537.795 240.398 539.049 238.82 541.557 238.82C542.769 238.82 543.675 239.162 544.275 239.846C544.875 240.518 545.175 241.58 545.175 243.032L545.103 244.058H539.163C539.163 245.054 539.343 245.792 539.703 246.272C540.063 246.752 540.687 246.992 541.575 246.992C542.475 246.992 543.387 246.956 544.311 246.884ZM543.825 242.978C543.825 241.874 543.645 241.094 543.285 240.638C542.937 240.182 542.361 239.954 541.557 239.954C540.765 239.954 540.165 240.194 539.757 240.674C539.361 241.154 539.157 241.922 539.145 242.978H543.825ZM548.628 248H547.278V239H548.61V239.63C549.582 239.09 550.512 238.82 551.4 238.82C552.6 238.82 553.404 239.144 553.812 239.792C554.232 240.44 554.442 241.592 554.442 243.248V248H553.11V243.284C553.11 242.036 552.984 241.184 552.732 240.728C552.492 240.26 551.97 240.026 551.166 240.026C550.782 240.026 550.374 240.086 549.942 240.206C549.522 240.314 549.198 240.422 548.97 240.53L548.628 240.692V248ZM561.556 240.17H558.694V244.472C558.694 245.504 558.766 246.182 558.91 246.506C559.066 246.83 559.426 246.992 559.99 246.992L561.592 246.884L561.682 248C560.878 248.132 560.266 248.198 559.846 248.198C558.91 248.198 558.262 247.97 557.902 247.514C557.542 247.058 557.362 246.188 557.362 244.904V240.17H556.084V239H557.362V236.246H558.694V239H561.556V240.17Z" fill="#17324D"/>
<path d="M528.054 359.802C526.818 360.054 525.708 360.18 524.724 360.18C523.74 360.18 522.942 360.048 522.33 359.784C521.73 359.508 521.262 359.088 520.926 358.524C520.602 357.948 520.374 357.294 520.242 356.562C520.122 355.818 520.062 354.894 520.062 353.79C520.062 352.686 520.122 351.762 520.242 351.018C520.374 350.262 520.602 349.596 520.926 349.02C521.262 348.444 521.73 348.024 522.33 347.76C522.93 347.496 523.71 347.364 524.67 347.364C525.63 347.364 526.758 347.496 528.054 347.76L528 348.93C526.788 348.714 525.708 348.606 524.76 348.606C523.44 348.606 522.564 349.002 522.132 349.794C521.712 350.574 521.502 351.912 521.502 353.808C521.502 354.756 521.538 355.518 521.61 356.094C521.694 356.67 521.85 357.192 522.078 357.66C522.306 358.116 522.636 358.446 523.068 358.65C523.512 358.842 524.154 358.938 524.994 358.938C525.846 358.938 526.848 358.83 528 358.614L528.054 359.802ZM530.195 360V347.076H531.545V360H530.195ZM534.253 360V351H535.603V360H534.253ZM534.253 348.966V347.4H535.603V348.966H534.253ZM544.311 358.884L544.833 358.83L544.869 359.892C543.501 360.084 542.331 360.18 541.359 360.18C540.063 360.18 539.145 359.808 538.605 359.064C538.065 358.308 537.795 357.138 537.795 355.554C537.795 352.398 539.049 350.82 541.557 350.82C542.769 350.82 543.675 351.162 544.275 351.846C544.875 352.518 545.175 353.58 545.175 355.032L545.103 356.058H539.163C539.163 357.054 539.343 357.792 539.703 358.272C540.063 358.752 540.687 358.992 541.575 358.992C542.475 358.992 543.387 358.956 544.311 358.884ZM543.825 354.978C543.825 353.874 543.645 353.094 543.285 352.638C542.937 352.182 542.361 351.954 541.557 351.954C540.765 351.954 540.165 352.194 539.757 352.674C539.361 353.154 539.157 353.922 539.145 354.978H543.825ZM548.628 360H547.278V351H548.61V351.63C549.582 351.09 550.512 350.82 551.4 350.82C552.6 350.82 553.404 351.144 553.812 351.792C554.232 352.44 554.442 353.592 554.442 355.248V360H553.11V355.284C553.11 354.036 552.984 353.184 552.732 352.728C552.492 352.26 551.97 352.026 551.166 352.026C550.782 352.026 550.374 352.086 549.942 352.206C549.522 352.314 549.198 352.422 548.97 352.53L548.628 352.692V360ZM561.556 352.17H558.694V356.472C558.694 357.504 558.766 358.182 558.91 358.506C559.066 358.83 559.426 358.992 559.99 358.992L561.592 358.884L561.682 360C560.878 360.132 560.266 360.198 559.846 360.198C558.91 360.198 558.262 359.97 557.902 359.514C557.542 359.058 557.362 358.188 557.362 356.904V352.17H556.084V351H557.362V348.246H558.694V351H561.556V352.17Z" fill="#17324D"/>
<path d="M392.53 81V68.544H399.982V69.768H393.916V74.628H399.046V75.852H393.916V81H392.53ZM401.771 81V72H403.121V81H401.771ZM401.771 69.966V68.4H403.121V69.966H401.771ZM407.058 81H405.708V72H407.04V72.63C408.012 72.09 408.942 71.82 409.83 71.82C411.03 71.82 411.834 72.144 412.242 72.792C412.662 73.44 412.872 74.592 412.872 76.248V81H411.54V76.284C411.54 75.036 411.414 74.184 411.162 73.728C410.922 73.26 410.4 73.026 409.596 73.026C409.212 73.026 408.804 73.086 408.372 73.206C407.952 73.314 407.628 73.422 407.4 73.53L407.058 73.692V81ZM421.73 74.718V79.326C421.766 79.77 422.114 80.034 422.774 80.118L422.72 81.18C421.772 81.18 421.058 80.94 420.578 80.46C419.498 80.94 418.418 81.18 417.338 81.18C416.51 81.18 415.88 80.946 415.448 80.478C415.016 80.01 414.8 79.338 414.8 78.462C414.8 77.586 415.022 76.944 415.466 76.536C415.91 76.116 416.606 75.858 417.554 75.762L420.38 75.492V74.718C420.38 74.106 420.248 73.668 419.984 73.404C419.72 73.14 419.36 73.008 418.904 73.008C417.944 73.008 416.948 73.068 415.916 73.188L415.358 73.242L415.304 72.216C416.624 71.952 417.794 71.82 418.814 71.82C419.834 71.82 420.572 72.054 421.028 72.522C421.496 72.99 421.73 73.722 421.73 74.718ZM416.186 78.39C416.186 79.494 416.642 80.046 417.554 80.046C418.37 80.046 419.174 79.908 419.966 79.632L420.38 79.488V76.518L417.716 76.77C417.176 76.818 416.786 76.974 416.546 77.238C416.306 77.502 416.186 77.886 416.186 78.39ZM424.502 81V68.076H425.852V81H424.502ZM428.56 81V72H429.91V81H428.56ZM428.56 69.966V68.4H429.91V69.966H428.56ZM437.159 73.17H434.297V77.472C434.297 78.504 434.369 79.182 434.513 79.506C434.669 79.83 435.029 79.992 435.593 79.992L437.195 79.884L437.285 81C436.481 81.132 435.869 81.198 435.449 81.198C434.513 81.198 433.865 80.97 433.505 80.514C433.145 80.058 432.965 79.188 432.965 77.904V73.17H431.687V72H432.965V69.246H434.297V72H437.159V73.17ZM445.162 74.718V79.326C445.198 79.77 445.546 80.034 446.206 80.118L446.152 81.18C445.204 81.18 444.49 80.94 444.01 80.46C442.93 80.94 441.85 81.18 440.77 81.18C439.942 81.18 439.312 80.946 438.88 80.478C438.448 80.01 438.232 79.338 438.232 78.462C438.232 77.586 438.454 76.944 438.898 76.536C439.342 76.116 440.038 75.858 440.986 75.762L443.812 75.492V74.718C443.812 74.106 443.68 73.668 443.416 73.404C443.152 73.14 442.792 73.008 442.336 73.008C441.376 73.008 440.38 73.068 439.348 73.188L438.79 73.242L438.736 72.216C440.056 71.952 441.226 71.82 442.246 71.82C443.266 71.82 444.004 72.054 444.46 72.522C444.928 72.99 445.162 73.722 445.162 74.718ZM439.618 78.39C439.618 79.494 440.074 80.046 440.986 80.046C441.802 80.046 442.606 79.908 443.398 79.632L443.812 79.488V76.518L441.148 76.77C440.608 76.818 440.218 76.974 439.978 77.238C439.738 77.502 439.618 77.886 439.618 78.39ZM440.158 67.68L444.046 69.444L443.668 70.362L439.69 68.832L440.158 67.68Z" fill="#17324D"/>
<path d="M392.53 214V201.544H399.982V202.768H393.916V207.628H399.046V208.852H393.916V214H392.53ZM401.771 214V205H403.121V214H401.771ZM401.771 202.966V201.4H403.121V202.966H401.771ZM407.058 214H405.708V205H407.04V205.63C408.012 205.09 408.942 204.82 409.83 204.82C411.03 204.82 411.834 205.144 412.242 205.792C412.662 206.44 412.872 207.592 412.872 209.248V214H411.54V209.284C411.54 208.036 411.414 207.184 411.162 206.728C410.922 206.26 410.4 206.026 409.596 206.026C409.212 206.026 408.804 206.086 408.372 206.206C407.952 206.314 407.628 206.422 407.4 206.53L407.058 206.692V214ZM421.73 207.718V212.326C421.766 212.77 422.114 213.034 422.774 213.118L422.72 214.18C421.772 214.18 421.058 213.94 420.578 213.46C419.498 213.94 418.418 214.18 417.338 214.18C416.51 214.18 415.88 213.946 415.448 213.478C415.016 213.01 414.8 212.338 414.8 211.462C414.8 210.586 415.022 209.944 415.466 209.536C415.91 209.116 416.606 208.858 417.554 208.762L420.38 208.492V207.718C420.38 207.106 420.248 206.668 419.984 206.404C419.72 206.14 419.36 206.008 418.904 206.008C417.944 206.008 416.948 206.068 415.916 206.188L415.358 206.242L415.304 205.216C416.624 204.952 417.794 204.82 418.814 204.82C419.834 204.82 420.572 205.054 421.028 205.522C421.496 205.99 421.73 206.722 421.73 207.718ZM416.186 211.39C416.186 212.494 416.642 213.046 417.554 213.046C418.37 213.046 419.174 212.908 419.966 212.632L420.38 212.488V209.518L417.716 209.77C417.176 209.818 416.786 209.974 416.546 210.238C416.306 210.502 416.186 210.886 416.186 211.39ZM424.502 214V201.076H425.852V214H424.502ZM428.56 214V205H429.91V214H428.56ZM428.56 202.966V201.4H429.91V202.966H428.56ZM437.159 206.17H434.297V210.472C434.297 211.504 434.369 212.182 434.513 212.506C434.669 212.83 435.029 212.992 435.593 212.992L437.195 212.884L437.285 214C436.481 214.132 435.869 214.198 435.449 214.198C434.513 214.198 433.865 213.97 433.505 213.514C433.145 213.058 432.965 212.188 432.965 210.904V206.17H431.687V205H432.965V202.246H434.297V205H437.159V206.17ZM445.162 207.718V212.326C445.198 212.77 445.546 213.034 446.206 213.118L446.152 214.18C445.204 214.18 444.49 213.94 444.01 213.46C442.93 213.94 441.85 214.18 440.77 214.18C439.942 214.18 439.312 213.946 438.88 213.478C438.448 213.01 438.232 212.338 438.232 211.462C438.232 210.586 438.454 209.944 438.898 209.536C439.342 209.116 440.038 208.858 440.986 208.762L443.812 208.492V207.718C443.812 207.106 443.68 206.668 443.416 206.404C443.152 206.14 442.792 206.008 442.336 206.008C441.376 206.008 440.38 206.068 439.348 206.188L438.79 206.242L438.736 205.216C440.056 204.952 441.226 204.82 442.246 204.82C443.266 204.82 444.004 205.054 444.46 205.522C444.928 205.99 445.162 206.722 445.162 207.718ZM439.618 211.39C439.618 212.494 440.074 213.046 440.986 213.046C441.802 213.046 442.606 212.908 443.398 212.632L443.812 212.488V209.518L441.148 209.77C440.608 209.818 440.218 209.974 439.978 210.238C439.738 210.502 439.618 210.886 439.618 211.39ZM440.158 200.68L444.046 202.444L443.668 203.362L439.69 201.832L440.158 200.68Z" fill="#17324D"/>
<path d="M392.53 284V271.544H399.982V272.768H393.916V277.628H399.046V278.852H393.916V284H392.53ZM401.771 284V275H403.121V284H401.771ZM401.771 272.966V271.4H403.121V272.966H401.771ZM407.058 284H405.708V275H407.04V275.63C408.012 275.09 408.942 274.82 409.83 274.82C411.03 274.82 411.834 275.144 412.242 275.792C412.662 276.44 412.872 277.592 412.872 279.248V284H411.54V279.284C411.54 278.036 411.414 277.184 411.162 276.728C410.922 276.26 410.4 276.026 409.596 276.026C409.212 276.026 408.804 276.086 408.372 276.206C407.952 276.314 407.628 276.422 407.4 276.53L407.058 276.692V284ZM421.73 277.718V282.326C421.766 282.77 422.114 283.034 422.774 283.118L422.72 284.18C421.772 284.18 421.058 283.94 420.578 283.46C419.498 283.94 418.418 284.18 417.338 284.18C416.51 284.18 415.88 283.946 415.448 283.478C415.016 283.01 414.8 282.338 414.8 281.462C414.8 280.586 415.022 279.944 415.466 279.536C415.91 279.116 416.606 278.858 417.554 278.762L420.38 278.492V277.718C420.38 277.106 420.248 276.668 419.984 276.404C419.72 276.14 419.36 276.008 418.904 276.008C417.944 276.008 416.948 276.068 415.916 276.188L415.358 276.242L415.304 275.216C416.624 274.952 417.794 274.82 418.814 274.82C419.834 274.82 420.572 275.054 421.028 275.522C421.496 275.99 421.73 276.722 421.73 277.718ZM416.186 281.39C416.186 282.494 416.642 283.046 417.554 283.046C418.37 283.046 419.174 282.908 419.966 282.632L420.38 282.488V279.518L417.716 279.77C417.176 279.818 416.786 279.974 416.546 280.238C416.306 280.502 416.186 280.886 416.186 281.39ZM424.502 284V271.076H425.852V284H424.502ZM428.56 284V275H429.91V284H428.56ZM428.56 272.966V271.4H429.91V272.966H428.56ZM437.159 276.17H434.297V280.472C434.297 281.504 434.369 282.182 434.513 282.506C434.669 282.83 435.029 282.992 435.593 282.992L437.195 282.884L437.285 284C436.481 284.132 435.869 284.198 435.449 284.198C434.513 284.198 433.865 283.97 433.505 283.514C433.145 283.058 432.965 282.188 432.965 280.904V276.17H431.687V275H432.965V272.246H434.297V275H437.159V276.17ZM445.162 277.718V282.326C445.198 282.77 445.546 283.034 446.206 283.118L446.152 284.18C445.204 284.18 444.49 283.94 444.01 283.46C442.93 283.94 441.85 284.18 440.77 284.18C439.942 284.18 439.312 283.946 438.88 283.478C438.448 283.01 438.232 282.338 438.232 281.462C438.232 280.586 438.454 279.944 438.898 279.536C439.342 279.116 440.038 278.858 440.986 278.762L443.812 278.492V277.718C443.812 277.106 443.68 276.668 443.416 276.404C443.152 276.14 442.792 276.008 442.336 276.008C441.376 276.008 440.38 276.068 439.348 276.188L438.79 276.242L438.736 275.216C440.056 274.952 441.226 274.82 442.246 274.82C443.266 274.82 444.004 275.054 444.46 275.522C444.928 275.99 445.162 276.722 445.162 277.718ZM439.618 281.39C439.618 282.494 440.074 283.046 440.986 283.046C441.802 283.046 442.606 282.908 443.398 282.632L443.812 282.488V279.518L441.148 279.77C440.608 279.818 440.218 279.974 439.978 280.238C439.738 280.502 439.618 280.886 439.618 281.39ZM440.158 270.68L444.046 272.444L443.668 273.362L439.69 271.832L440.158 270.68Z" fill="#17324D"/>
<path d="M392.53 417V404.544H399.982V405.768H393.916V410.628H399.046V411.852H393.916V417H392.53ZM401.771 417V408H403.121V417H401.771ZM401.771 405.966V404.4H403.121V405.966H401.771ZM407.058 417H405.708V408H407.04V408.63C408.012 408.09 408.942 407.82 409.83 407.82C411.03 407.82 411.834 408.144 412.242 408.792C412.662 409.44 412.872 410.592 412.872 412.248V417H411.54V412.284C411.54 411.036 411.414 410.184 411.162 409.728C410.922 409.26 410.4 409.026 409.596 409.026C409.212 409.026 408.804 409.086 408.372 409.206C407.952 409.314 407.628 409.422 407.4 409.53L407.058 409.692V417ZM421.73 410.718V415.326C421.766 415.77 422.114 416.034 422.774 416.118L422.72 417.18C421.772 417.18 421.058 416.94 420.578 416.46C419.498 416.94 418.418 417.18 417.338 417.18C416.51 417.18 415.88 416.946 415.448 416.478C415.016 416.01 414.8 415.338 414.8 414.462C414.8 413.586 415.022 412.944 415.466 412.536C415.91 412.116 416.606 411.858 417.554 411.762L420.38 411.492V410.718C420.38 410.106 420.248 409.668 419.984 409.404C419.72 409.14 419.36 409.008 418.904 409.008C417.944 409.008 416.948 409.068 415.916 409.188L415.358 409.242L415.304 408.216C416.624 407.952 417.794 407.82 418.814 407.82C419.834 407.82 420.572 408.054 421.028 408.522C421.496 408.99 421.73 409.722 421.73 410.718ZM416.186 414.39C416.186 415.494 416.642 416.046 417.554 416.046C418.37 416.046 419.174 415.908 419.966 415.632L420.38 415.488V412.518L417.716 412.77C417.176 412.818 416.786 412.974 416.546 413.238C416.306 413.502 416.186 413.886 416.186 414.39ZM424.502 417V404.076H425.852V417H424.502ZM428.56 417V408H429.91V417H428.56ZM428.56 405.966V404.4H429.91V405.966H428.56ZM437.159 409.17H434.297V413.472C434.297 414.504 434.369 415.182 434.513 415.506C434.669 415.83 435.029 415.992 435.593 415.992L437.195 415.884L437.285 417C436.481 417.132 435.869 417.198 435.449 417.198C434.513 417.198 433.865 416.97 433.505 416.514C433.145 416.058 432.965 415.188 432.965 413.904V409.17H431.687V408H432.965V405.246H434.297V408H437.159V409.17ZM445.162 410.718V415.326C445.198 415.77 445.546 416.034 446.206 416.118L446.152 417.18C445.204 417.18 444.49 416.94 444.01 416.46C442.93 416.94 441.85 417.18 440.77 417.18C439.942 417.18 439.312 416.946 438.88 416.478C438.448 416.01 438.232 415.338 438.232 414.462C438.232 413.586 438.454 412.944 438.898 412.536C439.342 412.116 440.038 411.858 440.986 411.762L443.812 411.492V410.718C443.812 410.106 443.68 409.668 443.416 409.404C443.152 409.14 442.792 409.008 442.336 409.008C441.376 409.008 440.38 409.068 439.348 409.188L438.79 409.242L438.736 408.216C440.056 407.952 441.226 407.82 442.246 407.82C443.266 407.82 444.004 408.054 444.46 408.522C444.928 408.99 445.162 409.722 445.162 410.718ZM439.618 414.39C439.618 415.494 440.074 416.046 440.986 416.046C441.802 416.046 442.606 415.908 443.398 415.632L443.812 415.488V412.518L441.148 412.77C440.608 412.818 440.218 412.974 439.978 413.238C439.738 413.502 439.618 413.886 439.618 414.39ZM440.158 403.68L444.046 405.444L443.668 406.362L439.69 404.832L440.158 403.68Z" fill="#17324D"/>
<path d="M166.916 142.23V147H165.53V134.544H170.138C171.458 134.544 172.448 134.85 173.108 135.462C173.78 136.074 174.116 137.028 174.116 138.324C174.116 140.244 173.354 141.45 171.83 141.942L174.224 147H172.694L170.444 142.23H166.916ZM170.156 141.006C171.848 141.006 172.694 140.136 172.694 138.396C172.694 136.644 171.842 135.768 170.138 135.768H166.916V141.006H170.156ZM176.388 147V138H177.738V147H176.388ZM176.388 135.966V134.4H177.738V135.966H176.388ZM183.691 137.82C184.087 137.82 184.759 137.892 185.707 138.036L186.139 138.09L186.085 139.188C185.125 139.08 184.417 139.026 183.961 139.026C182.941 139.026 182.245 139.272 181.873 139.764C181.513 140.244 181.333 141.144 181.333 142.464C181.333 143.772 181.501 144.684 181.837 145.2C182.185 145.716 182.899 145.974 183.979 145.974L186.103 145.812L186.157 146.928C185.041 147.096 184.207 147.18 183.655 147.18C182.251 147.18 181.279 146.82 180.739 146.1C180.211 145.38 179.947 144.168 179.947 142.464C179.947 140.748 180.235 139.548 180.811 138.864C181.387 138.168 182.347 137.82 183.691 137.82ZM189.515 147H188.165V134.076H189.515V138.504C190.475 138.048 191.399 137.82 192.287 137.82C193.487 137.82 194.291 138.144 194.699 138.792C195.119 139.44 195.329 140.592 195.329 142.248V147H193.979V142.284C193.979 141.036 193.853 140.184 193.601 139.728C193.361 139.26 192.845 139.026 192.053 139.026C191.297 139.026 190.565 139.164 189.857 139.44L189.515 139.566V147ZM197.833 147V138H199.183V147H197.833ZM197.833 135.966V134.4H199.183V135.966H197.833ZM207.891 145.884L208.413 145.83L208.449 146.892C207.081 147.084 205.911 147.18 204.939 147.18C203.643 147.18 202.725 146.808 202.185 146.064C201.645 145.308 201.375 144.138 201.375 142.554C201.375 139.398 202.629 137.82 205.137 137.82C206.349 137.82 207.255 138.162 207.855 138.846C208.455 139.518 208.755 140.58 208.755 142.032L208.683 143.058H202.743C202.743 144.054 202.923 144.792 203.283 145.272C203.643 145.752 204.267 145.992 205.155 145.992C206.055 145.992 206.967 145.956 207.891 145.884ZM207.405 141.978C207.405 140.874 207.225 140.094 206.865 139.638C206.517 139.182 205.941 138.954 205.137 138.954C204.345 138.954 203.745 139.194 203.337 139.674C202.941 140.154 202.737 140.922 202.725 141.978H207.405ZM213.685 139.026C212.377 139.026 211.723 139.482 211.723 140.394C211.723 140.814 211.873 141.114 212.173 141.294C212.473 141.462 213.157 141.642 214.225 141.834C215.293 142.014 216.049 142.272 216.493 142.608C216.937 142.944 217.159 143.574 217.159 144.498C217.159 145.422 216.859 146.1 216.259 146.532C215.671 146.964 214.807 147.18 213.667 147.18C212.923 147.18 212.047 147.096 211.039 146.928L210.499 146.838L210.571 145.668C211.939 145.872 212.971 145.974 213.667 145.974C214.363 145.974 214.891 145.866 215.251 145.65C215.623 145.422 215.809 145.05 215.809 144.534C215.809 144.006 215.653 143.652 215.341 143.472C215.029 143.28 214.345 143.1 213.289 142.932C212.233 142.764 211.483 142.518 211.039 142.194C210.595 141.87 210.373 141.27 210.373 140.394C210.373 139.518 210.679 138.87 211.291 138.45C211.915 138.03 212.689 137.82 213.613 137.82C214.345 137.82 215.263 137.904 216.367 138.072L216.871 138.162L216.835 139.314C215.503 139.122 214.453 139.026 213.685 139.026ZM223.888 139.17H221.026V143.472C221.026 144.504 221.098 145.182 221.242 145.506C221.398 145.83 221.758 145.992 222.322 145.992L223.924 145.884L224.014 147C223.21 147.132 222.598 147.198 222.178 147.198C221.242 147.198 220.594 146.97 220.234 146.514C219.874 146.058 219.694 145.188 219.694 143.904V139.17H218.416V138H219.694V135.246H221.026V138H223.888V139.17ZM231.89 140.718V145.326C231.926 145.77 232.274 146.034 232.934 146.118L232.88 147.18C231.932 147.18 231.218 146.94 230.738 146.46C229.658 146.94 228.578 147.18 227.498 147.18C226.67 147.18 226.04 146.946 225.608 146.478C225.176 146.01 224.96 145.338 224.96 144.462C224.96 143.586 225.182 142.944 225.626 142.536C226.07 142.116 226.766 141.858 227.714 141.762L230.54 141.492V140.718C230.54 140.106 230.408 139.668 230.144 139.404C229.88 139.14 229.52 139.008 229.064 139.008C228.104 139.008 227.108 139.068 226.076 139.188L225.518 139.242L225.464 138.216C226.784 137.952 227.954 137.82 228.974 137.82C229.994 137.82 230.732 138.054 231.188 138.522C231.656 138.99 231.89 139.722 231.89 140.718ZM226.346 144.39C226.346 145.494 226.802 146.046 227.714 146.046C228.53 146.046 229.334 145.908 230.126 145.632L230.54 145.488V142.518L227.876 142.77C227.336 142.818 226.946 142.974 226.706 143.238C226.466 143.502 226.346 143.886 226.346 144.39ZM245.421 134.076V147H244.089V146.388C243.165 146.916 242.253 147.18 241.353 147.18C240.873 147.18 240.453 147.12 240.093 147C239.733 146.88 239.397 146.664 239.085 146.352C238.437 145.704 238.113 144.51 238.113 142.77C238.113 141.018 238.401 139.758 238.977 138.99C239.565 138.21 240.531 137.82 241.875 137.82C242.571 137.82 243.309 137.898 244.089 138.054V134.076H245.421ZM240.129 145.38C240.321 145.608 240.525 145.764 240.741 145.848C240.957 145.932 241.233 145.974 241.569 145.974C241.917 145.974 242.301 145.92 242.721 145.812C243.153 145.692 243.489 145.578 243.729 145.47L244.089 145.308V139.206C243.321 139.062 242.607 138.99 241.947 138.99C241.035 138.99 240.399 139.284 240.039 139.872C239.679 140.448 239.499 141.348 239.499 142.572C239.499 143.964 239.709 144.9 240.129 145.38ZM248.036 147V138H249.386V147H248.036ZM248.036 135.966V134.4H249.386V135.966H248.036ZM257.657 139.17V147H256.307V139.17H255.173V138H256.307V137.19C256.307 135.918 256.487 135.054 256.847 134.598C257.207 134.13 257.837 133.896 258.737 133.896L260.555 134.022L260.537 135.138C259.865 135.114 259.307 135.102 258.863 135.102C258.431 135.102 258.119 135.246 257.927 135.534C257.747 135.822 257.657 136.38 257.657 137.208V138H260.267V139.17H257.657ZM261.888 147V138H263.22V139.224C264.264 138.504 265.362 138.03 266.514 137.802V139.17C266.01 139.266 265.482 139.416 264.93 139.62C264.39 139.824 263.976 140.004 263.688 140.16L263.238 140.394V147H261.888ZM273.726 138H275.076V147H273.726V146.37C272.826 146.91 271.938 147.18 271.062 147.18C269.838 147.18 269.022 146.862 268.614 146.226C268.218 145.59 268.02 144.414 268.02 142.698V138H269.37V142.68C269.37 143.988 269.484 144.864 269.712 145.308C269.94 145.752 270.456 145.974 271.26 145.974C271.656 145.974 272.058 145.92 272.466 145.812C272.874 145.692 273.186 145.578 273.402 145.47L273.726 145.308V138ZM277.673 147V138H279.023V147H277.673ZM277.673 135.966V134.4H279.023V135.966H277.673ZM281.07 139.206V138H287.748V139.206L282.708 145.794H287.748V147H281.07V145.794L286.11 139.206H281.07ZM289.802 147V138H291.152V147H289.802ZM289.802 135.966V134.4H291.152V135.966H289.802ZM293.343 142.482C293.343 140.838 293.637 139.65 294.225 138.918C294.813 138.186 295.803 137.82 297.195 137.82C298.599 137.82 299.589 138.186 300.165 138.918C300.753 139.65 301.047 140.838 301.047 142.482C301.047 144.126 300.771 145.32 300.219 146.064C299.667 146.808 298.659 147.18 297.195 147.18C295.731 147.18 294.723 146.808 294.171 146.064C293.619 145.32 293.343 144.126 293.343 142.482ZM294.729 142.464C294.729 143.772 294.885 144.69 295.197 145.218C295.521 145.746 296.187 146.01 297.195 146.01C298.215 146.01 298.881 145.752 299.193 145.236C299.505 144.708 299.661 143.784 299.661 142.464C299.661 141.144 299.487 140.238 299.139 139.746C298.791 139.242 298.143 138.99 297.195 138.99C296.259 138.99 295.611 139.242 295.251 139.746C294.903 140.238 294.729 141.144 294.729 142.464ZM304.599 147H303.249V138H304.581V138.63C305.553 138.09 306.483 137.82 307.371 137.82C308.571 137.82 309.375 138.144 309.783 138.792C310.203 139.44 310.413 140.592 310.413 142.248V147H309.081V142.284C309.081 141.036 308.955 140.184 308.703 139.728C308.463 139.26 307.941 139.026 307.137 139.026C306.753 139.026 306.345 139.086 305.913 139.206C305.493 139.314 305.169 139.422 304.941 139.53L304.599 139.692V147ZM319.037 145.884L319.559 145.83L319.595 146.892C318.227 147.084 317.057 147.18 316.085 147.18C314.789 147.18 313.871 146.808 313.331 146.064C312.791 145.308 312.521 144.138 312.521 142.554C312.521 139.398 313.775 137.82 316.283 137.82C317.495 137.82 318.401 138.162 319.001 138.846C319.601 139.518 319.901 140.58 319.901 142.032L319.829 143.058H313.889C313.889 144.054 314.069 144.792 314.429 145.272C314.789 145.752 315.413 145.992 316.301 145.992C317.201 145.992 318.113 145.956 319.037 145.884ZM318.551 141.978C318.551 140.874 318.371 140.094 318.011 139.638C317.663 139.182 317.087 138.954 316.283 138.954C315.491 138.954 314.891 139.194 314.483 139.674C314.087 140.154 313.883 140.922 313.871 141.978H318.551Z" fill="#17324D"/>
<path d="M166.916 346.23V351H165.53V338.544H170.138C171.458 338.544 172.448 338.85 173.108 339.462C173.78 340.074 174.116 341.028 174.116 342.324C174.116 344.244 173.354 345.45 171.83 345.942L174.224 351H172.694L170.444 346.23H166.916ZM170.156 345.006C171.848 345.006 172.694 344.136 172.694 342.396C172.694 340.644 171.842 339.768 170.138 339.768H166.916V345.006H170.156ZM176.388 351V342H177.738V351H176.388ZM176.388 339.966V338.4H177.738V339.966H176.388ZM183.691 341.82C184.087 341.82 184.759 341.892 185.707 342.036L186.139 342.09L186.085 343.188C185.125 343.08 184.417 343.026 183.961 343.026C182.941 343.026 182.245 343.272 181.873 343.764C181.513 344.244 181.333 345.144 181.333 346.464C181.333 347.772 181.501 348.684 181.837 349.2C182.185 349.716 182.899 349.974 183.979 349.974L186.103 349.812L186.157 350.928C185.041 351.096 184.207 351.18 183.655 351.18C182.251 351.18 181.279 350.82 180.739 350.1C180.211 349.38 179.947 348.168 179.947 346.464C179.947 344.748 180.235 343.548 180.811 342.864C181.387 342.168 182.347 341.82 183.691 341.82ZM189.515 351H188.165V338.076H189.515V342.504C190.475 342.048 191.399 341.82 192.287 341.82C193.487 341.82 194.291 342.144 194.699 342.792C195.119 343.44 195.329 344.592 195.329 346.248V351H193.979V346.284C193.979 345.036 193.853 344.184 193.601 343.728C193.361 343.26 192.845 343.026 192.053 343.026C191.297 343.026 190.565 343.164 189.857 343.44L189.515 343.566V351ZM197.833 351V342H199.183V351H197.833ZM197.833 339.966V338.4H199.183V339.966H197.833ZM207.891 349.884L208.413 349.83L208.449 350.892C207.081 351.084 205.911 351.18 204.939 351.18C203.643 351.18 202.725 350.808 202.185 350.064C201.645 349.308 201.375 348.138 201.375 346.554C201.375 343.398 202.629 341.82 205.137 341.82C206.349 341.82 207.255 342.162 207.855 342.846C208.455 343.518 208.755 344.58 208.755 346.032L208.683 347.058H202.743C202.743 348.054 202.923 348.792 203.283 349.272C203.643 349.752 204.267 349.992 205.155 349.992C206.055 349.992 206.967 349.956 207.891 349.884ZM207.405 345.978C207.405 344.874 207.225 344.094 206.865 343.638C206.517 343.182 205.941 342.954 205.137 342.954C204.345 342.954 203.745 343.194 203.337 343.674C202.941 344.154 202.737 344.922 202.725 345.978H207.405ZM213.685 343.026C212.377 343.026 211.723 343.482 211.723 344.394C211.723 344.814 211.873 345.114 212.173 345.294C212.473 345.462 213.157 345.642 214.225 345.834C215.293 346.014 216.049 346.272 216.493 346.608C216.937 346.944 217.159 347.574 217.159 348.498C217.159 349.422 216.859 350.1 216.259 350.532C215.671 350.964 214.807 351.18 213.667 351.18C212.923 351.18 212.047 351.096 211.039 350.928L210.499 350.838L210.571 349.668C211.939 349.872 212.971 349.974 213.667 349.974C214.363 349.974 214.891 349.866 215.251 349.65C215.623 349.422 215.809 349.05 215.809 348.534C215.809 348.006 215.653 347.652 215.341 347.472C215.029 347.28 214.345 347.1 213.289 346.932C212.233 346.764 211.483 346.518 211.039 346.194C210.595 345.87 210.373 345.27 210.373 344.394C210.373 343.518 210.679 342.87 211.291 342.45C211.915 342.03 212.689 341.82 213.613 341.82C214.345 341.82 215.263 341.904 216.367 342.072L216.871 342.162L216.835 343.314C215.503 343.122 214.453 343.026 213.685 343.026ZM223.888 343.17H221.026V347.472C221.026 348.504 221.098 349.182 221.242 349.506C221.398 349.83 221.758 349.992 222.322 349.992L223.924 349.884L224.014 351C223.21 351.132 222.598 351.198 222.178 351.198C221.242 351.198 220.594 350.97 220.234 350.514C219.874 350.058 219.694 349.188 219.694 347.904V343.17H218.416V342H219.694V339.246H221.026V342H223.888V343.17ZM231.89 344.718V349.326C231.926 349.77 232.274 350.034 232.934 350.118L232.88 351.18C231.932 351.18 231.218 350.94 230.738 350.46C229.658 350.94 228.578 351.18 227.498 351.18C226.67 351.18 226.04 350.946 225.608 350.478C225.176 350.01 224.96 349.338 224.96 348.462C224.96 347.586 225.182 346.944 225.626 346.536C226.07 346.116 226.766 345.858 227.714 345.762L230.54 345.492V344.718C230.54 344.106 230.408 343.668 230.144 343.404C229.88 343.14 229.52 343.008 229.064 343.008C228.104 343.008 227.108 343.068 226.076 343.188L225.518 343.242L225.464 342.216C226.784 341.952 227.954 341.82 228.974 341.82C229.994 341.82 230.732 342.054 231.188 342.522C231.656 342.99 231.89 343.722 231.89 344.718ZM226.346 348.39C226.346 349.494 226.802 350.046 227.714 350.046C228.53 350.046 229.334 349.908 230.126 349.632L230.54 349.488V346.518L227.876 346.77C227.336 346.818 226.946 346.974 226.706 347.238C226.466 347.502 226.346 347.886 226.346 348.39ZM245.421 338.076V351H244.089V350.388C243.165 350.916 242.253 351.18 241.353 351.18C240.873 351.18 240.453 351.12 240.093 351C239.733 350.88 239.397 350.664 239.085 350.352C238.437 349.704 238.113 348.51 238.113 346.77C238.113 345.018 238.401 343.758 238.977 342.99C239.565 342.21 240.531 341.82 241.875 341.82C242.571 341.82 243.309 341.898 244.089 342.054V338.076H245.421ZM240.129 349.38C240.321 349.608 240.525 349.764 240.741 349.848C240.957 349.932 241.233 349.974 241.569 349.974C241.917 349.974 242.301 349.92 242.721 349.812C243.153 349.692 243.489 349.578 243.729 349.47L244.089 349.308V343.206C243.321 343.062 242.607 342.99 241.947 342.99C241.035 342.99 240.399 343.284 240.039 343.872C239.679 344.448 239.499 345.348 239.499 346.572C239.499 347.964 239.709 348.9 240.129 349.38ZM248.036 351V342H249.386V351H248.036ZM248.036 339.966V338.4H249.386V339.966H248.036ZM257.657 343.17V351H256.307V343.17H255.173V342H256.307V341.19C256.307 339.918 256.487 339.054 256.847 338.598C257.207 338.13 257.837 337.896 258.737 337.896L260.555 338.022L260.537 339.138C259.865 339.114 259.307 339.102 258.863 339.102C258.431 339.102 258.119 339.246 257.927 339.534C257.747 339.822 257.657 340.38 257.657 341.208V342H260.267V343.17H257.657ZM261.888 351V342H263.22V343.224C264.264 342.504 265.362 342.03 266.514 341.802V343.17C266.01 343.266 265.482 343.416 264.93 343.62C264.39 343.824 263.976 344.004 263.688 344.16L263.238 344.394V351H261.888ZM273.726 342H275.076V351H273.726V350.37C272.826 350.91 271.938 351.18 271.062 351.18C269.838 351.18 269.022 350.862 268.614 350.226C268.218 349.59 268.02 348.414 268.02 346.698V342H269.37V346.68C269.37 347.988 269.484 348.864 269.712 349.308C269.94 349.752 270.456 349.974 271.26 349.974C271.656 349.974 272.058 349.92 272.466 349.812C272.874 349.692 273.186 349.578 273.402 349.47L273.726 349.308V342ZM277.673 351V342H279.023V351H277.673ZM277.673 339.966V338.4H279.023V339.966H277.673ZM281.07 343.206V342H287.748V343.206L282.708 349.794H287.748V351H281.07V349.794L286.11 343.206H281.07ZM289.802 351V342H291.152V351H289.802ZM289.802 339.966V338.4H291.152V339.966H289.802ZM293.343 346.482C293.343 344.838 293.637 343.65 294.225 342.918C294.813 342.186 295.803 341.82 297.195 341.82C298.599 341.82 299.589 342.186 300.165 342.918C300.753 343.65 301.047 344.838 301.047 346.482C301.047 348.126 300.771 349.32 300.219 350.064C299.667 350.808 298.659 351.18 297.195 351.18C295.731 351.18 294.723 350.808 294.171 350.064C293.619 349.32 293.343 348.126 293.343 346.482ZM294.729 346.464C294.729 347.772 294.885 348.69 295.197 349.218C295.521 349.746 296.187 350.01 297.195 350.01C298.215 350.01 298.881 349.752 299.193 349.236C299.505 348.708 299.661 347.784 299.661 346.464C299.661 345.144 299.487 344.238 299.139 343.746C298.791 343.242 298.143 342.99 297.195 342.99C296.259 342.99 295.611 343.242 295.251 343.746C294.903 344.238 294.729 345.144 294.729 346.464ZM304.599 351H303.249V342H304.581V342.63C305.553 342.09 306.483 341.82 307.371 341.82C308.571 341.82 309.375 342.144 309.783 342.792C310.203 343.44 310.413 344.592 310.413 346.248V351H309.081V346.284C309.081 345.036 308.955 344.184 308.703 343.728C308.463 343.26 307.941 343.026 307.137 343.026C306.753 343.026 306.345 343.086 305.913 343.206C305.493 343.314 305.169 343.422 304.941 343.53L304.599 343.692V351ZM319.037 349.884L319.559 349.83L319.595 350.892C318.227 351.084 317.057 351.18 316.085 351.18C314.789 351.18 313.871 350.808 313.331 350.064C312.791 349.308 312.521 348.138 312.521 346.554C312.521 343.398 313.775 341.82 316.283 341.82C317.495 341.82 318.401 342.162 319.001 342.846C319.601 343.518 319.901 344.58 319.901 346.032L319.829 347.058H313.889C313.889 348.054 314.069 348.792 314.429 349.272C314.789 349.752 315.413 349.992 316.301 349.992C317.201 349.992 318.113 349.956 319.037 349.884ZM318.551 345.978C318.551 344.874 318.371 344.094 318.011 343.638C317.663 343.182 317.087 342.954 316.283 342.954C315.491 342.954 314.891 343.194 314.483 343.674C314.087 344.154 313.883 344.922 313.871 345.978H318.551Z" fill="#17324D"/>
<path d="M123 243V243.5H123.5V243H123ZM123 140V139.5H122.5V140H123ZM158 140L153 137.113V142.887L158 140ZM98 243.5H123V242.5H98V243.5ZM123.5 243V140H122.5V243H123.5ZM123 140.5H153.5V139.5H123V140.5Z" fill="#A2ADB8"/>
<path d="M593 130V130.5H593.5V130H593ZM593 103V102.5H592.5V103H593ZM628 103L623 100.113V105.887L628 103ZM568 130.5H593V129.5H568V130.5ZM593.5 130V103H592.5V130H593.5ZM593 103.5H623.5V102.5H593V103.5Z" fill="#A2ADB8"/>
<path d="M593 242V242.5H593.5V242H593ZM593 215V214.5H592.5V215H593ZM628 215L623 212.113V217.887L628 215ZM568 242.5H593V241.5H568V242.5ZM593.5 242V215H592.5V242H593.5ZM593 215.5H623.5V214.5H593V215.5Z" fill="#A2ADB8"/>
<path d="M593 355V355.5H593.5V355H593ZM593 328V327.5H592.5V328H593ZM628 328L623 325.113V330.887L628 328ZM568 355.5H593V354.5H568V355.5ZM593.5 355V328H592.5V355H593.5ZM593 328.5H623.5V327.5H593V328.5Z" fill="#A2ADB8"/>
<path d="M593 130V129.5H593.5V130H593ZM593 157V157.5H592.5V157H593ZM628 157L623 159.887V154.113L628 157ZM568 129.5H593V130.5H568V129.5ZM593.5 130V157H592.5V130H593.5ZM593 156.5H623.5V157.5H593V156.5Z" fill="#A2ADB8"/>
<path d="M593 242V241.5H593.5V242H593ZM593 269V269.5H592.5V269H593ZM628 269L623 271.887V266.113L628 269ZM568 241.5H593V242.5H568V241.5ZM593.5 242V269H592.5V242H593.5ZM593 268.5H623.5V269.5H593V268.5Z" fill="#A2ADB8"/>
<path d="M593 355V354.5H593.5V355H593ZM593 382V382.5H592.5V382H593ZM628 382L623 384.887V379.113L628 382ZM568 354.5H593V355.5H568V354.5ZM593.5 355V382H592.5V355H593.5ZM593 381.5H623.5V382.5H593V381.5Z" fill="#A2ADB8"/>
<path d="M476 203V203.5H476.5V203H476ZM476 132V131.5H475.5V132H476ZM513 132L508 129.113V134.887L513 132ZM453 203.5H476V202.5H453V203.5ZM476.5 203V132H475.5V203H476.5ZM476 132.5H508.5V131.5H476V132.5Z" fill="#A2ADB8"/>
<path d="M471 76V75.5H471.5V76H471ZM471 244V244.5H470.5V244H471ZM513 244L508 246.887V241.113L513 244ZM453 75.5H471V76.5H453V75.5ZM471.5 76V244H470.5V76H471.5ZM471 243.5H508.5V244.5H471V243.5Z" fill="#A2ADB8"/>
<path d="M471 278V277.5H471.5V278H471ZM471 352V352.5H470.5V352H471ZM513 352L508 354.887V349.113L513 352ZM453 277.5H471V278.5H453V277.5ZM471.5 278V352H470.5V278H471.5ZM471 351.5H508.5V352.5H471V351.5Z" fill="#A2ADB8"/>
<path d="M476 209V208.5H476.5V209H476ZM476 239V239.5H475.5V239H476ZM513 239L508 241.887V236.113L513 239ZM453 208.5H476V209.5H453V208.5ZM476.5 209V239H475.5V209H476.5ZM476 238.5H508.5V239.5H476V238.5Z" fill="#A2ADB8"/>
<path d="M471 415V415.5H471.5V415H471ZM471 357V356.5H470.5V357H471ZM513 357L508 354.113V359.887L513 357ZM453 415.5H471V414.5H453V415.5ZM471.5 415V357H470.5V415H471.5ZM471 357.5H508.5V356.5H471V357.5Z" fill="#A2ADB8"/>
<path d="M466 410V410.5H466.5V410H466ZM466 127V126.5H465.5V127H466ZM513 127L508 124.113V129.887L513 127ZM453 410.5H466V409.5H453V410.5ZM466.5 410V127H465.5V410H466.5ZM466 127.5H508.5V126.5H466V127.5Z" fill="#A2ADB8"/>
<path d="M351 142V142.5H351.5V142H351ZM351 75V74.5H350.5V75H351ZM386 75L381 72.1132V77.8868L386 75ZM326 142.5H351V141.5H326V142.5ZM351.5 142V75H350.5V142H351.5ZM351 75.5H381.5V74.5H351V75.5Z" fill="#A2ADB8"/>
<path d="M351 142V141.5H351.5V142H351ZM351 209V209.5H350.5V209H351ZM386 209L381 211.887V206.113L386 209ZM326 141.5H351V142.5H326V141.5ZM351.5 142V209H350.5V142H351.5ZM351 208.5H381.5V209.5H351V208.5Z" fill="#A2ADB8"/>
<path d="M351 345V345.5H351.5V345H351ZM351 278V277.5H350.5V278H351ZM386 278L381 275.113V280.887L386 278ZM326 345.5H351V344.5H326V345.5ZM351.5 345V278H350.5V345H351.5ZM351 278.5H381.5V277.5H351V278.5Z" fill="#A2ADB8"/>
<path d="M351 345V344.5H351.5V345H351ZM351 412V412.5H350.5V412H351ZM386 412L381 414.887V409.113L386 412ZM326 344.5H351V345.5H326V344.5ZM351.5 345V412H350.5V345H351.5ZM351 411.5H381.5V412.5H351V411.5Z" fill="#A2ADB8"/>
<path d="M123 243V242.5H123.5V243H123ZM123 346V346.5H122.5V346H123ZM158 346L153 348.887V343.113L158 346ZM98 242.5H123V243.5H98V242.5ZM123.5 243V346H122.5V243H123.5ZM123 345.5H153.5V346.5H123V345.5Z" fill="#A2ADB8"/>
<g filter="url(#filter0_d_1275_63125)">
<circle cx="123" cy="243" r="14.5" fill="white" stroke="#17324D"/>
<path d="M124.966 238.12V250H123.58V239.668L120.52 241.684L119.89 240.64L123.67 238.12H124.966Z" fill="#17324D"/>
</g>
<g filter="url(#filter1_d_1275_63125)">
<circle cx="350" cy="346" r="14.5" fill="white" stroke="#17324D"/>
<path d="M353.802 353H346.206V351.83L349.68 348.176C350.28 347.552 350.718 347.078 350.994 346.754C351.27 346.43 351.516 346.046 351.732 345.602C351.96 345.158 352.074 344.714 352.074 344.27C352.074 343.502 351.864 342.962 351.444 342.65C351.024 342.338 350.37 342.182 349.482 342.182C348.702 342.182 347.832 342.284 346.872 342.488L346.404 342.578L346.296 341.426C347.436 341.102 348.612 340.94 349.824 340.94C351.036 340.94 351.948 341.198 352.56 341.714C353.184 342.218 353.496 343.022 353.496 344.126C353.496 344.966 353.31 345.698 352.938 346.322C352.566 346.946 351.924 347.696 351.012 348.572L347.844 351.794H353.802V353Z" fill="#17324D"/>
</g>
<g filter="url(#filter2_d_1275_63125)">
<circle cx="467" cy="411" r="14.5" fill="white" stroke="#17324D"/>
<path d="M463.26 406.426C464.388 406.09 465.594 405.922 466.878 405.922C468.174 405.922 469.11 406.168 469.686 406.66C470.262 407.152 470.55 407.938 470.55 409.018C470.55 409.57 470.472 409.972 470.316 410.224C470.172 410.464 470.052 410.65 469.956 410.782C469.872 410.914 469.758 411.04 469.614 411.16C469.35 411.364 469.14 411.508 468.984 411.592L468.786 411.718C469.482 411.97 469.998 412.294 470.334 412.69C470.67 413.074 470.838 413.71 470.838 414.598C470.838 415.81 470.526 416.71 469.902 417.298C469.29 417.886 468.318 418.18 466.986 418.18C465.93 418.18 464.814 418.06 463.638 417.82L463.08 417.694L463.206 416.56C464.502 416.824 465.714 416.956 466.842 416.956C468.558 416.944 469.416 416.176 469.416 414.652C469.416 413.224 468.6 412.48 466.968 412.42H464.574V411.232H466.968C467.472 411.232 467.958 411.034 468.426 410.638C468.894 410.23 469.128 409.696 469.128 409.036C469.128 408.376 468.942 407.902 468.57 407.614C468.198 407.314 467.574 407.164 466.698 407.164C465.738 407.164 464.79 407.254 463.854 407.434L463.386 407.524L463.26 406.426Z" fill="#17324D"/>
</g>
<line x1="243.5" y1="158" x2="243.5" y2="326" stroke="#A2ADB8" stroke-dasharray="2 2"/>
</g>
<defs>
<filter id="filter0_d_1275_63125" x="104" y="228" width="38" height="38" filterUnits="userSpaceOnUse" color-interpolation-filters="sRGB">
<feFlood flood-opacity="0" result="BackgroundImageFix"/>
<feColorMatrix in="SourceAlpha" type="matrix" values="0 0 0 0 0 0 0 0 0 0 0 0 0 0 0 0 0 0 127 0" result="hardAlpha"/>
<feOffset dy="4"/>
<feGaussianBlur stdDeviation="2"/>
<feComposite in2="hardAlpha" operator="out"/>
<feColorMatrix type="matrix" values="0 0 0 0 0 0 0 0 0 0 0 0 0 0 0 0 0 0 0.25 0"/>
<feBlend mode="normal" in2="BackgroundImageFix" result="effect1_dropShadow_1275_63125"/>
<feBlend mode="normal" in="SourceGraphic" in2="effect1_dropShadow_1275_63125" result="shape"/>
</filter>
<filter id="filter1_d_1275_63125" x="331" y="331" width="38" height="38" filterUnits="userSpaceOnUse" color-interpolation-filters="sRGB">
<feFlood flood-opacity="0" result="BackgroundImageFix"/>
<feColorMatrix in="SourceAlpha" type="matrix" values="0 0 0 0 0 0 0 0 0 0 0 0 0 0 0 0 0 0 127 0" result="hardAlpha"/>
<feOffset dy="4"/>
<feGaussianBlur stdDeviation="2"/>
<feComposite in2="hardAlpha" operator="out"/>
<feColorMatrix type="matrix" values="0 0 0 0 0 0 0 0 0 0 0 0 0 0 0 0 0 0 0.25 0"/>
<feBlend mode="normal" in2="BackgroundImageFix" result="effect1_dropShadow_1275_63125"/>
<feBlend mode="normal" in="SourceGraphic" in2="effect1_dropShadow_1275_63125" result="shape"/>
</filter>
<filter id="filter2_d_1275_63125" x="448" y="396" width="38" height="38" filterUnits="userSpaceOnUse" color-interpolation-filters="sRGB">
<feFlood flood-opacity="0" result="BackgroundImageFix"/>
<feColorMatrix in="SourceAlpha" type="matrix" values="0 0 0 0 0 0 0 0 0 0 0 0 0 0 0 0 0 0 127 0" result="hardAlpha"/>
<feOffset dy="4"/>
<feGaussianBlur stdDeviation="2"/>
<feComposite in2="hardAlpha" operator="out"/>
<feColorMatrix type="matrix" values="0 0 0 0 0 0 0 0 0 0 0 0 0 0 0 0 0 0 0.25 0"/>
<feBlend mode="normal" in2="BackgroundImageFix" result="effect1_dropShadow_1275_63125"/>
<feBlend mode="normal" in="SourceGraphic" in2="effect1_dropShadow_1275_63125" result="shape"/>
</filter>
<clipPath id="clip0_1275_63125">
<rect width="768" height="440" fill="white"/>
</clipPath>
</defs>
</svg>
