<?xml version="1.0" encoding="UTF-8"?>
<svg width="1024px" height="1024px" viewBox="0 0 1024 1024" version="1.1" xmlns="http://www.w3.org/2000/svg" xmlns:xlink="http://www.w3.org/1999/xlink">
    <title>Artboard</title>
    <g id="Artboard" stroke="none" stroke-width="1" fill="none" fill-rule="evenodd">
        <g id="pagopa-icon" transform="translate(22.000000, 153.000000)" fill="#00B2C2" fill-rule="nonzero">
            <path d="M533.555222,0 L533.555222,121.578768 L537.222181,118.372483 C584.194291,77.9130292 645.785835,53.3801908 713.222388,53.3801908 C860.559929,53.3801908 980,170.486192 980,314.943402 C980,459.400152 860.559929,576.507075 713.222388,576.507075 C644.018043,576.507075 580.965246,550.670668 533.557527,508.29721 L533.555222,577.674965 C533.555222,644.293089 506.37916,706.905373 458.685644,754.540096 L455.159279,758 L394.176205,696.887315 C426.579585,665.67677 445.218616,625.166869 446.387156,582.000997 L446.444777,577.674965 L446.447082,509.326889 C399.037058,551.785577 335.984261,577.674965 266.777611,577.674965 C119.442376,577.674965 0,460.333082 0,315.581481 C0,170.831952 119.442376,53.4884568 266.777611,53.4884568 C335.984261,53.4884568 399.037058,79.3780751 446.447082,121.836994 L446.444777,0 L533.555222,0 Z M266.777611,139.070172 C167.550759,139.070172 87.1127501,218.097419 87.1127501,315.581481 C87.1127501,413.066924 167.550759,492.094171 266.777611,492.094171 C366.004463,492.094171 446.444777,413.066924 446.444777,315.581481 C446.444777,218.097419 366.004463,139.070172 266.777611,139.070172 Z M713.222388,138.78868 C613.995536,138.78868 533.557527,217.655832 533.557527,314.943402 C533.557527,412.230742 613.995536,491.099046 713.222388,491.099046 C812.449241,491.099046 892.889555,412.230742 892.889555,314.943402 C892.889555,217.655832 812.449241,138.78868 713.222388,138.78868 Z" id="Combined-Shape"></path>
        </g>
    </g>
</svg>