<svg width="167" height="173" viewBox="0 0 167 173" fill="none" xmlns="http://www.w3.org/2000/svg">
<path fill-rule="evenodd" clip-rule="evenodd" d="M86.8301 159.417C46.7894 159.417 14.3301 126.957 14.3301 86.9167C14.3301 46.876 46.7894 14.4167 86.8301 14.4167C106.058 14.4167 124.499 22.055 138.095 35.6514C151.692 49.2478 159.33 67.6885 159.33 86.9167C159.33 126.957 126.871 159.417 86.8301 159.417ZM123.803 57.1918L128.878 62.2668L72.3279 117.367L38.2529 84.0168L43.3279 78.9418L72.3279 107.217L123.803 57.1918ZM86.8301 21.6667C122.867 21.6667 152.08 50.8801 152.08 86.9167C152.08 122.953 122.867 152.167 86.8301 152.167C50.7935 152.167 21.5801 122.953 21.5801 86.9167C21.5801 50.8801 50.7935 21.6667 86.8301 21.6667Z" fill="#00C5CA"/>
</svg>
