<svg width="157" height="114" viewBox="0 0 157 114" fill="none" xmlns="http://www.w3.org/2000/svg">
<path fill-rule="evenodd" clip-rule="evenodd" d="M144.888 0H12.0155C5.54046 0 0.291443 5.46852 0.291443 12.2143V101.786C0.291443 108.531 5.54046 114 12.0155 114H144.888C151.363 114 156.612 108.531 156.612 101.786V12.2143C156.612 5.46852 151.363 0 144.888 0ZM142.543 8.14258L87.0492 66.7711C82.2266 71.5277 74.6765 71.5277 69.8539 66.7711L14.3603 8.14258H142.543ZM8.10745 13.0298V100.158L49.5323 57.0012L8.10745 13.0298ZM13.5786 105.858L55.0035 62.7012L64.3827 72.4726C72.3935 79.9373 84.5095 79.9373 92.5203 72.4726L101.9 62.7012L143.324 105.858H13.5786ZM148.796 13.0298L107.371 57.0012L148.796 100.158V13.0298Z" fill="#00C5CA"/>
</svg>
