<svg width="120" height="120" viewBox="0 0 120 120" fill="none" xmlns="http://www.w3.org/2000/svg">
<path fill-rule="evenodd" clip-rule="evenodd" d="M15.1652 31.3626C15.1743 31.3295 15.1834 31.2966 15.1967 31.264C15.2877 31.0515 15.4133 30.8559 15.5682 30.6832L43.4253 0.683245C43.4337 0.672782 43.4567 0.658133 43.4567 0.658133C43.5006 0.61942 43.5456 0.583845 43.5917 0.550363C43.7371 0.419573 43.9003 0.30971 44.0761 0.224958C44.1462 0.193569 44.2174 0.166364 44.2906 0.143345C44.4789 0.0753348 44.6756 0.0355746 44.8755 0.0261579C44.8958 0.0251684 44.9147 0.0192658 44.9337 0.0133178L44.9337 0.0133168C44.9549 0.00668644 44.9763 0 45 0H102.857C104.041 0 105 0.959473 105 2.14286V117.857C105 119.041 104.041 120 102.857 120H17.1429C15.9595 120 15 119.041 15 117.857V32.1429C15 32.1211 15.0062 32.101 15.0123 32.0812C15.0182 32.0618 15.0241 32.0427 15.0241 32.0225C15.0356 31.8227 15.0764 31.6249 15.1433 31.4355C15.1518 31.4112 15.1585 31.3869 15.1652 31.3626ZM42.8571 30V7.60045L22.0564 30H42.8571ZM19.2857 34.2857H45C46.1834 34.2857 47.1429 33.3262 47.1429 32.1429V4.28571H100.714V115.714H19.2857V34.2857ZM51.0833 54.669C50.9797 54.8511 50.8479 55.0164 50.6941 55.1597C50.6808 55.1715 50.6715 55.1858 50.6622 55.2C50.6517 55.2161 50.6411 55.2322 50.625 55.2445L39.9107 63.8159C38.9868 64.5557 37.6371 64.406 36.8984 63.4821C36.1586 62.5582 36.3082 61.2085 37.2321 60.4698L43.1763 55.7143H36.4286C35.2452 55.7143 34.2857 54.7548 34.2857 53.5714C34.2857 52.388 35.2452 51.4286 36.4286 51.4286H43.1763L37.2321 46.671C36.3082 45.9323 36.1586 44.5825 36.8984 43.6586C37.6371 42.7347 38.9868 42.5851 39.9107 43.3238L50.625 51.8952C50.641 51.9079 50.6514 51.924 50.6619 51.9401C50.6713 51.9546 50.6807 51.9691 50.6941 51.981C50.8479 52.1254 50.9797 52.2907 51.0833 52.4738C51.1367 52.5419 51.1848 52.614 51.2266 52.6883C51.4955 53.246 51.4955 53.8968 51.2266 54.4545C51.1837 54.5288 51.1356 54.6 51.0833 54.669ZM83.5714 51.4286H76.8237L82.7679 46.6731C83.6918 45.9344 83.8414 44.5846 83.1016 43.6607C82.3629 42.7368 81.0132 42.5872 80.0893 43.3269L69.375 51.8984C69.3589 51.9106 69.3484 51.9267 69.3378 51.9428L69.3378 51.9429C69.3285 51.9571 69.3192 51.9714 69.3059 51.9831C69.1521 52.1265 69.0203 52.2918 68.9167 52.4738C68.8644 52.5429 68.8163 52.614 68.7734 52.6883C68.5045 53.246 68.5045 53.8968 68.7734 54.4545C68.8163 54.5288 68.8644 54.6 68.9167 54.669C69.0203 54.8511 69.1521 55.0164 69.3059 55.1597C69.3192 55.1715 69.3285 55.1858 69.3378 55.2C69.3483 55.2161 69.3589 55.2322 69.375 55.2445L80.0893 63.8159C81.0132 64.5557 82.3629 64.406 83.1016 63.4821C83.8414 62.5582 83.6918 61.2085 82.7679 60.4698L76.8237 55.7143H83.5714C84.7548 55.7143 85.7143 54.7548 85.7143 53.5714C85.7143 52.388 84.7548 51.4286 83.5714 51.4286ZM42.1174 82.7679C45.0481 75.4677 52.1338 70.6913 60 70.7143C67.8662 70.6913 74.9519 75.4677 77.8826 82.7679C78.1756 83.4783 78.0647 84.2923 77.5938 84.8992C77.1219 85.5071 76.3602 85.8147 75.5995 85.7059C74.8378 85.5981 74.1933 85.0896 73.9097 84.375C71.6193 78.704 66.1157 74.9906 60 74.9906C53.8843 74.9906 48.3806 78.704 46.0903 84.375C45.6414 85.4642 44.3984 85.9863 43.306 85.5448C42.2147 85.1032 41.6832 83.8623 42.1174 82.7679Z" fill="#00C5CA"/>
</svg>
