<svg width="25" height="24" viewBox="0 0 25 24" fill="none" xmlns="http://www.w3.org/2000/svg">
<path d="M12.4996 0C5.88314 0 0.5 5.38343 0.5 11.9998C0.5 18.6166 5.88314 24 12.4996 24C19.1165 24 24.5 18.6166 24.5 11.9998C24.5 5.38343 19.1165 0 12.4996 0Z" fill="white"/>
<path d="M9.63824 11.8445C8.87925 11.0745 8.5 10.1182 8.5 8.97879C8.5 7.83712 8.87926 6.88772 9.63349 6.13199C10.3872 5.37856 11.3482 5 12.5283 5C13.7036 5 14.6603 5.38363 15.395 6.16104C16.1312 6.93798 16.5 7.88922 16.5 9.02859C16.5 10.1647 16.1312 11.1086 15.395 11.8662C14.6603 12.621 13.7093 13 12.5378 13C11.3663 13 10.4001 12.6154 9.63824 11.8445Z" fill="#0073E6" stroke="#0073E6" stroke-width="0.3"/>
<path d="M8.5 19C8.5 17.852 8.87553 16.8983 9.61906 16.1415C10.3687 15.381 11.3207 15 12.4929 15C13.6553 15 14.6045 15.3856 15.3273 16.166C16.0562 16.9479 16.5 17.8558 16.5 19H8.5Z" fill="#0073E6" stroke="#0073E6" stroke-width="0.3"/>
</svg>
