<svg width="80" height="22" viewBox="0 0 80 22" fill="none" xmlns="http://www.w3.org/2000/svg">
<path opacity="0.4" fill-rule="evenodd" clip-rule="evenodd" d="M76.2253 16.7324H78.7042V1.54929H76.2253L76.2253 3.529C74.8763 2.29918 73.082 1.54929 71.1127 1.54929C68.4553 1.54929 66.1168 2.91474 64.7608 4.98232C65.5435 6.17548 65.9991 7.60247 66.0001 9.1358C66.0001 9.13748 66.0001 9.13916 66.0001 9.14083C66.0001 9.14251 66.0001 9.14419 66.0001 9.14587C65.9991 10.6792 65.5435 12.1062 64.7605 13.2993C66.1168 15.3669 68.4553 16.7324 71.1127 16.7324C73.082 16.7324 74.8763 15.9825 76.2253 14.7527L76.2253 16.7324ZM66.0001 9.14587C66.0001 9.14419 66.0001 9.14251 66.0001 9.14084C66.0001 9.13916 66.0001 9.13748 66.0001 9.1358C66.0028 6.31446 68.2908 4.02816 71.1127 4.02816C73.9363 4.02816 76.2253 6.31718 76.2253 9.14083C76.2253 11.9645 73.9363 14.2535 71.1127 14.2535C68.2908 14.2535 66.0028 11.9672 66.0001 9.14587Z" fill="white"/>
<path opacity="0.4" fill-rule="evenodd" clip-rule="evenodd" d="M2.47882 3.529L2.47884 1.54929H0V21.0704H2.47884L2.47882 14.7527C3.82791 15.9825 5.62211 16.7324 7.59146 16.7324C10.2489 16.7324 12.5874 15.3669 13.9433 13.2993C13.1598 12.1049 12.7041 10.6761 12.7041 9.14084C12.7041 7.60559 13.1598 6.17679 13.9437 4.98232C12.5874 2.91474 10.2489 1.54929 7.59146 1.54929C5.62211 1.54929 3.82791 2.29918 2.47882 3.529ZM2.47884 9.14083C2.47884 6.31718 4.76784 4.02816 7.59146 4.02816C10.4151 4.02816 12.7041 6.31718 12.7041 9.14083C12.7041 11.9645 10.4151 14.2535 7.59146 14.2535C4.76784 14.2535 2.47884 11.9645 2.47884 9.14083Z" fill="white"/>
<path opacity="0.7" fill-rule="evenodd" clip-rule="evenodd" d="M27.8872 3.53615V1.54929H25.4083L25.4084 3.529C24.0593 2.29918 22.2651 1.54929 20.2958 1.54929C16.1031 1.54929 12.7043 4.94814 12.7043 9.14084C12.7043 13.3335 16.1031 16.7324 20.2958 16.7324C22.2651 16.7324 24.0593 15.9825 25.4084 14.7527L25.4083 16.7324H27.8872V14.7826C26.3641 13.3914 25.4083 11.3872 25.4083 9.15938C25.4083 6.93153 26.3641 4.92738 27.8872 3.53615ZM15.1832 9.14083C15.1832 6.31718 17.4722 4.02816 20.2958 4.02816C23.1194 4.02816 25.4083 6.31718 25.4083 9.14083C25.4083 11.9645 23.1194 14.2535 20.2958 14.2535C17.4722 14.2535 15.1832 11.9645 15.1832 9.14083Z" fill="white"/>
<path opacity="0.7" fill-rule="evenodd" clip-rule="evenodd" d="M53.2961 3.52872L53.2958 1.54929H50.8169V3.52899C52.34 4.9174 53.2958 6.9175 53.2958 9.14084C53.2958 11.3642 52.34 13.3643 50.8169 14.7527V21.0704H53.2958L53.2961 14.753C54.6451 15.9826 56.4392 16.7324 58.4084 16.7324C62.6011 16.7324 66 13.3335 66 9.14084C66 4.94814 62.6011 1.54929 58.4084 1.54929C56.4392 1.54929 54.6451 2.29907 53.2961 3.52872ZM53.2958 9.14083C53.2958 6.31718 55.5848 4.02816 58.4084 4.02816C61.2321 4.02816 63.5211 6.31718 63.5211 9.14083C63.5211 11.9645 61.2321 14.2535 58.4084 14.2535C55.5848 14.2535 53.2958 11.9645 53.2958 9.14083Z" fill="white"/>
<path fill-rule="evenodd" clip-rule="evenodd" d="M40.5915 0V3.52868L40.6959 3.43561C42.0325 2.26133 43.7852 1.5493 45.7042 1.5493C49.8969 1.5493 53.2958 4.94815 53.2958 9.14085C53.2958 13.3335 49.8969 16.7324 45.7042 16.7324C43.7349 16.7324 41.9407 15.9825 40.5916 14.7527L40.5915 16.7663C40.5915 18.6998 39.8182 20.5171 38.461 21.8996L38.3607 22L36.6253 20.2263C37.5474 19.3204 38.0778 18.1447 38.111 16.8919L38.1127 16.7663L38.1127 14.7826C36.7636 16.0149 34.9694 16.7663 33 16.7663C28.8073 16.7663 25.4084 13.3606 25.4084 9.15939C25.4084 4.95818 28.8073 1.55244 33 1.55244C34.9694 1.55244 36.7636 2.30385 38.1127 3.53617L38.1127 0H40.5915ZM33 4.03634C30.1763 4.03634 27.8873 6.33001 27.8873 9.15939C27.8873 11.9888 30.1763 14.2824 33 14.2824C35.8237 14.2824 38.1127 11.9888 38.1127 9.15939C38.1127 6.33001 35.8237 4.03634 33 4.03634ZM40.5916 9.14085C40.5916 6.31719 42.8806 4.02817 45.7042 4.02817C48.5279 4.02817 50.8169 6.31719 50.8169 9.14085C50.8169 11.9645 48.5279 14.2535 45.7042 14.2535C42.8806 14.2535 40.5916 11.9645 40.5916 9.14085Z" fill="white"/>
</svg>
