<svg width="118" height="34" viewBox="0 0 118 34" fill="none" xmlns="http://www.w3.org/2000/svg">
<path opacity="0.3" fill-rule="evenodd" clip-rule="evenodd" d="M97.0002 7.70012C99.0429 4.56828 102.565 2.5 106.567 2.5C109.533 2.5 112.235 3.63596 114.267 5.49892V2.5H118V14V25.5H114.267V22.5011C112.235 24.364 109.533 25.5 106.567 25.5C102.565 25.5 99.0429 23.4317 97.0002 20.2999C98.1805 18.4904 98.8669 16.3258 98.8669 14C98.8669 11.6742 98.1805 9.50963 97.0002 7.70012ZM106.567 21.7449C110.817 21.7449 114.264 18.2804 114.267 14.0055L114.267 14L114.267 13.9945C114.264 9.71963 110.817 6.2551 106.567 6.2551C102.314 6.2551 98.8669 9.72261 98.8669 14C98.8669 18.2774 102.314 21.7449 106.567 21.7449Z" fill="#008CA8"/>
<path opacity="0.3" fill-rule="evenodd" clip-rule="evenodd" d="M20.9997 7.77548C18.9571 4.59825 15.4353 2.5 11.4332 2.5C8.46726 2.5 5.7651 3.65242 3.73329 5.54238V2.5H0V14.1667V32.5H3.73329V22.7909C5.7651 24.6809 8.46726 25.8333 11.4332 25.8333C15.4353 25.8333 18.9571 23.7351 20.9997 20.5579C19.8195 18.7221 19.1331 16.5262 19.1331 14.1667C19.1331 11.8071 19.8195 9.61122 20.9997 7.77548ZM19.1331 14.1667C19.1331 9.82729 15.6857 6.30952 11.4332 6.30952C7.18065 6.30952 3.73329 9.82729 3.73329 14.1667C3.73329 18.506 7.18065 22.0238 11.4332 22.0238C15.6857 22.0238 19.1331 18.506 19.1331 14.1667Z" fill="#008CA8"/>
<path opacity="0.5" fill-rule="evenodd" clip-rule="evenodd" d="M42 5.50976V2.5H38.2449V5.49892C36.2012 3.63596 33.4833 2.5 30.5 2.5C24.1487 2.5 19 7.64873 19 14C19 20.3513 24.1487 25.5 30.5 25.5C33.4833 25.5 36.2012 24.364 38.2449 22.5011V25.5H42V22.5464C39.6928 20.4389 38.2449 17.4029 38.2449 14.0281C38.2449 10.6532 39.6928 7.61726 42 5.50976ZM30.5 6.2551C34.7774 6.2551 38.2449 9.72261 38.2449 14C38.2449 18.2774 34.7774 21.7449 30.5 21.7449C26.2226 21.7449 22.7551 18.2774 22.7551 14C22.7551 9.72261 26.2226 6.2551 30.5 6.2551Z" fill="#008CA8"/>
<path opacity="0.5" fill-rule="evenodd" clip-rule="evenodd" d="M76 5.54238V2.5H79.7551V5.54238C81.7988 3.65242 84.5167 2.5 87.5 2.5C93.8513 2.5 99 7.72334 99 14.1667C99 20.61 93.8513 25.8333 87.5 25.8333C84.5167 25.8333 81.7988 24.6809 79.7551 22.7909V32.5H76V22.7909C78.3072 20.6572 79.7551 17.5835 79.7551 14.1667C79.7551 18.506 83.2226 22.0238 87.5 22.0238C91.7774 22.0238 95.2449 18.506 95.2449 14.1667C95.2449 9.82729 91.7774 6.30952 87.5 6.30952C83.2226 6.30952 79.7551 9.82729 79.7551 14.1667C79.7551 10.7498 78.3072 7.67609 76 5.54238Z" fill="#008CA8"/>
<path opacity="0.8" fill-rule="evenodd" clip-rule="evenodd" d="M61.0002 22.5011C63.0179 24.364 65.7012 25.5 68.6465 25.5C74.9168 25.5 79.9999 20.3513 79.9999 14C79.9999 7.64873 74.9168 2.5 68.6465 2.5C65.7012 2.5 63.0179 3.63596 61.0002 5.49892V14.0213L61.0002 14.0281L61.0002 14.0348V22.5011ZM68.6465 6.2551C64.4236 6.2551 61.0002 9.72261 61.0002 14C61.0002 18.2774 64.4236 21.7449 68.6465 21.7449C72.8693 21.7449 76.2927 18.2774 76.2927 14C76.2927 9.72261 72.8693 6.2551 68.6465 6.2551Z" fill="#008CA8"/>
<path fill-rule="evenodd" clip-rule="evenodd" d="M57.2449 5.80422V0.5H61V14.2391V25.6495C61 28.6204 59.7706 31.4085 57.6205 33.5L54.9917 30.8395C56.4352 29.4353 57.2449 27.599 57.2449 25.6495V22.6739C55.2012 24.5224 52.4833 25.6495 49.5 25.6495C43.1487 25.6495 38 20.5409 38 14.2391C38 7.93728 43.1487 2.82866 49.5 2.82866C52.4833 2.82866 55.2012 3.95577 57.2449 5.80422ZM57.2449 14.2391C57.2449 9.99501 53.7774 6.55451 49.5 6.55451C45.2226 6.55451 41.7551 9.99501 41.7551 14.2391C41.7551 18.4831 45.2226 21.9236 49.5 21.9236C53.7774 21.9236 57.2449 18.4831 57.2449 14.2391Z" fill="#008CA8"/>
</svg>
