<svg xmlns="http://www.w3.org/2000/svg" width="121" height="34">
  <g fill="#00B2C2" fill-rule="evenodd">
    <path d="M3.8156 2.371v2.9696c2.057-1.8448 4.7926-2.9696 7.7953-2.9696 4.0517 0 7.6172 2.0482 9.685 5.1495-1.195 1.7918-1.89 3.935-1.89 6.2379 0-4.2356-3.49-7.669-7.795-7.669-4.3052 0-7.7953 3.4334-7.7953 7.669 0 4.2354 3.49 7.6689 7.7953 7.6689 4.305 0 7.795-3.4335 7.795-7.669 0 2.303.695 4.4461 1.8896 6.2378-2.0674 3.1014-5.633 5.1495-9.6846 5.1495-3.0027 0-5.7383-1.1248-7.7953-2.9696v9.4766H.0362V2.371h3.7794zm112.4416 22.7746h3.779V2.371h-3.779v2.9696c-2.057-1.8448-4.793-2.9696-7.796-2.9696-4.051 0-7.617 2.0482-9.6843 5.1495 1.1946 1.7918 1.8893 3.935 1.8893 6.2379 0 2.3028-.6947 4.446-1.8898 6.2377 2.0678 3.1014 5.6338 5.1495 9.6848 5.1495 3.003 0 5.739-1.1248 7.796-2.9696v2.9696zm-15.591-11.3872c0-4.2356 3.49-7.669 7.795-7.669s7.796 3.4334 7.796 7.669c0 4.2354-3.491 7.6689-7.796 7.6689s-7.795-3.4335-7.795-7.669z" opacity=".3"/>
    <path d="M42.5555 5.3513V2.371H38.776v2.9696C36.719 3.4958 33.9836 2.371 30.981 2.371c-6.3925 0-11.5746 5.0983-11.5746 11.3874 0 6.289 5.182 11.3872 11.5746 11.3872 3.0026 0 5.7382-1.1248 7.7952-2.9696l-.0001 2.9696h3.7795V22.221c-2.3222-2.0869-3.7795-5.0931-3.7795-8.4349 0-3.3417 1.4573-6.348 3.7795-8.4348zm-19.3697 8.407c0-4.2355 3.49-7.669 7.795-7.669 4.3052 0 7.7952 3.4335 7.7952 7.669s-3.49 7.669-7.7951 7.669c-4.3051 0-7.7951-3.4335-7.7951-7.669zM81.296 2.371l.0004 2.9692c2.0569-1.8445 4.7924-2.9692 7.7949-2.9692 6.3925 0 11.5748 5.0983 11.5748 11.3874 0 6.289-5.1823 11.3872-11.5748 11.3872-3.0025 0-5.738-1.1246-7.795-2.969l-.0003 9.476h-3.7795V22.176c2.3222-2.0825 3.7795-5.0826 3.7795-8.4176 0 4.2354 3.49 7.6689 7.7953 7.6689 4.3052 0 7.7952-3.4335 7.7952-7.669s-3.49-7.669-7.7952-7.669c-4.3053 0-7.7953 3.4335-7.7953 7.669 0-3.335-1.4573-6.3351-3.7795-8.4177V2.371h3.7795z" opacity=".6"/>
    <path d="M61.926.047V5.34l.159-.1396c2.038-1.7614 4.7104-2.8295 7.6363-2.8295 6.3926 0 11.5748 5.0983 11.5748 11.3874 0 6.289-5.1822 11.3873-11.5748 11.3873-3.0026 0-5.7383-1.1248-7.7952-2.9696l-.0001 3.0204c0 2.9003-1.1791 5.6262-3.2484 7.7l-.153.1506-2.646-2.6606c1.406-1.3587 2.2147-3.1224 2.2654-5.0016l.0025-.1884V22.221c-2.057 1.8484-4.7926 2.9755-7.7953 2.9755-6.3925 0-11.5748-5.1085-11.5748-11.4104 0-6.3017 5.1823-11.4103 11.5748-11.4103 3.0027 0 5.7384 1.127 7.7954 2.9755L58.1465.047h3.7795zM50.3512 6.1015c-4.3052 0-7.7952 3.4405-7.7952 7.6845 0 4.2441 3.49 7.6846 7.7952 7.6846s7.7953-3.4405 7.7953-7.6846c0-4.244-3.4901-7.6845-7.7953-7.6845zm11.5749 7.6568c0-4.2355 3.49-7.669 7.7952-7.669s7.7953 3.4335 7.7953 7.669c0 4.2354-3.4901 7.669-7.7953 7.669s-7.7952-3.4336-7.7952-7.669z"/>
  </g>
</svg>