<svg width="138" height="144" viewBox="0 0 138 144" fill="none" xmlns="http://www.w3.org/2000/svg">
<path fill-rule="evenodd" clip-rule="evenodd" d="M20.5264 122.59C-6.24476 94.6996 -6.24476 49.4797 20.5264 21.589C47.2977 -6.30172 90.7023 -6.30172 117.474 21.589C130.33 34.9826 137.552 53.1482 137.552 72.0896C137.552 91.0311 130.33 109.197 117.474 122.59C90.7023 150.481 47.2977 150.481 20.5264 122.59ZM73.3619 71.5842L95.175 94.3095L90.3276 99.3595L68.5145 76.6342L46.7014 99.3595L41.8541 94.3095L63.6672 71.5842L41.8541 48.8589L46.7014 43.8088L68.5145 66.5341L90.3276 43.8088L95.175 48.8589L73.3619 71.5842ZM112.626 26.6389C136.72 51.7405 136.72 92.4384 112.626 117.54C88.5319 142.642 49.4677 142.642 25.3736 117.54C1.27948 92.4384 1.27948 51.7405 25.3736 26.6389C49.4677 1.53721 88.5319 1.53721 112.626 26.6389Z" fill="#C02927"/>
</svg>
