<svg width="142" height="149" viewBox="0 0 142 149" fill="none" xmlns="http://www.w3.org/2000/svg">
<path fill-rule="evenodd" clip-rule="evenodd" d="M20.7952 127.001C-6.93208 98.1142 -6.93207 51.2794 20.7952 22.3926C48.5226 -6.49422 93.4774 -6.49422 121.205 22.3926C134.52 36.2646 142 55.0789 142 74.6968C142 94.3147 134.52 113.129 121.205 127.001C93.4774 155.888 48.5226 155.888 20.7952 127.001ZM75.5177 74.1734L98.1098 97.7103L93.0893 102.941L70.4972 79.4038L47.9051 102.941L42.8846 97.7103L65.4767 74.1734L42.8846 50.6365L47.9051 45.406L70.4972 68.9429L93.0893 45.406L98.1098 50.6365L75.5177 74.1734ZM116.184 27.623C141.139 53.6211 141.139 95.7724 116.184 121.771C91.2298 147.769 50.7704 147.769 25.8158 121.771C0.861252 95.7724 0.86125 53.6211 25.8158 27.623C50.7704 1.62483 91.2298 1.62482 116.184 27.623Z" fill="#C02927"/>
</svg>
