<svg width="141" height="141" viewBox="0 0 141 141" fill="none" xmlns="http://www.w3.org/2000/svg">
<path fill-rule="evenodd" clip-rule="evenodd" d="M70.3301 140.917C31.6701 140.917 0.330078 109.577 0.330078 70.9166C0.330078 32.2567 31.6701 0.916626 70.3301 0.916626C88.8952 0.916626 106.7 8.2916 119.828 21.4192C132.955 34.5467 140.33 52.3515 140.33 70.9166C140.33 109.577 108.99 140.917 70.3301 140.917ZM106.029 42.2167L110.929 47.1167L56.3287 100.317L23.4287 68.1167L28.3287 63.2167L56.3287 90.5167L106.029 42.2167ZM70.3301 7.91666C105.124 7.91666 133.33 36.1227 133.33 70.9167C133.33 105.711 105.124 133.917 70.3301 133.917C35.5361 133.917 7.33008 105.711 7.33008 70.9167C7.33008 36.1227 35.5361 7.91666 70.3301 7.91666Z" fill="#00C5CA"/>
</svg>
